<svg width="51" height="90" viewBox="0 0 51 90" fill="none" xmlns="http://www.w3.org/2000/svg">
<path d="M2.21 90L1.22942 89.8039L0.990196 91H2.21V90ZM17.954 11.28L18.7041 10.6186L17.3692 9.10475L16.9734 11.0839L17.954 11.28ZM28.45 23.184V24.184H30.6649L29.2001 22.5226L28.45 23.184ZM0.162 23.184L-0.818155 22.9858L-1.06049 24.184H0.162V23.184ZM4.77 0.399994V-0.600006H3.952L3.78985 0.20176L4.77 0.399994ZM50.338 0.399994L51.3186 0.59611L51.5578 -0.600006H50.338V0.399994ZM32.418 90V91H33.2378L33.3986 90.1961L32.418 90ZM3.19058 90.1961L18.9346 11.4761L16.9734 11.0839L1.22942 89.8039L3.19058 90.1961ZM17.2039 11.9414L27.6999 23.8454L29.2001 22.5226L18.7041 10.6186L17.2039 11.9414ZM28.45 22.184H0.162V24.184H28.45V22.184ZM1.14215 23.3822L5.75016 0.598227L3.78985 0.20176L-0.818155 22.9858L1.14215 23.3822ZM4.77 1.39999H50.338V-0.600006H4.77V1.39999ZM49.3574 0.203878L31.4374 89.8039L33.3986 90.1961L51.3186 0.59611L49.3574 0.203878ZM32.418 89H2.21V91H32.418V89Z" fill="white"/>
</svg>
