<?xml version="1.0" encoding="utf-8"?>
<!-- Generator: Adobe Illustrator 26.1.0, SVG Export Plug-In . SVG Version: 6.00 Build 0)  -->
<svg version="1.1"
	 id="баннер-красный_xA0_Изображение_00000090259856699711198600000013338158419897363854_"
	 xmlns="http://www.w3.org/2000/svg" xmlns:xlink="http://www.w3.org/1999/xlink" x="0px" y="0px" viewBox="0 0 250 250"
	 style="enable-background:new 0 0 250 250;" xml:space="preserve">
<style type="text/css">
	.st0{fill:none;stroke:#000000;}
</style>
<g>
	<path class="st0" d="M162.6,59.3c-7.7-3.3-16.6-5-26.6-5c-12.7,0-24.1,2.5-34.3,7.6c-10.2,5.1-18,11.9-23.6,20.5l26.2,17.2
		c3.6-4.4,7.6-7.8,12-10.2c4.4-2.4,9-3.7,13.8-3.7c5.4,0,9.6,1.2,12.5,3.6s4.4,5.5,4.4,9.3c0,2.5-0.6,5-1.7,7.5s-3,5.2-5.6,7.9
		c-2.6,2.8-6.3,6.1-11.1,9.9L68,171.1l-5,24.6h108l6.3-31.1h-51.8l29.2-22.6c8.3-6.3,14.8-12.2,19.5-17.5s8-10.6,10-15.8
		c2-5.2,3-10.5,3-16c0-7.5-2.1-14.2-6.4-19.9C176.3,67.1,170.3,62.6,162.6,59.3z"/>
</g>
</svg>
