<svg width="84" height="92" viewBox="0 0 84 92" fill="none" xmlns="http://www.w3.org/2000/svg">
<path d="M0.6065 92L-0.374081 91.8039L-0.613304 93H0.6065V92ZM4.3185 73.44L3.70944 72.6469L3.41157 72.8756L3.33792 73.2439L4.3185 73.44ZM41.8225 44.64L42.4316 45.4332L42.4381 45.428L41.8225 44.64ZM48.0945 39.136L47.3874 38.4289L47.3773 38.439L47.3675 38.4494L48.0945 39.136ZM49.8865 25.952L49.2508 26.7239L49.2616 26.7328L49.2726 26.7413L49.8865 25.952ZM36.3185 26.464L36.8375 27.3188L36.8459 27.3136L36.3185 26.464ZM29.7905 32.736L29.2649 33.5867L30.0582 34.0769L30.6025 33.3196L29.7905 32.736ZM9.6945 20.32L8.82852 19.8199L8.3431 20.6605L9.16889 21.1707L9.6945 20.32ZM25.1825 5.856L25.6473 6.7414L25.6514 6.73925L25.1825 5.856ZM66.3985 3.67999L66.0064 4.59993L66.0118 4.60219L66.3985 3.67999ZM78.8145 12.768L79.6039 12.1541L79.6039 12.1541L78.8145 12.768ZM81.2465 36.576L80.3179 36.2046L80.3132 36.217L81.2465 36.576ZM74.5905 46.816L73.8481 46.146L73.8472 46.147L74.5905 46.816ZM61.9185 58.08L62.5232 58.8764L62.5245 58.8754L61.9185 58.08ZM34.2705 79.072L33.3242 79.3951L33.7718 80.7062L34.8752 79.8684L34.2705 79.072ZM30.6865 68.576V67.576H29.2883L29.7402 68.8991L30.6865 68.576ZM77.1505 68.576L78.1307 68.7742L78.3729 67.576H77.1505V68.576ZM72.4145 92V93H73.2326L73.3947 92.1982L72.4145 92ZM1.58708 92.1961L5.29908 73.6361L3.33792 73.2439L-0.374081 91.8039L1.58708 92.1961ZM4.92756 74.2331L42.4316 45.4331L41.2134 43.8469L3.70944 72.6469L4.92756 74.2331ZM42.4381 45.428C45.1868 43.2806 47.3216 41.4108 48.8215 39.8226L47.3675 38.4494C45.9661 39.9332 43.9195 41.7327 41.2069 43.852L42.4381 45.428ZM48.8016 39.8431C50.389 38.2558 51.546 36.704 52.2107 35.1848L50.3783 34.3832C49.8483 35.5947 48.872 36.9442 47.3874 38.4289L48.8016 39.8431ZM52.2107 35.1848C52.8582 33.7048 53.1905 32.2035 53.1905 30.688H51.1905C51.1905 31.9032 50.9255 33.1326 50.3783 34.3832L52.2107 35.1848ZM53.1905 30.688C53.1905 28.4199 52.2825 26.5487 50.5004 25.1626L49.2726 26.7413C50.5625 27.7447 51.1905 29.0308 51.1905 30.688H53.1905ZM50.5222 25.1801C48.8426 23.7968 46.631 23.16 43.9985 23.16V25.16C46.3154 25.16 48.0291 25.7178 49.2508 26.7239L50.5222 25.1801ZM43.9985 23.16C41.1483 23.16 38.4076 23.9903 35.7911 25.6144L36.8459 27.3136C39.1787 25.8657 41.5581 25.16 43.9985 25.16V23.16ZM35.7995 25.6092C33.2744 27.1423 31.004 29.3342 28.9785 32.1524L30.6025 33.3196C32.5023 30.6764 34.5839 28.687 36.8375 27.3188L35.7995 25.6092ZM30.3161 31.8853L10.2201 19.4693L9.16889 21.1707L29.2649 33.5867L30.3161 31.8853ZM10.5605 20.8201C13.955 14.9417 18.9704 10.2468 25.6473 6.74139L24.7177 4.9706C17.7412 8.63323 12.4313 13.581 8.82852 19.8199L10.5605 20.8201ZM25.6514 6.73925C32.4034 3.15488 40.0473 1.352 48.6065 1.352V-0.648003C39.7577 -0.648003 31.7856 1.21845 24.7136 4.97274L25.6514 6.73925ZM48.6065 1.352C55.1512 1.352 60.9449 2.44256 66.0064 4.59992L66.7906 2.76007C61.4414 0.480098 55.3738 -0.648003 48.6065 -0.648003V1.352ZM66.0118 4.60219C71.1725 6.76637 75.1615 9.70007 78.0252 13.3819L79.6039 12.1541C76.4942 8.15593 72.2058 5.03095 66.7852 2.7578L66.0118 4.60219ZM78.0252 13.3819C80.8727 17.0431 82.2945 21.2209 82.2945 25.952H84.2945C84.2945 20.7845 82.7296 16.1729 79.6039 12.1541L78.0252 13.3819ZM82.2945 25.952C82.2945 29.4939 81.6362 32.9092 80.318 36.2046L82.175 36.9474C83.5875 33.4162 84.2945 29.7488 84.2945 25.952H82.2945ZM80.3132 36.217C79.0888 39.4002 76.9482 42.7108 73.8481 46.146L75.3329 47.486C78.5474 43.9239 80.8442 40.4078 82.1799 36.935L80.3132 36.217ZM73.8472 46.147C70.8314 49.4979 66.6597 53.2104 61.3125 57.2846L62.5245 58.8754C67.9293 54.7575 72.2056 50.9607 75.3338 47.485L73.8472 46.147ZM61.3138 57.2836L33.6658 78.2756L34.8752 79.8684L62.5232 58.8764L61.3138 57.2836ZM35.2169 78.7489L31.6329 68.2529L29.7402 68.8991L33.3242 79.3951L35.2169 78.7489ZM30.6865 69.576H77.1505V67.576H30.6865V69.576ZM76.1703 68.3778L71.4343 91.8018L73.3947 92.1982L78.1307 68.7742L76.1703 68.3778ZM72.4145 91H0.6065V93H72.4145V91Z" fill="white"/>
</svg>
