<svg width="88" height="93" viewBox="0 0 88 93" fill="none" xmlns="http://www.w3.org/2000/svg">
<path d="M16.5555 89.744L16.3031 90.7116L16.3065 90.7125L16.5555 89.744ZM0.5555 82.704L-0.282009 82.1576L-0.825282 82.9903L0.00424229 83.5383L0.5555 82.704ZM14.2515 61.712L14.787 60.8675L13.9534 60.3388L13.414 61.1656L14.2515 61.712ZM25.5155 66.704L25.2489 67.6678L25.2609 67.6711L25.273 67.6741L25.5155 66.704ZM44.2035 67.344L43.9123 66.3873L43.9003 66.3911L44.2035 67.344ZM48.5555 64.784L47.7962 64.1332L47.7921 64.1381L48.5555 64.784ZM47.9155 56.592L47.3722 57.4316L47.3901 57.4431L47.4085 57.4539L47.9155 56.592ZM28.7155 55.184L27.7349 54.9879L27.4957 56.184H28.7155V55.184ZM32.4275 36.624L31.7738 35.8673L31.5142 36.0915L31.4469 36.4279L32.4275 36.624ZM59.6915 13.072L60.6836 12.9464L60.4493 11.0959L59.0378 12.3153L59.6915 13.072ZM60.9715 23.184V24.184H62.1061L61.9636 23.0584L60.9715 23.184ZM16.2995 23.184L15.3193 22.9858L15.077 24.184H16.2995V23.184ZM20.9075 0.399994V-0.600006H20.0895L19.9273 0.20176L20.9075 0.399994ZM87.7235 0.399994L88.7041 0.59611L88.9433 -0.600006H87.7235V0.399994ZM84.0115 18.96L84.6652 19.7167L84.9248 19.4925L84.9921 19.1561L84.0115 18.96ZM56.7475 42.512L56.239 43.3731L56.8576 43.7383L57.4012 43.2687L56.7475 42.512ZM43.3075 34.576V33.576H39.6472L42.799 35.4371L43.3075 34.576ZM66.0915 37.52L65.6934 38.4374L65.6996 38.44L66.0915 37.52ZM76.7155 45.84L75.8926 46.4082L75.8971 46.4147L75.9018 46.4212L76.7155 45.84ZM74.5395 75.792L73.7523 75.1753L73.7509 75.1771L74.5395 75.792ZM58.2835 87.696L57.8965 86.7739L57.8924 86.7757L58.2835 87.696ZM35.1155 91.048C28.7963 91.048 22.6935 90.2898 16.8045 88.7755L16.3065 90.7125C22.3642 92.2702 28.6347 93.048 35.1155 93.048V91.048ZM16.8079 88.7764C11.0195 87.2664 5.78823 84.9628 1.10676 81.8697L0.00424229 83.5383C4.8801 86.7599 10.3155 89.1496 16.3031 90.7116L16.8079 88.7764ZM1.39301 83.2504L15.089 62.2584L13.414 61.1656L-0.282009 82.1576L1.39301 83.2504ZM13.716 62.5565C17.2983 64.8282 21.1436 66.5323 25.2489 67.6678L25.7821 65.7402C21.866 64.657 18.2021 63.0331 14.787 60.8675L13.716 62.5565ZM25.273 67.6741C29.4367 68.7151 33.4012 69.24 37.1635 69.24V67.24C33.5871 67.24 29.7863 66.7409 25.758 65.7339L25.273 67.6741ZM37.1635 69.24C40.0421 69.24 42.4992 68.9357 44.5067 68.2969L43.9003 66.3911C42.1532 66.947 39.9169 67.24 37.1635 67.24V69.24ZM44.4947 68.3007C46.5688 67.6694 48.2147 66.7349 49.3189 65.4299L47.7921 64.1381C47.019 65.0518 45.7635 65.8239 43.9123 66.3873L44.4947 68.3007ZM49.3148 65.4348C50.4992 64.0529 51.0915 62.4121 51.0915 60.56H49.0915C49.0915 61.9506 48.6598 63.1257 47.7962 64.1332L49.3148 65.4348ZM51.0915 60.56C51.0915 58.4416 50.202 56.7768 48.4225 55.7301L47.4085 57.4539C48.5303 58.1139 49.0915 59.0944 49.0915 60.56H51.0915ZM48.4588 55.7524C46.7635 54.6555 44.2657 54.184 41.1315 54.184V56.184C44.1413 56.184 46.1662 56.6512 47.3722 57.4316L48.4588 55.7524ZM41.1315 54.184H28.7155V56.184H41.1315V54.184ZM29.6961 55.3801L33.4081 36.8201L31.4469 36.4279L27.7349 54.9879L29.6961 55.3801ZM33.0812 37.3807L60.3452 13.8287L59.0378 12.3153L31.7738 35.8673L33.0812 37.3807ZM58.6994 13.1976L59.9794 23.3096L61.9636 23.0584L60.6836 12.9464L58.6994 13.1976ZM60.9715 22.184H16.2995V24.184H60.9715V22.184ZM17.2797 23.3822L21.8877 0.598227L19.9273 0.20176L15.3193 22.9858L17.2797 23.3822ZM20.9075 1.39999H87.7235V-0.600006H20.9075V1.39999ZM86.7429 0.203878L83.0309 18.7639L84.9921 19.1561L88.7041 0.59611L86.7429 0.203878ZM83.3578 18.2033L56.0938 41.7553L57.4012 43.2687L84.6652 19.7167L83.3578 18.2033ZM57.256 41.6509L43.816 33.7149L42.799 35.4371L56.239 43.3731L57.256 41.6509ZM43.3075 35.576H49.9635V33.576H43.3075V35.576ZM49.9635 35.576C56.0907 35.576 61.3248 36.5415 65.6934 38.4373L66.4896 36.6027C61.8129 34.5731 56.295 33.576 49.9635 33.576V35.576ZM65.6996 38.44C70.1603 40.3399 73.5408 43.0021 75.8926 46.4082L77.5384 45.2718C74.9409 41.5098 71.2387 38.6254 66.4834 36.6L65.6996 38.44ZM75.9018 46.4212C78.328 49.818 79.5555 53.8336 79.5555 58.512H81.5555C81.5555 53.4624 80.223 49.03 77.5292 45.2588L75.9018 46.4212ZM79.5555 58.512C79.5555 64.6845 77.6275 70.2282 73.7523 75.1753L75.3267 76.4087C79.4728 71.1158 81.5555 65.1395 81.5555 58.512H79.5555ZM73.7509 75.1771C69.9479 80.0549 64.6782 83.9273 57.8965 86.7739L58.6705 88.6181C65.7128 85.662 71.2804 81.5985 75.3281 76.4069L73.7509 75.1771ZM57.8924 86.7757C51.2078 89.6166 43.6213 91.048 35.1155 91.048V93.048C43.847 93.048 51.7059 91.5781 58.6746 88.6163L57.8924 86.7757Z" fill="white"/>
</svg>
