<?xml version="1.0" encoding="utf-8"?>
<!-- Generator: Adobe Illustrator 26.1.0, SVG Export Plug-In . SVG Version: 6.00 Build 0)  -->
<svg version="1.1"
	 id="баннер-красный_xA0_Изображение_00000090259856699711198600000013338158419897363854_"
	 xmlns="http://www.w3.org/2000/svg" xmlns:xlink="http://www.w3.org/1999/xlink" x="0px" y="0px" viewBox="0 0 250 250"
	 style="enable-background:new 0 0 250 250;" xml:space="preserve">
<style type="text/css">
	.st0{fill:none;stroke:#000000;}
</style>
<g>
	<path class="st0" d="M84.1,84.6h54.2l-29.6,26.7l-5,24.8h16.8c6.3,0,11,1,14,3s4.5,4.9,4.5,8.7c0,3.4-1,6.4-2.9,8.8
		c-1.9,2.4-4.7,4.3-8.4,5.5c-3.7,1.3-8.3,1.9-13.7,1.9c-6.5,0-12.9-1-19.3-3s-12.1-4.8-17.1-8.5l-18.2,27.9
		c6.7,5,14.6,8.8,23.6,11.4c9,2.6,18.5,3.9,28.5,3.9c12.9,0,24.5-2.2,34.7-6.5c10.2-4.4,18.1-10.3,23.9-17.9
		c5.7-7.6,8.6-16.2,8.6-25.9c0-7.5-1.9-14.1-5.6-19.6c-3.8-5.5-9.1-9.8-16-12.8c-2.1-0.9-4.3-1.6-6.6-2.2l35.4-31.9l4.8-24.6H90.3
		L84.1,84.6z"/>
</g>
</svg>
