<svg width="93" height="90" viewBox="0 0 93 90" fill="none" xmlns="http://www.w3.org/2000/svg">
<path d="M0.4135 74.64L-0.567081 74.4439L-0.806304 75.64H0.4135V74.64ZM4.2535 55.44L3.49984 54.7827L3.32507 54.9831L3.27292 55.2439L4.2535 55.44ZM52.2535 0.399994V-0.600006H51.7987L51.4998 -0.257269L52.2535 0.399994ZM84.2535 0.399994L85.0168 1.0461L86.4102 -0.600006H84.2535V0.399994ZM37.6615 55.44L37.3765 56.3985L38.0027 56.5847L38.4248 56.0861L37.6615 55.44ZM23.4535 51.216V50.216L23.1685 52.1745L23.4535 51.216ZM92.8295 51.216L93.8097 51.4142L94.0519 50.216H92.8295V51.216ZM88.0935 74.64V75.64H88.9116L89.0737 74.8382L88.0935 74.64ZM43.8055 90L42.8249 89.8039L42.5857 91H43.8055V90ZM46.8775 74.64L45.9102 74.3863L45.9027 74.4149L45.8969 74.4439L46.8775 74.64ZM53.0215 51.216L53.9888 51.4697L53.9967 51.4394L54.0028 51.4086L53.0215 51.216ZM55.7095 37.52V36.52H54.8867L54.7282 37.3274L55.7095 37.52ZM83.6135 37.52L84.5941 37.7161L84.8333 36.52H83.6135V37.52ZM73.1175 90V91H73.9373L74.0981 90.1961L73.1175 90ZM1.39408 74.8361L5.23408 55.6361L3.27292 55.2439L-0.567081 74.4439L1.39408 74.8361ZM5.00716 56.0973L53.0072 1.05726L51.4998 -0.257269L3.49984 54.7827L5.00716 56.0973ZM52.2535 1.39999H84.2535V-0.600006H52.2535V1.39999ZM83.4903 -0.246107L36.8983 54.7939L38.4248 56.0861L85.0168 1.0461L83.4903 -0.246107ZM37.9465 54.4815L23.7385 50.2575L23.1685 52.1745L37.3765 56.3985L37.9465 54.4815ZM23.4535 52.216H92.8295V50.216H23.4535V52.216ZM91.8493 51.0178L87.1133 74.4418L89.0737 74.8382L93.8097 51.4142L91.8493 51.0178ZM88.0935 73.64H0.4135V75.64H88.0935V73.64ZM44.7861 90.1961L47.8581 74.8361L45.8969 74.4439L42.8249 89.8039L44.7861 90.1961ZM47.8448 74.8937L53.9888 51.4697L52.0542 50.9623L45.9102 74.3863L47.8448 74.8937ZM54.0028 51.4086L56.6908 37.7126L54.7282 37.3274L52.0402 51.0234L54.0028 51.4086ZM55.7095 38.52H83.6135V36.52H55.7095V38.52ZM82.6329 37.3239L72.1369 89.8039L74.0981 90.1961L84.5941 37.7161L82.6329 37.3239ZM73.1175 89H43.8055V91H73.1175V89Z" fill="white"/>
</svg>
