<svg width="87" height="93" viewBox="0 0 87 93" fill="none" xmlns="http://www.w3.org/2000/svg">
<path d="M16.279 89.744L16.0266 90.7116L16.03 90.7125L16.279 89.744ZM0.279 82.704L-0.558509 82.1576L-1.10178 82.9903L-0.272257 83.5383L0.279 82.704ZM13.975 61.712L14.5105 60.8675L13.6769 60.3388L13.1375 61.1656L13.975 61.712ZM25.239 66.704L24.9724 67.6678L24.9844 67.6711L24.9965 67.6741L25.239 66.704ZM46.487 66.32L46.9867 67.1862L46.999 67.1791L47.0111 67.1717L46.487 66.32ZM47.383 56.336L47.917 55.4905L47.917 55.4905L47.383 56.336ZM11.415 54.8L10.4526 54.5283L10.0936 55.8H11.415V54.8ZM26.775 0.399994V-0.600006H26.0183L25.8126 0.128265L26.775 0.399994ZM86.295 0.399994L87.2752 0.598227L87.5175 -0.600006H86.295V0.399994ZM81.687 23.184V24.184H82.505L82.6672 23.3822L81.687 23.184ZM32.791 23.184L32.2032 22.375L29.7136 24.184H32.791V23.184ZM50.583 10.256L51.5468 10.5227L52.31 7.76504L49.9952 9.44701L50.583 10.256ZM40.983 44.944L40.2653 45.6404L41.4811 46.8934L41.9468 45.2107L40.983 44.944ZM28.439 32.016V31.016H26.0753L27.7213 32.7124L28.439 32.016ZM71.575 38.416L70.9826 39.2217L70.9904 39.2273L71.575 38.416ZM74.263 75.92L73.4708 75.3096L73.4646 75.3179L74.263 75.92ZM58.007 87.952L58.3784 88.8805L58.3843 88.8781L58.007 87.952ZM34.839 91.048C28.5198 91.048 22.417 90.2898 16.528 88.7755L16.03 90.7125C22.0877 92.2702 28.3582 93.048 34.839 93.048V91.048ZM16.5314 88.7764C10.743 87.2664 5.51173 84.9628 0.830257 81.8697L-0.272257 83.5383C4.6036 86.7599 10.039 89.1496 16.0266 90.7116L16.5314 88.7764ZM1.11651 83.2504L14.8125 62.2584L13.1375 61.1656L-0.558509 82.1576L1.11651 83.2504ZM13.4395 62.5565C17.0218 64.8282 20.8671 66.5323 24.9724 67.6678L25.5056 65.7402C21.5895 64.657 17.9256 63.0331 14.5105 60.8675L13.4395 62.5565ZM24.9965 67.6741C29.1602 68.7151 33.1247 69.24 36.887 69.24V67.24C33.3106 67.24 29.5098 66.7409 25.4815 65.7339L24.9965 67.6741ZM36.887 69.24C41.1445 69.24 44.5486 68.5928 46.9867 67.1862L45.9873 65.4538C43.9881 66.6072 40.9922 67.24 36.887 67.24V69.24ZM47.0111 67.1717C49.4934 65.6441 50.815 63.4607 50.815 60.688H48.815C48.815 62.694 47.9179 64.2653 45.9629 65.4683L47.0111 67.1717ZM50.815 60.688C50.815 58.4587 49.8209 56.6929 47.917 55.4905L46.849 57.1815C48.1878 58.027 48.815 59.1626 48.815 60.688H50.815ZM47.917 55.4905C46.0337 54.3011 42.8737 53.8 38.679 53.8V55.8C42.847 55.8 45.4896 56.3229 46.849 57.1815L47.917 55.4905ZM38.679 53.8H11.415V55.8H38.679V53.8ZM12.3774 55.0717L27.7374 0.671723L25.8126 0.128265L10.4526 54.5283L12.3774 55.0717ZM26.775 1.39999H86.295V-0.600006H26.775V1.39999ZM85.3149 0.20176L80.7068 22.9858L82.6672 23.3822L87.2752 0.598227L85.3149 0.20176ZM81.687 22.184H32.791V24.184H81.687V22.184ZM33.3788 23.993L51.1708 11.065L49.9952 9.44701L32.2032 22.375L33.3788 23.993ZM49.6192 9.98927L40.0192 44.6773L41.9468 45.2107L51.5468 10.5227L49.6192 9.98927ZM41.7007 44.2476L29.1567 31.3196L27.7213 32.7124L40.2653 45.6404L41.7007 44.2476ZM28.439 33.016H46.871V31.016H28.439V33.016ZM46.871 33.016C57.4222 33.016 65.4165 35.1289 70.9826 39.2216L72.1674 37.6103C66.1282 33.1698 57.6531 31.016 46.871 31.016V33.016ZM70.9904 39.2273C76.4856 43.1871 79.279 49.1287 79.279 57.232H81.279C81.279 48.61 78.2697 42.0076 72.1596 37.6047L70.9904 39.2273ZM79.279 57.232C79.279 64.2888 77.3327 70.2975 73.4709 75.3097L75.0551 76.5303C79.2147 71.1318 81.279 64.6819 81.279 57.232H79.279ZM73.4646 75.3179C69.6628 80.3594 64.3993 84.2679 57.6297 87.0259L58.3843 88.8781C65.4387 86.0041 71.0125 81.8913 75.0614 76.5221L73.4646 75.3179ZM57.6356 87.0235C50.9455 89.6995 43.352 91.048 34.839 91.048V93.048C43.5633 93.048 51.4151 91.6658 58.3784 88.8805L57.6356 87.0235Z" fill="white"/>
</svg>
