<?xml version="1.0" encoding="utf-8"?>
<!-- Generator: Adobe Illustrator 26.1.0, SVG Export Plug-In . SVG Version: 6.00 Build 0)  -->
<svg version="1.1"
	 id="баннер-красный_xA0_Изображение_00000090259856699711198600000013338158419897363854_"
	 xmlns="http://www.w3.org/2000/svg" xmlns:xlink="http://www.w3.org/1999/xlink" x="0px" y="0px" viewBox="0 0 250 250"
	 style="enable-background:new 0 0 250 250;" xml:space="preserve">
<style type="text/css">
	.st0{fill:none;stroke:#000000;}
</style>
<g>
	<path class="st0" d="M78,135.2h39.8c8.2,0,13.9,1.1,17.2,3.4c3.3,2.2,5,5.3,5,9.3c0,5-2.1,8.9-6.4,11.8c-4.3,2.8-10.5,4.3-18.5,4.3
		c-6.6,0-13.1-1-19.5-3s-12.1-4.8-16.9-8.5l-18.2,27.9c6.6,5,14.4,8.8,23.5,11.4c9,2.6,18.6,3.9,28.6,3.9c12.9,0,24.5-2.1,34.6-6.3
		s18.1-10.3,23.9-18.1c5.8-7.9,8.7-17.1,8.7-27.8c0-12.4-4.4-22-13.2-28.6c-8.8-6.7-21.7-10-38.7-10h-6l5.8-20.2h55.7l6.1-30.3
		h-88.2L78,135.2z"/>
</g>
</svg>
