<?xml version="1.0" encoding="utf-8"?>
<!-- Generator: Adobe Illustrator 26.1.0, SVG Export Plug-In . SVG Version: 6.00 Build 0)  -->
<svg version="1.1"
	 id="баннер-красный_xA0_Изображение_00000090259856699711198600000013338158419897363854_"
	 xmlns="http://www.w3.org/2000/svg" xmlns:xlink="http://www.w3.org/1999/xlink" x="0px" y="0px" viewBox="0 0 250 250"
	 style="enable-background:new 0 0 250 250;" xml:space="preserve">
<style type="text/css">
	.st0{fill:none;stroke:#000000;}
</style>
<path class="st0" d="M154.6,110.6c-6.7-3.1-13.8-4.7-21.5-4.7c-6.2,0-11.9,0.9-16.9,2.7c-4.2,1.5-8,3.6-11.5,6.4
	c0.4-1.3,0.7-2.5,1.2-3.7c1.4-4,3.2-7.6,5.5-11s5.1-6.3,8.3-8.7c3.2-2.4,7-4.3,11.2-5.6c4.2-1.3,9-2,14.3-2c4.8,0,9.3,0.5,13.6,1.5
	c4.3,1,8.3,2.7,12,5.2L188.6,63c-4.6-3.2-10.6-5.6-18-7.4s-15.1-2.7-23.2-2.7c-12.2,0-22.9,1.8-32.3,5.2
	c-9.4,3.5-17.5,8.2-24.3,14.2C84,78.2,78.4,85,74,92.5c-4.4,7.5-7.7,15.5-9.7,23.8s-3.1,16.4-3.1,24.4c0,12.4,2.4,22.8,7.3,31.2
	c4.9,8.4,11.7,14.7,20.4,18.9s18.7,6.3,29.9,6.3s21.2-2.1,30-6.3c8.8-4.2,15.7-10.1,20.7-17.7c5-7.6,7.5-16.6,7.5-27
	c0-8.6-2.1-15.8-6.2-21.8C166.7,118.2,161.3,113.7,154.6,110.6z M121.5,170.1c-14.5,1.6-21.4-8.7-20.9-17.7
	c0.7-11.6,9.3-17.7,20.9-17.7c11.5,0,17.7,6.4,17.7,16.2C139.2,160.6,133.2,168.8,121.5,170.1z"/>
</svg>
