<svg width="87" height="95" viewBox="0 0 87 95" fill="none" xmlns="http://www.w3.org/2000/svg">
<path d="M18.9715 89.952L18.5457 90.8568L18.9715 89.952ZM5.2755 77.792L4.41915 78.3085L4.42524 78.3184L5.2755 77.792ZM2.4595 41.824L1.49296 41.5673L1.49027 41.5778L2.4595 41.824ZM9.1155 26.208L9.97169 26.7247L9.97169 26.7247L9.1155 26.208ZM20.3795 13.024L21.0267 13.7863L21.028 13.7852L20.3795 13.024ZM36.6355 3.808L36.971 4.75006L36.9783 4.74742L36.6355 3.808ZM74.0115 2.272L73.7651 3.24116L73.7747 3.2436L73.7843 3.24584L74.0115 2.272ZM86.2995 7.392L87.1339 7.94313L87.6625 7.14285L86.885 6.58132L86.2995 7.392ZM72.6035 28.128L72.042 28.9555L72.8799 29.524L73.4379 28.6791L72.6035 28.128ZM65.0515 24.8L64.8016 25.7683L64.8164 25.7721L64.8312 25.7754L65.0515 24.8ZM48.7955 24.8L49.0465 25.768L49.0631 25.7637L49.0796 25.7588L48.7955 24.8ZM42.6515 27.616L43.2062 28.448L43.2196 28.4391L43.2327 28.4297L42.6515 27.616ZM37.9155 32.096L37.12 31.4899L37.1155 31.496L37.9155 32.096ZM34.5875 37.984L33.6665 37.5944L33.6627 37.6034L33.659 37.6126L34.5875 37.984ZM32.5395 45.024L31.5589 44.8279L31.5589 44.8279L32.5395 45.024ZM32.0275 48.864L33.025 48.9352L33.0253 48.9305L32.0275 48.864ZM31.7715 52.576L31.2622 53.4366L32.6612 54.2645L32.7693 52.6425L31.7715 52.576ZM25.4995 48.864L24.6381 48.356L24.1309 49.216L24.9902 49.7246L25.4995 48.864ZM32.0275 40.672L32.6935 41.4179L32.7008 41.4114L32.708 41.4048L32.0275 40.672ZM40.0915 35.68L39.7433 34.7426L39.7433 34.7426L40.0915 35.68ZM63.7715 36.96L63.3536 37.8685L63.3536 37.8685L63.7715 36.96ZM74.1395 45.664L73.316 46.2313L73.3202 46.2374L73.3245 46.2435L74.1395 45.664ZM73.1155 77.92L72.2834 77.3653L72.2771 77.375L73.1155 77.92ZM59.1635 89.824L58.7371 88.9195L58.732 88.9219L59.1635 89.824ZM45.7235 70.496L46.3978 71.2345L46.4063 71.2267L46.4147 71.2186L45.7235 70.496ZM46.3635 57.056L45.6564 57.7631L45.6665 57.7732L45.6769 57.783L46.3635 57.056ZM35.0995 56.16L35.5674 57.0438L35.5763 57.0391L35.5851 57.0342L35.0995 56.16ZM31.5155 59.616L30.6622 59.0945L30.6578 59.1017L30.6536 59.109L31.5155 59.616ZM31.1315 69.216L30.2253 69.6389L30.2428 69.6763L30.2633 69.7121L31.1315 69.216ZM34.0755 72.16L33.561 73.0175L33.5826 73.0305L33.6049 73.0424L34.0755 72.16ZM38.8115 93.048C31.5116 93.048 25.0473 91.706 19.3973 89.0472L18.5457 90.8568C24.501 93.6593 31.2634 95.048 38.8115 95.048V93.048ZM19.3973 89.0472C13.7671 86.3977 9.35035 82.4746 6.12577 77.2656L4.42524 78.3184C7.85665 83.8614 12.5706 88.045 18.5457 90.8568L19.3973 89.0472ZM6.13179 77.2755C3.0059 72.0931 1.4115 65.5851 1.4115 57.696H-0.5885C-0.5885 65.8496 1.05977 72.7389 4.41921 78.3085L6.13179 77.2755ZM1.4115 57.696C1.4115 52.5789 2.0825 47.3709 3.42873 42.0702L1.49027 41.5778C0.105836 47.029 -0.5885 52.4024 -0.5885 57.696H1.4115ZM3.42599 42.0807C4.85181 36.7129 7.03276 31.5949 9.97169 26.7247L8.25931 25.6913C5.2249 30.7198 2.96852 36.0124 1.49302 41.5673L3.42599 42.0807ZM9.97169 26.7247C12.901 21.8704 16.5843 17.5581 21.0267 13.7863L19.7323 12.2617C15.1293 16.1699 11.3034 20.6469 8.25931 25.6913L9.97169 26.7247ZM21.028 13.7852C25.5353 9.94565 30.8455 6.93171 36.971 4.75003L36.3 2.86596C29.9668 5.12161 24.4397 8.25167 19.731 12.2628L21.028 13.7852ZM36.9783 4.74742C43.1642 2.4904 50.2131 1.352 58.1395 1.352V-0.648003C50.0233 -0.648003 42.7362 0.517591 36.2927 2.86858L36.9783 4.74742ZM58.1395 1.352C63.6087 1.352 68.8162 1.98297 73.7651 3.24116L74.2579 1.30283C69.1375 0.00101897 63.7637 -0.648003 58.1395 -0.648003V1.352ZM73.7843 3.24584C78.8218 4.42127 82.7824 6.08542 85.714 8.20268L86.885 6.58132C83.6726 4.26124 79.4412 2.51205 74.2387 1.29815L73.7843 3.24584ZM85.4651 6.84087L71.7691 27.5769L73.4379 28.6791L87.1339 7.94313L85.4651 6.84087ZM73.165 27.3005C70.6789 25.6136 68.0468 24.4512 65.2718 23.8246L64.8312 25.7754C67.3468 26.3435 69.7494 27.3998 72.042 28.9555L73.165 27.3005ZM65.3014 23.8317C62.565 23.1256 59.6215 22.776 56.4755 22.776V24.776C59.4735 24.776 62.2473 25.1091 64.8016 25.7683L65.3014 23.8317ZM56.4755 22.776C53.5794 22.776 50.9219 23.127 48.5114 23.8412L49.0796 25.7588C51.2771 25.1077 53.7396 24.776 56.4755 24.776V22.776ZM48.5445 23.832C46.1316 24.4576 43.9698 25.4455 42.0703 26.8023L43.2327 28.4297C44.9172 27.2265 46.8514 26.3371 49.0465 25.768L48.5445 23.832ZM42.0968 26.7839C40.2084 28.0429 38.5494 29.6139 37.1201 31.49L38.7109 32.702C40.0122 30.9941 41.5106 29.5784 43.2062 28.448L42.0968 26.7839ZM37.1155 31.496C35.781 33.2753 34.6328 35.3104 33.6665 37.5944L35.5085 38.3736C36.4195 36.2203 37.49 34.33 38.7155 32.696L37.1155 31.496ZM33.659 37.6126C32.7802 39.8097 32.0813 42.2159 31.5589 44.8279L33.5201 45.2201C34.0217 42.7121 34.6881 40.425 35.516 38.3554L33.659 37.6126ZM31.5589 44.8279C31.2945 46.1499 31.118 47.4732 31.0297 48.7975L33.0253 48.9305C33.1077 47.6948 33.2725 46.4581 33.5201 45.2201L31.5589 44.8279ZM31.03 48.7928C30.9446 49.9891 30.8591 51.228 30.7737 52.5095L32.7693 52.6425C32.8545 51.364 32.9397 50.1282 33.025 48.9352L31.03 48.7928ZM32.2808 51.7154L26.0088 48.0034L24.9902 49.7246L31.2622 53.4366L32.2808 51.7154ZM26.3609 49.372C28.2815 46.1152 30.3952 43.47 32.6935 41.4179L31.3615 39.9261C28.8812 42.1406 26.6428 44.9568 24.6381 48.356L26.3609 49.372ZM32.708 41.4048C35.0033 39.2734 37.5791 37.6799 40.4397 36.6174L39.7433 34.7426C36.6306 35.8987 33.8303 37.6333 31.347 39.9392L32.708 41.4048ZM40.4397 36.6174C43.297 35.5561 46.5469 35.016 50.2035 35.016V33.016C46.3507 33.016 42.8593 33.5852 39.7433 34.7426L40.4397 36.6174ZM50.2035 35.016C54.8405 35.016 59.2203 35.9672 63.3536 37.8685L64.1894 36.0515C59.7893 34.0275 55.1238 33.016 50.2035 33.016V35.016ZM63.3536 37.8685C67.4581 39.7565 70.7735 42.5406 73.316 46.2313L74.963 45.0967C72.2149 41.1074 68.6183 38.0888 64.1894 36.0515L63.3536 37.8685ZM73.3245 46.2435C75.9128 49.8833 77.2355 54.4062 77.2355 59.872H79.2355C79.2355 54.0738 77.8275 49.1247 74.9545 45.0845L73.3245 46.2435ZM77.2355 59.872C77.2355 66.6118 75.5741 72.4293 72.2835 77.3653L73.9476 78.4747C77.4836 73.1707 79.2355 66.9562 79.2355 59.872H77.2355ZM72.2771 77.375C69.0586 82.3265 64.5566 86.176 58.7371 88.9195L59.5899 90.7285C65.7171 87.84 70.5164 83.7535 73.9539 78.465L72.2771 77.375ZM58.732 88.9219C53.0005 91.663 46.3684 93.048 38.8115 93.048V95.048C46.6146 95.048 53.5505 93.617 59.595 90.7261L58.732 88.9219ZM38.6835 74.184C41.6561 74.184 44.2453 73.1998 46.3978 71.2345L45.0492 69.7575C43.2763 71.3762 41.1722 72.184 38.6835 72.184V74.184ZM46.4147 71.2186C48.607 69.1217 49.6675 66.326 49.6675 62.944H47.6675C47.6675 65.8767 46.7654 68.1156 45.0323 69.7734L46.4147 71.2186ZM49.6675 62.944C49.6675 60.2455 48.8206 58.0011 47.0501 56.329L45.6769 57.783C46.9784 59.0122 47.6675 60.6932 47.6675 62.944H49.6675ZM47.0706 56.3489C45.3824 54.6607 43.0498 53.88 40.2195 53.88V55.88C42.6799 55.88 44.4433 56.55 45.6564 57.7631L47.0706 56.3489ZM40.2195 53.88C38.1842 53.88 36.3086 54.3443 34.6139 55.2858L35.5851 57.0342C36.9624 56.269 38.5001 55.88 40.2195 55.88V53.88ZM34.6316 55.2762C33.0072 56.1362 31.6852 57.4206 30.6622 59.0945L32.3688 60.1374C33.2232 58.7394 34.2905 57.7198 35.5674 57.0438L34.6316 55.2762ZM30.6536 59.109C29.6921 60.7435 29.2355 62.6763 29.2355 64.864H31.2355C31.2355 62.9557 31.6322 61.3898 32.3774 60.123L30.6536 59.109ZM29.2355 64.864C29.2355 66.6099 29.5577 68.2082 30.2253 69.6389L32.0377 68.7931C31.5107 67.6638 31.2355 66.3608 31.2355 64.864H29.2355ZM30.2633 69.7121C31.0381 71.068 32.1469 72.169 33.561 73.0175L34.59 71.3025C33.4441 70.615 32.5903 69.7533 31.9997 68.7199L30.2633 69.7121ZM33.6049 73.0424C35.06 73.8184 36.7654 74.184 38.6835 74.184V72.184C37.0176 72.184 35.651 71.867 34.5461 71.2776L33.6049 73.0424Z" fill="white"/>
</svg>
