<?xml version="1.0" encoding="utf-8"?>
<!-- Generator: Adobe Illustrator 26.1.0, SVG Export Plug-In . SVG Version: 6.00 Build 0)  -->
<svg version="1.1" id="Слой_1" xmlns="http://www.w3.org/2000/svg" xmlns:xlink="http://www.w3.org/1999/xlink" x="0px" y="0px"
	 viewBox="0 0 64 64" style="enable-background:new 0 0 64 64;" xml:space="preserve">
<style type="text/css">
	.st0{fill:#C71818;}
</style>
<g>
	<path class="st0" d="M5.1,35.7c0.7,0.7,1.3,1.4,1.7,2C7,37.4,7.3,37,7.6,36.6c0.3-0.4,0.6-0.8,0.9-1.1c0.3-0.4,0.6-0.7,0.9-1
		c0.3-0.3,0.6-0.5,0.8-0.7c-0.2-0.1-0.4-0.3-0.8-0.6c-0.3-0.3-0.7-0.6-1-0.9c-0.4-0.4-0.7-0.7-1-1.1c-0.3-0.4-0.6-0.7-0.7-0.9
		c-0.2,0.3-0.5,0.7-0.8,1.1C5.6,31.7,5.3,32,5,32.4c-0.3,0.4-0.6,0.7-0.9,1S3.5,33.9,3.3,34C3.8,34.4,4.4,35,5.1,35.7z"/>
	<path class="st0" d="M5.1,43.6c0.7,0.7,1.3,1.4,1.7,2c0.3-0.3,0.5-0.7,0.9-1.1c0.3-0.4,0.6-0.8,0.9-1.1c0.3-0.4,0.6-0.7,0.9-1
		c0.3-0.3,0.6-0.5,0.8-0.7c-0.2-0.1-0.4-0.3-0.8-0.6c-0.3-0.3-0.7-0.6-1-0.9c-0.4-0.4-0.7-0.7-1-1.1c-0.3-0.4-0.6-0.7-0.7-0.9
		c-0.2,0.3-0.5,0.7-0.8,1.1c-0.3,0.4-0.6,0.7-0.9,1.1c-0.3,0.4-0.6,0.7-0.9,1s-0.6,0.5-0.8,0.7C3.8,42.3,4.4,42.9,5.1,43.6z"/>
	<path class="st0" d="M5.1,27.9c0.7,0.7,1.2,1.4,1.6,2c0.5-0.7,1.1-1.4,1.8-2.2c0.7-0.8,1.3-1.4,1.7-1.7c-0.2-0.1-0.4-0.3-0.8-0.6
		c-0.3-0.3-0.7-0.6-1-0.9c-0.4-0.4-0.7-0.7-1-1.1c-0.3-0.4-0.6-0.7-0.7-0.9c-0.2,0.3-0.5,0.6-0.8,1c-0.3,0.4-0.6,0.7-0.9,1.1
		c-0.3,0.4-0.6,0.7-0.9,1c-0.3,0.3-0.6,0.5-0.8,0.7C3.8,26.6,4.4,27.1,5.1,27.9z"/>
	<path class="st0" d="M63.2,42.8c-0.5-0.9-1.2-1.7-2.1-2.3c-0.9-0.7-1.9-1.2-2.9-1.6c-1.1-0.4-2.2-0.6-3.2-0.6
		c-1.1,0-2.5,0.2-4.1,0.6c-0.8-0.7-1.3-1.2-1.6-1.7c-0.3-0.5-0.5-1.1-0.5-2V22.1c0-0.8,0.3-1.4,0.8-1.7c0.5-0.3,1.1-0.6,1.8-0.8
		c0.7-0.3,1.2-0.6,1.8-1.1c0.5-0.4,0.8-1.2,0.8-2.3c0-1.5-0.3-2.7-1-3.7c-0.7-1-1.5-1.8-2.3-2.3c-0.8-0.6-1.6-1-2.3-1.2
		C47.4,8.9,47,8.8,47,8.9c0,0.1,0.1,0.2,0.4,0.3c0.2,0.1,0.5,0.4,0.8,0.7c0.3,0.3,0.5,0.7,0.8,1.1c0.2,0.4,0.4,1,0.4,1.7
		c0,1-0.3,1.8-0.9,2.5c-0.6,0.7-1.2,1.2-1.9,1.6c-0.7,0.4-1.3,0.8-1.9,1s-0.9,0.5-0.9,0.7v14.7c0,0.5,0.1,1,0.2,1.3
		c0.1,0.4,0.5,0.8,0.9,1.1c0.5,0.4,1.1,0.8,2,1.3c0.9,0.5,2,1.2,3.4,2c-1.6,0.4-3,0.9-4.2,1.4c-1.2,0.5-2.3,1.2-3.5,2
		c-1.2,0.9-2.1,1.9-2.9,3.2c0,0.1-0.2-0.2-0.5-0.9c-0.3-0.7-0.5-1.5-0.5-2.6V28.4c0-0.8-0.2-1.4-0.5-1.8c-0.3-0.4-0.7-0.8-1.1-1.1
		c-0.4-0.4-0.8-0.8-1.1-1.2c-0.3-0.4-0.5-1.1-0.5-2c0.1,0,0.4-0.1,0.9-0.2c0.5-0.1,1-0.3,1.6-0.5c0.6-0.2,1.3-0.5,2.3-0.8
		c0.3,0,0.6,0.1,0.8,0.3c0.2,0.2,0.3,0.4,0.4,0.6c0.1,0.2,0.2,0.4,0.2,0.6c0,0.2,0.1,0.3,0.1,0.3c0,0,0.1-0.3,0.1-0.8
		c0-0.5,0-1.1-0.2-1.8c-0.2-0.6-0.6-1.2-1.2-1.8c-0.6-0.5-1.5-0.8-2.7-0.8c-0.3,0-0.8,0.1-1.4,0.3c-0.6,0.2-1.3,0.3-2,0.5
		c-0.2,0.1-0.4,0.1-0.6,0.2c-3.5,0.6-3,0.5-4.2,0.5c-1.2,0-2.1-0.3-3.5-0.8c-1.5-0.5-3-1-4.7-1.6c-1.6-0.6-3.3-1.1-5.1-1.6
		c-1.8-0.5-3.5-0.7-5.2-0.7c-2,0-3.6,0.2-5,0.7c-1.3,0.5-2.4,1.1-3.3,1.8c-0.8,0.7-1.4,1.6-1.8,2.5c-0.4,0.9-0.6,1.8-0.6,2.7
		c0,0.6,0.1,1.1,0.4,1.6c0.3,0.5,0.6,0.9,0.9,1.2c0.3,0.3,0.6,0.5,0.8,0.6c0.2,0.1,0.3,0.1,0.3,0c-0.3-0.4-0.6-0.9-0.9-1.3
		c-0.3-0.4-0.4-1.1-0.4-1.9c0-0.7,0.2-1.3,0.6-1.9c0.4-0.5,0.9-1,1.6-1.4c0.7-0.4,1.4-0.7,2.3-0.8c0.9-0.2,1.7-0.3,2.6-0.3
		c1.3,0,2.5,0.1,3.6,0.4c1.1,0.3,2.2,0.6,3.2,1c1,0.4,1.9,0.8,2.7,1.2c0.8,0.4,1.5,0.8,2.2,1.1l-7.9,5.9c0.2,0.9,0.3,1.6,0.3,1.9
		v13.3c0,1-0.3,1.8-0.8,2.6c-0.5,0.8-1.2,1.5-2,2.1c-0.8,0.6-1.7,1.1-2.6,1.4C6.5,48.8,5.6,49,4.8,49c-0.1,0-0.3,0-0.8,0
		c-0.4,0-0.9-0.1-1.4-0.3c-0.5-0.2-0.9-0.5-1.3-0.9c-0.4-0.4-0.6-1-0.6-1.7c0-0.6,0.2-1.1,0.6-1.5c0.4-0.4,0.8-0.7,1.1-0.9
		c0.3-0.2,0.5-0.3,0.6-0.3c-0.1,0-0.3,0-0.6,0.1c-0.3,0.1-0.6,0.2-1,0.5c-0.3,0.2-0.6,0.6-0.9,1c-0.3,0.4-0.4,1-0.4,1.7
		c0,1.1,0.4,2,1.3,2.6c0.9,0.6,2,0.9,3.4,0.9c1.8,0,3.5-0.4,5-1.1c1.5-0.7,2.8-1.5,4-2.4c1.1-0.9,2-1.7,2.6-2.5
		c0.6-0.8,0.9-1.3,0.9-1.5v-5.4c0.3-0.3,0.6-0.4,0.8-0.4c0.3,0,0.6,0.1,0.9,0.2c0.3,0.1,0.7,0.3,1,0.5c0.4,0.2,0.7,0.4,1,0.5
		c0.3,0.1,0.6,0.2,0.8,0.2c0.1,0,0.3-0.1,0.6-0.3c0.2-0.2,0.5-0.5,0.9-0.8c0.3-0.3,0.7-0.6,1.1-0.9s0.9-0.5,1.3-0.7
		c0.2-0.1,0.1-0.3-0.3-0.6C25,34.6,24.5,34.3,24,34c-0.5-0.3-1.3-0.8-2.2-1.3c-0.2,0-0.6,0.2-1.1,0.6c-0.5,0.4-1,0.9-1.5,1.4
		c-0.5,0.5-1.2,1.2-2,2v-8.3c0-1,0.2-1.9,0.6-2.7c0.4-0.8,0.8-1.6,1.3-2.2c0.5-0.6,1.1-1.2,1.9-1.9c0.3,0.1,0.7,0.3,1.3,0.3
		c0.6,0.1,1.1,0.1,1.7,0.2c0.6,0,1,0.1,1.5,0.1h0.6v21.3c0,0.3-0.1,0.5-0.4,0.7c-0.2,0.2-0.5,0.3-0.8,0.4c-0.3,0.1-0.5,0.2-0.8,0.3
		c-0.2,0.1-0.4,0.2-0.4,0.3c0,0.1,0.1,0.2,0.2,0.3c0.2,0.1,0.4,0.2,0.6,0.3s0.5,0.2,0.7,0.3c0.3,0.1,0.5,0.2,0.7,0.4
		c0.3,0.2,0.5,0.5,0.7,0.8c0.2,0.3,0.4,0.7,0.6,0.9s0.3,0.6,0.5,0.8c0.2,0.2,0.3,0.3,0.5,0.3c0.2,0,0.4-0.1,0.5-0.3
		c0.1-0.2,0.3-0.5,0.4-0.8c0.1-0.3,0.3-0.6,0.5-0.9c0.2-0.3,0.4-0.6,0.7-0.8c0.2-0.1,0.5-0.3,0.8-0.4c0.3-0.1,0.7-0.2,1-0.2
		c0.3-0.1,0.6-0.1,0.8-0.2c0.2-0.1,0.3-0.1,0.3-0.2c0-0.2-0.2-0.4-0.5-0.6c-0.3-0.2-0.7-0.5-1-0.7c-0.4-0.3-0.7-0.6-1-0.9
		c-0.3-0.3-0.5-0.7-0.5-1.2V22.6c1,0,2.4-0.3,3.5-0.2v15.7c0,0.9,0.2,1.7,0.6,2.6c0.4,0.9,1,1.8,1.6,2.6c0.6,0.8,1.4,1.6,2.1,2.4
		c0.8,0.7,1.5,1.4,2.1,1.9c0.7,0.5,1.2,0.9,1.6,1.2c0.4,0.3,0.6,0.4,0.6,0.3c0-0.4,0.3-0.8,0.8-1.3s1.2-1.1,2.1-1.6
		c0.9-0.5,1.9-1.1,3-1.6c1.1-0.5,2.2-1,3.4-1.4c1.2-0.4,2.3-0.7,3.4-1c1.1-0.3,2.1-0.4,2.9-0.4c0.7,0,1.3,0.1,1.8,0.4
		c0.6,0.3,1,0.7,1.4,1.1c0.4,0.5,0.7,1,0.9,1.5c0.2,0.6,0.3,1.1,0.3,1.7s-0.1,1.1-0.3,1.5c-0.2,0.4-0.5,0.8-0.8,1.1
		c-0.3,0.3-0.5,0.5-0.8,0.7c-0.2,0.2-0.4,0.3-0.4,0.4c0,0.1,0.2,0.1,0.5-0.1c0.4-0.1,0.7-0.4,1.1-0.8c0.4-0.4,0.8-0.9,1.1-1.5
		c0.4-0.6,0.5-1.3,0.5-2.1C64,44.7,63.7,43.7,63.2,42.8z"/>
	<path class="st0" d="M52.7,23.7c-0.3,0.3-0.6,0.5-0.8,0.6c0.2,0.1,0.5,0.4,0.8,0.7c0.3,0.3,0.6,0.7,0.9,1c0.3,0.4,0.6,0.8,0.9,1.1
		c0.3,0.4,0.6,0.8,0.9,1.1c0.2-0.3,0.4-0.6,0.7-1c0.3-0.4,0.6-0.7,0.9-1c0.3-0.3,0.6-0.6,0.9-0.9c0.3-0.3,0.6-0.6,0.9-0.8
		c-0.2-0.1-0.5-0.4-0.8-0.7c-0.3-0.3-0.6-0.6-0.9-1c-0.3-0.4-0.6-0.7-0.9-1.1c-0.3-0.4-0.5-0.7-0.7-1c-0.2,0.3-0.4,0.6-0.8,0.9
		c-0.3,0.4-0.7,0.7-1,1.1C53.4,23.1,53,23.4,52.7,23.7z"/>
	<path class="st0" d="M57.2,30.9c-0.3-0.4-0.6-0.7-0.9-1.1c-0.3-0.4-0.5-0.7-0.7-1c-0.2,0.3-0.4,0.6-0.8,0.9c-0.3,0.4-0.7,0.7-1,1.1
		c-0.4,0.4-0.7,0.7-1,0.9c-0.3,0.3-0.6,0.5-0.8,0.6c0.2,0.1,0.5,0.4,0.8,0.7c0.3,0.3,0.6,0.7,0.9,1c0.3,0.4,0.6,0.8,0.9,1.1
		c0.3,0.4,0.6,0.8,0.9,1.1c0.2-0.3,0.4-0.6,0.7-1c0.3-0.4,0.6-0.7,0.9-1c0.3-0.3,0.6-0.6,0.9-0.9c0.3-0.3,0.6-0.6,0.9-0.8
		c-0.2-0.1-0.5-0.4-0.8-0.7C57.8,31.5,57.5,31.2,57.2,30.9z"/>
</g>
</svg>
