<svg width="71" height="42" viewBox="0 0 71 42" fill="none" xmlns="http://www.w3.org/2000/svg">
<path fill-rule="evenodd" clip-rule="evenodd" d="M31.4533 10.6345C25.747 18.039 22.9615 25.5119 25.2035 27.2105C26.8338 28.501 30.6379 26.5313 34.7143 22.5914C31.5895 25.2407 28.8722 26.4634 27.5813 25.5119C25.5433 23.8819 28.0565 17.2241 33.2198 10.5666C38.3144 3.84129 44.1573 -0.234727 46.1953 1.32772C46.3989 1.46348 46.5347 1.66752 46.6709 1.87116C46.6022 1.19196 46.3307 0.716396 45.923 0.376595C43.6134 -1.38989 37.1592 3.22996 31.4533 10.6345Z" fill="#858585"/>
<path fill-rule="evenodd" clip-rule="evenodd" d="M35.4615 20.1454C44.8366 20.2133 52.4448 17.9716 52.4448 15.1183C52.5126 13.0124 48.6407 11.2459 43.0022 10.2952C47.0099 11.178 49.6593 12.673 49.6593 14.2354C49.5914 16.8169 42.7978 18.8549 34.3742 18.787C25.9507 18.7191 19.0892 16.5449 19.1575 13.9635C19.1575 13.6916 19.2253 13.4879 19.2932 13.2164C18.8181 13.6916 18.5461 14.2354 18.5461 14.7789C18.5461 17.6318 26.0864 20.0092 35.4615 20.1454Z" fill="#858585"/>
<path fill-rule="evenodd" clip-rule="evenodd" d="M39.6728 10.4309C33.5592 3.36539 26.8339 -0.913859 24.6597 0.987987C23.0973 2.27891 24.3199 6.4228 27.3094 11.2459C25.3393 7.64544 24.6597 4.65672 25.8828 3.63731C27.8529 1.93911 33.899 5.81108 39.4017 12.197C44.8365 18.583 47.6895 25.1047 45.7873 26.8025C45.5836 26.939 45.3796 27.0748 45.108 27.1427C45.7872 27.2105 46.3307 27.0748 46.7388 26.735C48.9121 24.8327 45.7194 17.564 39.6728 10.4309ZM2.30993 36.7888C2.37781 36.5852 2.37781 36.5173 2.44569 36.5173C2.51357 36.5173 2.51357 36.5852 2.58145 36.7888C2.71721 37.0612 3.73621 39.7101 4.14389 40.7287C4.34753 41.34 4.55157 41.4087 4.68733 41.4766H4.95925C4.95925 41.4766 5.02713 41.4766 5.02713 41.5445C5.02713 41.5445 4.95925 41.6123 4.89137 41.6123C4.75561 41.6123 4.28005 41.6123 3.87237 41.5445H3.66833V41.4766C3.73621 41.4766 3.80449 41.4087 3.73621 41.34L3.12489 39.7101C3.12489 39.6422 3.12489 39.6422 3.05701 39.6422H1.63032L1.56244 39.7101L1.22264 40.8653C1.15476 41.001 1.08688 41.2047 1.08688 41.34C1.08688 41.4087 1.22264 41.4766 1.3588 41.4766H1.42668C1.49456 41.4766 1.49456 41.5445 1.49456 41.5445C1.49456 41.5445 1.42668 41.6123 1.3588 41.6123C1.22304 41.6123 0.951123 41.5445 0.883242 41.5445C0.815362 41.5445 0.475561 41.6123 0.135761 41.6123C0.0678803 41.6123 0 41.5445 0 41.5445L0.0678803 41.4766H0.271521C0.543442 41.4766 0.679202 41.2043 0.814963 40.8653L2.30993 36.7888ZM2.98913 39.439V39.3703L2.37781 37.6038C2.37781 37.5359 2.30993 37.5359 2.30993 37.6038L1.6986 39.3703C1.6986 39.439 1.6986 39.439 1.76648 39.439H2.98913ZM10.8692 38.5553V37.129C10.8692 36.9246 10.8013 36.7888 10.5977 36.7214H10.3258V36.6535H11.8882C12.3638 36.6535 12.7711 36.6535 13.1109 36.925C13.3145 37.0616 13.5864 37.3327 13.5864 37.8086C13.5864 38.2846 13.3824 38.7594 12.7711 39.3028C13.3145 40.0499 13.7901 40.5933 14.1299 41.0014C14.4697 41.4091 14.8095 41.477 14.9452 41.477H15.2168L15.2846 41.5449C15.2846 41.5449 15.2168 41.6127 15.081 41.6127H14.6054C14.2656 41.6127 14.1299 41.5449 13.9262 41.477C13.6543 41.3404 13.4507 41.0014 13.043 40.5255C12.7711 40.1182 12.4317 39.7105 12.3638 39.5069H11.4127V41.1368C11.4806 41.2725 11.4806 41.477 11.6846 41.477H11.9565C12.0244 41.477 12.0244 41.5449 12.0244 41.5449C12.0244 41.5449 12.0244 41.6127 11.9565 41.6127C11.5488 41.6127 11.1412 41.5449 11.1412 41.5449C11.1412 41.5449 10.7335 41.6127 10.5298 41.6127C10.4619 41.6127 10.3941 41.5449 10.3941 41.5449C10.3941 41.5449 10.3941 41.477 10.4619 41.477H10.6656C10.8014 41.477 10.8013 41.2725 10.8692 41.1368V38.5553ZM11.4127 39.0988V39.1667C11.5484 39.2345 11.8204 39.3024 12.1602 39.3024C12.2959 39.3024 12.5 39.3024 12.6357 39.1667C12.8398 39.0309 13.0434 38.6232 13.0434 38.1472C13.0434 37.3323 12.5682 36.8567 11.8886 36.8567H11.481C11.4131 36.9246 11.4131 36.9246 11.4131 36.9933V39.0988H11.4127ZM22.69 36.5173C24.1167 36.5173 25.2714 37.468 25.2714 39.0309C25.2714 40.4572 24.1845 41.6802 22.6221 41.6802C20.856 41.6802 20.1089 40.2539 20.1089 39.0988C20.1085 38.0119 20.8556 36.5173 22.69 36.5173ZM22.8257 41.4087C23.3692 41.4087 24.5918 41.0685 24.5918 39.1667C24.5918 37.6038 23.6407 36.7888 22.6217 36.7888C21.5348 36.7888 20.7199 37.468 20.7199 38.8951C20.7199 40.4576 21.6027 41.4087 22.8257 41.4087ZM31.3176 41.4766C31.2497 41.4766 31.2497 41.4087 31.2497 41.2721V40.5929C31.2497 40.4572 31.3176 40.4572 31.3176 40.4572C31.3854 40.4572 31.3854 40.4572 31.3854 40.5251V40.7974C31.5212 41.2721 31.9289 41.4087 32.3366 41.4087C33.0158 41.4087 33.2877 41.001 33.2877 40.5929C33.2877 40.1182 33.0837 39.8459 32.5402 39.3703L32.2683 39.1667C31.5891 38.5553 31.385 38.1472 31.385 37.7404C31.385 36.9933 31.9285 36.5177 32.7439 36.5177C33.0158 36.5177 33.2194 36.5856 33.3552 36.5856C33.4909 36.6535 33.5592 36.6535 33.6271 36.6535V37.4006C33.6271 37.4684 33.6271 37.5363 33.5592 37.5363V37.4684C33.5592 37.4006 33.4913 37.1969 33.4231 37.129C33.4231 37.0612 33.2194 36.7888 32.6081 36.7888C32.2004 36.7888 31.7927 37.0612 31.7927 37.5359C31.7927 37.8761 31.9964 38.1472 32.6081 38.6232L32.8117 38.759C33.5592 39.3703 33.7625 39.7784 33.7625 40.3218C33.7625 40.5933 33.6267 41.0689 33.2194 41.4091C32.9475 41.6127 32.5398 41.6806 32.2004 41.6806C31.9289 41.6802 31.5891 41.6123 31.3176 41.4766ZM39.7407 39.0309C39.7407 38.8951 39.8094 38.6907 40.0809 38.6907C40.2846 38.6907 40.4211 38.8273 40.4211 39.0309C40.4211 39.2345 40.2846 39.3703 40.0809 39.3703C39.8094 39.3703 39.7407 39.1667 39.7407 39.0309ZM47.1456 40.7287C47.1456 41.2043 47.2135 41.4087 47.418 41.4766H47.7574L47.8253 41.5445C47.8253 41.5445 47.7574 41.6123 47.6895 41.6123C47.2822 41.6123 47.0103 41.5445 47.0103 41.5445C46.9424 41.5445 46.6709 41.6123 46.3311 41.6123C46.2632 41.6123 46.2632 41.6123 46.2632 41.5445C46.2632 41.5445 46.2632 41.4766 46.3311 41.4766H46.5347C46.7392 41.4087 46.7392 41.2043 46.7392 40.6608V36.8567C46.7392 36.5852 46.807 36.5173 46.8749 36.5173L47.0786 36.721C47.1465 36.8567 48.1659 37.9436 49.1849 39.0309C49.7962 39.7101 50.5433 40.5251 50.7469 40.7287L50.679 37.4002C50.679 36.9246 50.6111 36.7888 50.4075 36.7888C50.2709 36.721 50.1352 36.721 50.0673 36.721C50.0673 36.721 49.9994 36.721 49.9994 36.6531H51.4936C51.4936 36.721 51.4936 36.721 51.4257 36.721H51.2899C51.0863 36.7888 51.0176 36.9246 51.0176 37.3323V41.1364C51.0176 41.6119 51.0176 41.6119 50.9497 41.6119C50.9497 41.6119 50.814 41.5441 50.475 41.2043C50.4071 41.1364 49.4556 40.1857 48.7764 39.4386C48.0293 38.6228 47.2822 37.8078 47.0778 37.5355L47.1456 40.7287ZM58.0836 38.5553V37.129C58.0836 36.9246 58.0157 36.7888 57.8112 36.7214H57.6076C57.5397 36.7214 57.5397 36.7214 57.5397 36.6535H59.9175C59.9854 36.6535 60.1212 36.6535 60.189 36.5856H60.2569V36.925C60.2569 36.9937 60.189 37.3327 60.189 37.4006V37.4684C60.1212 37.4684 60.1212 37.4006 60.1212 37.4006C60.1212 37.3327 60.1212 37.1969 60.0533 37.129C60.0533 37.0612 59.9854 36.9246 59.5777 36.9246H58.6949V38.8277H59.7135C59.9179 38.8277 59.9858 38.759 60.0537 38.759C60.1216 38.6911 60.1216 38.6232 60.1216 38.6232C60.1894 38.6232 60.1894 38.6232 60.1894 38.6911C60.1894 38.759 60.1216 38.8276 60.1216 39.0313V39.5069C60.1216 39.5069 60.1216 39.5747 60.0537 39.5747H59.9858V39.3024C59.9858 39.2345 59.9179 39.0988 59.6456 39.0988H58.6949V39.7101C58.6949 39.9137 58.627 40.6608 58.6949 40.7974C58.6949 41.2721 58.7628 41.34 59.442 41.34C59.5777 41.34 59.8496 41.34 60.0533 41.2721C60.2569 41.2043 60.3248 41.0685 60.3248 40.7974L60.3927 40.7287C60.4614 40.7287 60.4614 40.7287 60.4614 40.7974C60.4614 40.8653 60.3927 41.2721 60.3927 41.4087C60.3248 41.6123 60.2569 41.6123 59.9854 41.6123C59.0339 41.6123 58.5591 41.5445 58.3547 41.5445H58.151C58.0153 41.6123 57.8108 41.6123 57.7434 41.6123C57.6759 41.6123 57.6076 41.5445 57.6076 41.5445L57.6755 41.4766H57.8791C58.0157 41.4766 58.0836 41.2721 58.0836 41.1364V38.5553ZM68.409 39.7101C68.409 40.3214 68.409 40.8653 68.4768 41.1364C68.4768 41.2721 68.5447 41.4766 68.7491 41.4766H69.0207C69.0886 41.4766 69.0886 41.5445 69.0886 41.5445C69.0886 41.5445 69.0207 41.6123 68.9528 41.6123C68.6134 41.6123 68.2057 41.5445 68.1378 41.5445C68.1378 41.5445 67.7301 41.6123 67.5265 41.6123C67.4586 41.6123 67.3907 41.5445 67.3907 41.5445C67.3907 41.5445 67.3907 41.4766 67.4586 41.4766H67.6623C67.798 41.4766 67.798 41.2721 67.8659 41.1364V36.9242H66.9152C66.5075 36.9242 66.3717 36.9929 66.236 37.1286C66.1681 37.2644 66.1681 37.2644 66.1002 37.3323C66.1002 37.4002 66.1002 37.4002 66.0315 37.4002V37.3323C66.0315 37.2644 66.1681 36.721 66.1681 36.6531L66.236 36.5173C66.3039 36.5173 66.3717 36.5852 66.5075 36.6531H69.9722C70.0401 36.5852 70.108 36.5852 70.1758 36.5852V37.4002C70.1758 37.468 70.1758 37.468 70.1079 37.468L70.0401 37.3323V37.2644C70.0401 37.0608 69.9043 36.9242 69.2251 36.9242H68.4093L68.409 39.7101Z" fill="#858585"/>
</svg>
