<svg width="69" height="35" viewBox="0 0 69 35" fill="none" xmlns="http://www.w3.org/2000/svg">
<path d="M66.1323 19.8753C66.2924 19.8462 66.5399 19.8316 66.7873 19.8316C67.1367 19.8316 67.3696 19.8899 67.5297 20.0209C67.6607 20.1373 67.7335 20.2975 67.7335 20.5012C67.7335 20.8069 67.5297 21.0253 67.2968 21.0981V21.1126C67.4715 21.1708 67.5734 21.3455 67.6316 21.5784C67.7044 21.8841 67.7772 22.1607 67.8209 22.248H67.3696C67.3405 22.1753 67.2823 21.986 67.2095 21.6803C67.1367 21.3601 67.0348 21.2727 66.7873 21.2582H66.569V22.248H66.1323V19.8753ZM66.569 20.9379H66.831C67.1222 20.9379 67.3114 20.7778 67.3114 20.5449C67.3114 20.2829 67.1221 20.1664 66.8456 20.1664C66.7146 20.1664 66.6127 20.181 66.569 20.1956V20.9379ZM64.7494 21.0253C64.7494 22.2044 65.7102 23.1505 66.8747 23.1505C68.0392 23.1505 68.9999 22.1898 68.9999 21.0253C68.9999 19.8608 68.0538 18.9 66.8747 18.9C65.7102 18.9 64.7494 19.8608 64.7494 21.0253ZM65.157 21.0253C65.157 20.0791 65.9285 19.3076 66.8747 19.3076C67.8209 19.3076 68.5924 20.0791 68.5924 21.0253C68.5924 21.9715 67.8209 22.743 66.8747 22.743C65.9285 22.7575 65.157 21.986 65.157 21.0253ZM64.6621 0.471361C63.3374 0.485918 62.2457 1.50488 62.202 2.75675C62.1729 4.00861 63.2064 4.99846 64.5311 4.98391C65.8557 4.96935 66.9475 3.93583 66.9766 2.69852C67.0203 1.44665 65.9867 0.442248 64.6621 0.471361ZM16.9455 2.84409C17.6588 2.82953 18.8525 2.85864 18.8525 2.85864C18.8525 2.85864 19.4347 0.51503 19.4347 0.485916C19.0126 0.485916 16.9892 0.456805 16.5816 0.471361C13.0007 0.471361 10.0894 2.65485 9.27421 5.98831C9.27421 5.98831 8.72106 8.04079 8.73562 8.02624C8.73562 8.04079 5.60595 8.02624 5.60595 8.02624L5.02368 10.399H8.13879C8.13879 10.399 6.01353 19.2785 5.14013 23.1651H9.05586L12.1564 10.399H16.9455L17.5132 8.02624H12.7387L13.4665 5.28959C13.9178 3.60103 15.7228 2.85864 16.9455 2.84409ZM22.2005 19.293L26.8004 0.471361H22.8846L18.2556 19.3222C18.2556 19.3222 17.9791 20.4139 17.9645 21.2C17.9354 22.1898 18.0227 22.743 18.2265 23.1651H22.8264C22.4334 22.7721 21.9967 22.3645 21.9385 21.5202C21.8657 20.4721 22.2005 19.293 22.2005 19.293ZM62.4786 19.293L65.2298 8.02624H61.2995L58.5338 19.3222C58.5338 19.3222 58.2572 20.4139 58.2426 21.2C58.2135 22.1898 58.3008 22.743 58.5046 23.1651H63.1045C62.7115 22.7721 62.2748 22.3645 62.2166 21.5202C62.1438 20.4721 62.4786 19.293 62.4786 19.293ZM54.1085 8.02624L50.1783 12.9755L47.2087 8.02624H42.7544L47.1359 15.3191L40.8911 23.1651H44.0354L48.4751 17.5463L51.8377 23.1505H56.292L51.532 15.2172L57.2091 8.02624H54.1085ZM35.6944 7.29841C32.5939 7.31296 28.0231 9.46734 26.5092 14.4894C25.2865 18.5652 27.1497 23.66 33.7439 23.8929C35.7381 23.922 37.7615 23.5872 39.6393 22.8885C39.6102 22.9322 39.1735 20.6905 39.1735 20.6905C37.7033 21.2 35.4907 21.5784 33.8894 21.4183C31.6332 21.0107 29.7262 19.293 30.1484 16.3235C30.1629 16.3526 33.6274 16.8766 36.1166 16.1925C41.2259 14.6495 41.6481 11.5053 40.8184 9.83125C39.6247 7.38574 36.6843 7.28385 35.6944 7.29841ZM34.9666 14.0672C33.3799 14.2565 32.5648 14.3584 30.818 14.1982C31.2401 12.7426 32.0116 11.3015 33.3217 10.3116C34.6609 9.39456 36.1457 9.39456 37.121 10.1952C37.7906 10.8939 38.664 13.4413 34.9666 14.0672Z" fill="#858585"/>
<path d="M0.933594 27.3138C11.5308 35.2471 22.4774 35.6401 34.7486 33.151C46.3939 30.7928 57.8499 28.0998 69.0003 34.1408C58.3885 26.2075 47.4565 25.8144 35.1853 28.3036C23.5254 30.6472 12.0694 33.3402 0.933594 27.3138Z" fill="#858585"/>
</svg>
