<svg width="64" height="23" viewBox="0 0 64 23" fill="none" xmlns="http://www.w3.org/2000/svg">
<path d="M54.5865 0.411019H48.3133L40.9064 17.8616V9.43484H28.9563V14.363H34.9271C33.3483 17.214 29.7541 18.2484 26.9072 16.6673C24.0603 15.0863 23.0274 11.4869 24.6062 8.6359C26.185 5.78494 29.7793 4.75053 32.6261 6.33159C33.4071 6.76049 34.079 7.366 34.5912 8.09766L38.1855 3.7077C33.911 -0.951384 26.6721 -1.26255 22.0196 3.01809C20.9699 3.98522 20.1049 5.13738 19.4835 6.4241C19.2232 5.00282 18.6017 3.81703 17.636 2.87512C16.074 1.28565 13.6722 0.469889 10.4894 0.461479H0.000488281V22.5375H6.53401V15.4395L13.3027 22.529H21.2554L14.6799 15.6582C15.7884 15.2545 16.897 14.6826 17.636 13.9257C17.9215 13.6482 18.1818 13.3454 18.4086 13.0175C19.1476 18.6521 23.9512 23 29.7625 23C31.9795 23 34.1545 22.3524 36.0105 21.1414V22.5459H45.9619L47.3308 19.3249H55.569L56.9379 22.5543H64.0005L54.5865 0.411019ZM13.0423 8.32473C13.0423 9.746 11.9926 10.5618 10.1619 10.5618H6.52562V6.02042H10.1283C11.4552 6.02042 13.0339 6.40728 13.0339 8.25745V8.32473H13.0423ZM49.2623 14.3546L51.4541 8.81251L53.6963 14.3546H49.2623Z" fill="#858585"/>
</svg>
