<svg width="100" height="37" viewBox="0 0 100 37" fill="none" xmlns="http://www.w3.org/2000/svg">
<path d="M57.3525 15.6365H54.7692C51.9809 15.6365 51.3111 16.0055 51.3111 18.7118V20.0513C51.3111 22.3066 51.7895 22.826 54.6189 22.826H57.2978C60.3732 22.826 60.9609 22.5389 60.9609 21.3498V20.393H55.9994V17.9327H64.337V20.4614C64.337 24.5755 63.0522 25.546 57.7079 25.546H54.2908C49.4249 25.546 48.0171 24.4662 48.0171 20.475V18.5068C48.0171 14.0783 49.1926 12.8345 54.3728 12.8345H57.3662C62.9292 12.8345 64.3233 13.8049 64.3233 16.7846H60.9336C60.9336 15.8142 60.4415 15.6365 57.3525 15.6365Z" fill="#858585"/>
<path d="M72.2783 25.5596C67.2484 25.5596 65.8816 24.4525 65.8816 20.2564V18.6572C65.8816 13.7229 67.3031 12.9028 72.3877 12.9028H75.299C80.657 12.9028 81.9965 13.6546 81.9965 17.2083H78.6068C78.5931 16.2242 78.2514 15.7185 75.135 15.7185H72.6064C69.6404 15.7185 69.1756 15.9509 69.1756 18.6298V20.0103C69.1756 22.4706 69.654 22.8123 72.4834 22.8123H75.1623C78.06 22.8123 78.6341 22.58 78.6068 21.1585H81.9965C82.0238 24.5345 81.0944 25.5733 75.2307 25.5733L72.2783 25.5596Z" fill="#858585"/>
<path d="M92.8081 15.7048H90.3751C87.2725 15.7048 86.8487 16.1969 86.8487 18.7118V20.024C86.8487 22.2792 87.2861 22.7576 90.2658 22.7576H92.8628C96.0748 22.7576 96.5669 22.3886 96.5669 19.9693V18.6572C96.5669 16.1012 96.0885 15.7048 92.8081 15.7048ZM92.9174 25.546H90.0334C84.7848 25.546 83.541 24.5619 83.541 20.188V18.6572C83.541 13.9553 84.7028 12.8481 90.0881 12.8481H92.9858C98.6171 12.8481 99.8746 14.0099 99.8746 18.6025V20.1333C99.8746 24.7942 98.6171 25.546 92.9174 25.546Z" fill="#858585"/>
<path d="M41.142 12.9028H35.9481L30.7131 22.2793L32.7087 25.546H32.7224L34.4036 22.498H42.7002L44.3541 25.546H48.1948L41.142 12.9028ZM35.8114 19.9693L38.504 15.2674H38.6544L41.2514 19.9693H35.8114Z" fill="#858585"/>
<path d="M3.62257 32.5715L1.80469 28.8811H3.02116L4.22397 31.3414L5.35844 28.8811H6.57491L4.74337 32.5989V35.0455H3.6089L3.62257 32.5715Z" fill="#858585"/>
<path d="M8.06466 30.4255C8.9941 30.4255 10.0602 30.9176 10.0602 32.7628C10.0602 34.6627 8.9941 35.1138 8.06466 35.1138C7.13521 35.1138 6.05542 34.6764 6.05542 32.7765C6.05542 30.9176 7.13521 30.4255 8.06466 30.4255ZM8.06466 34.3347C8.77541 34.3347 8.92576 33.5146 8.92576 32.7628C8.92576 32.0111 8.76174 31.2046 8.06466 31.2046C7.35391 31.2046 7.18989 32.0111 7.18989 32.7628C7.18989 33.5146 7.35391 34.3347 8.06466 34.3347Z" fill="#858585"/>
<path d="M14.5025 34.2937C14.5025 34.5397 14.5161 34.7994 14.5435 35.0454H13.5184C13.5184 34.8131 13.4773 34.5807 13.4773 34.3484H13.45C13.245 34.6901 12.958 35.1138 12.2472 35.1138C11.2084 35.1138 10.9077 34.3484 10.9077 33.4326V30.5076H12.0012V33.2276C12.0012 33.9246 12.1925 34.2117 12.6573 34.2117C13.245 34.2117 13.409 33.6786 13.409 33.1045V30.5076H14.5025V34.2937Z" fill="#858585"/>
<path d="M15.5276 31.2456C15.5276 30.9996 15.5139 30.7399 15.4866 30.4939H16.4707C16.4707 30.7672 16.5117 31.0543 16.5117 31.3276H16.539C16.6757 30.9723 17.0174 30.4255 17.7008 30.4255C17.7692 30.4255 17.8375 30.4392 17.8922 30.4529V31.478C17.7965 31.4507 17.6872 31.437 17.5778 31.437C17.1268 31.437 16.6347 31.7104 16.6347 32.5578V35.0454H15.5412L15.5276 31.2456Z" fill="#858585"/>
<path d="M23.6602 33.5556H21.5416L21.1042 35.0318H19.9697L22.0336 28.8811H23.2638L25.2593 35.0318H24.0975L23.6602 33.5556ZM23.4278 32.6945L22.6487 29.8242H22.635L21.8013 32.6945H23.4278Z" fill="#858585"/>
<path d="M25.8744 35.7425C26.2845 35.9749 26.7492 36.1115 27.2139 36.1252C28.2391 36.1252 28.4167 35.4145 28.4167 34.69V34.2526H28.4031C28.198 34.731 27.7197 35.0454 27.2003 35.0181C26.5715 35.0181 25.6147 34.5944 25.6147 32.7628C25.6147 31.5053 26.0658 30.4119 27.2549 30.4119C27.911 30.4119 28.2254 30.8082 28.4577 31.191H28.4987C28.4987 30.9449 28.5261 30.7262 28.5261 30.4802H29.5102C29.4965 30.7262 29.4829 30.9586 29.4829 31.191V34.5397C29.4829 35.9612 29.0455 36.9726 27.378 36.9726C26.8449 36.9726 26.3255 36.877 25.8198 36.6856L25.8744 35.7425ZM27.46 34.239C28.1434 34.239 28.4167 33.7469 28.4167 32.7081C28.4167 31.7514 28.0614 31.2456 27.5283 31.2593C26.9542 31.2593 26.7355 31.7924 26.7355 32.7218C26.7492 33.7879 27.0909 34.239 27.46 34.239Z" fill="#858585"/>
<path d="M30.5217 31.2456C30.5217 30.9996 30.508 30.7399 30.4807 30.4939H31.4648C31.4648 30.7672 31.5058 31.0543 31.5058 31.3276H31.5195C31.6562 30.9723 31.9979 30.4255 32.6813 30.4255C32.7496 30.4255 32.818 30.4392 32.8727 30.4529V31.478C32.777 31.4507 32.6676 31.437 32.5583 31.437C32.1072 31.437 31.6152 31.7104 31.6152 32.5578V35.0454H30.5217V31.2456Z" fill="#858585"/>
<path d="M33.6655 28.5667H34.8V29.6464H33.6655V28.5667ZM33.6929 30.4939H34.7863V35.0317H33.6929V30.4939Z" fill="#858585"/>
<path d="M38.9686 34.9224C38.6269 35.0454 38.2579 35.1138 37.8888 35.1138C36.3853 35.1138 35.7566 34.0613 35.7566 32.7765C35.7566 31.4917 36.4263 30.4255 37.9572 30.4255C38.2852 30.4392 38.6133 30.5075 38.914 30.6169L38.8593 31.478C38.6269 31.3413 38.3536 31.273 38.0802 31.2593C37.2464 31.2593 36.8911 31.8197 36.8911 32.7901C36.8911 33.6376 37.3011 34.2937 38.1349 34.2937C38.4082 34.28 38.6679 34.2116 38.914 34.075L38.9686 34.9224Z" fill="#858585"/>
<path d="M43.2332 34.2937C43.2332 34.5397 43.2468 34.7994 43.2605 35.0454H42.2354C42.2354 34.8131 42.1944 34.5807 42.1944 34.3484H42.167C41.962 34.6901 41.675 35.1138 40.9642 35.1138C39.9255 35.1138 39.6248 34.3484 39.6248 33.4326V30.5076H40.7182V33.2276C40.7182 33.9246 40.9096 34.2117 41.3743 34.2117C41.962 34.2117 42.126 33.6786 42.126 33.1045V30.5076H43.2195L43.2332 34.2937Z" fill="#858585"/>
<path d="M44.3267 28.4299H45.4201V35.0454H44.3267V28.4299Z" fill="#858585"/>
<path d="M46.91 29.578L48.0034 29.2363V30.5075H48.9055V31.3139H48.0034V33.6512C48.0034 34.1296 48.1811 34.2799 48.4955 34.2799C48.6322 34.2799 48.7825 34.2526 48.9055 34.1842V34.9633C48.6732 35.0727 48.4271 35.1137 48.1674 35.1137C47.361 35.1137 46.8963 34.7446 46.8963 33.7879V31.3002H46.1719V30.4938H46.8963L46.91 29.578Z" fill="#858585"/>
<path d="M53.211 34.2937C53.211 34.5397 53.2246 34.7994 53.252 35.0454H52.2269C52.2269 34.8131 52.1995 34.5807 52.1995 34.3484H52.1859C51.9672 34.6901 51.6938 35.1138 50.9694 35.1138C49.9443 35.1138 49.6299 34.3484 49.6299 33.4326V30.5076H50.7233V33.2276C50.7233 33.9246 50.9147 34.2117 51.3794 34.2117C51.9672 34.2117 52.1312 33.6786 52.1312 33.1045V30.5076H53.2246L53.211 34.2937Z" fill="#858585"/>
<path d="M54.2224 31.2456C54.2224 30.9996 54.2087 30.7399 54.1814 30.4939H55.1655C55.1655 30.7672 55.2065 31.0543 55.2065 31.3276H55.2202C55.3569 30.9723 55.6986 30.4255 56.382 30.4255C56.4503 30.4255 56.5187 30.4392 56.5733 30.4529V31.478C56.4777 31.4507 56.3683 31.437 56.2726 31.437C55.8216 31.437 55.3295 31.7104 55.3295 32.5578V35.0454H54.2361L54.2224 31.2456Z" fill="#858585"/>
<path d="M60.5508 34.8131C60.1271 35.0044 59.6487 35.1001 59.184 35.1001C57.7215 35.1001 57.0791 34.0476 57.0791 32.8312C57.0791 31.4643 57.7899 30.4255 58.9517 30.4255C59.9221 30.4255 60.7695 31.0133 60.7695 32.8585V33.0772H58.1452C58.1452 33.8563 58.4596 34.321 59.307 34.321C59.7307 34.3483 60.1545 34.2253 60.4962 33.9656L60.5508 34.8131ZM59.7171 32.3801C59.7171 31.5737 59.4574 31.1773 58.9653 31.1773C58.3776 31.1773 58.1452 31.7924 58.1452 32.3801H59.7171Z" fill="#858585"/>
<path d="M68.0001 34.9088C67.5764 35.0728 67.1254 35.1411 66.6606 35.1275C64.7881 35.1275 63.8313 33.7607 63.8313 31.9564C63.8313 30.1522 64.7881 28.7854 66.6333 28.7854C67.098 28.7854 67.5627 28.8674 68.0001 29.0314L67.9318 30.0429C67.5764 29.8379 67.18 29.7148 66.77 29.7148C65.8405 29.7148 65.0341 30.3436 65.0341 31.9428C65.0341 33.542 65.8405 34.1707 66.77 34.1707C67.18 34.198 67.5901 34.0887 67.9318 33.8563L68.0001 34.9088Z" fill="#858585"/>
<path d="M70.7065 30.4255C71.6359 30.4255 72.7021 30.9176 72.7021 32.7628C72.7021 34.6627 71.6359 35.1138 70.7065 35.1138C69.7771 35.1138 68.6973 34.6764 68.6973 32.7628C68.6973 30.9176 69.7771 30.4255 70.7065 30.4255ZM70.7065 34.3347C71.4172 34.3347 71.5676 33.5146 71.5676 32.7628C71.5676 32.0111 71.4036 31.2046 70.7065 31.2046C70.0094 31.2046 69.8317 32.0111 69.8317 32.7628C69.8317 33.5146 70.0094 34.3347 70.7065 34.3347Z" fill="#858585"/>
<path d="M73.5359 31.2457C73.5359 30.9997 73.5222 30.7537 73.4949 30.5076H74.5883C74.5883 30.7537 74.6157 30.986 74.6157 31.2184H74.6293C74.8207 30.7537 75.2717 30.453 75.7775 30.4393C76.2695 30.412 76.7342 30.699 76.9256 31.1637C77.1443 30.8493 77.4723 30.4393 78.1421 30.4393C79.1262 30.4393 79.4542 31.15 79.4542 32.2435V35.0455H78.3608V32.1615C78.3608 31.6011 78.1831 31.3141 77.773 31.3141C77.2946 31.3141 77.035 31.7788 77.035 32.2708V35.0318H75.9415V32.1615C75.9415 31.6011 75.7638 31.3141 75.3538 31.3141C74.8754 31.3141 74.6157 31.7788 74.6157 32.2708V35.0318H73.5222L73.5359 31.2457Z" fill="#858585"/>
<path d="M80.4382 31.2729C80.4382 31.0132 80.4382 30.7535 80.4109 30.4938H81.436C81.4633 30.7262 81.477 30.9585 81.477 31.2046H81.5044C81.6957 30.7125 82.1878 30.3981 82.7072 30.4255C83.8416 30.4255 84.3063 31.5053 84.3063 32.7628C84.3063 34.2389 83.7186 35.1137 82.7345 35.1137C82.2288 35.1274 81.7777 34.854 81.5727 34.3893H81.559V36.9452H80.4656L80.4382 31.2729ZM82.3791 34.3073C82.9805 34.3073 83.1992 33.7195 83.1992 32.8038C83.1992 31.7513 83.0352 31.2319 82.3928 31.2319C81.7504 31.2319 81.5317 31.929 81.5317 32.7901C81.5317 33.6512 81.7777 34.3073 82.3791 34.3073Z" fill="#858585"/>
<path d="M85.3861 30.7672C85.8372 30.5486 86.3292 30.4255 86.8213 30.4255C88.2291 30.4255 88.5572 31.1089 88.5572 32.2571V34.239C88.5572 34.5123 88.5845 34.772 88.6118 35.0454H87.6277C87.573 34.8404 87.5594 34.6354 87.5594 34.4303H87.5457C87.2723 34.8677 86.7939 35.1274 86.2745 35.1138C85.5638 35.1411 84.9487 34.5944 84.9214 33.8699C84.9214 33.8426 84.9214 33.8153 84.9214 33.7743C84.9214 32.5441 85.9192 32.2298 87.3133 32.2298H87.5184V32.0657C87.5184 31.6147 87.2997 31.2046 86.6709 31.2046C86.2199 31.2183 85.7825 31.3686 85.4271 31.642L85.3861 30.7672ZM87.532 32.8175H87.4364C86.5069 32.8175 85.9465 33.0088 85.9465 33.6786C85.9192 34.0476 86.1925 34.3483 86.5616 34.3757C86.5889 34.3757 86.6163 34.3757 86.6436 34.3757C87.2997 34.3757 87.532 33.8836 87.532 33.0772V32.8175Z" fill="#858585"/>
<path d="M89.5686 31.2456C89.5686 30.9996 89.5549 30.7399 89.5413 30.4939H90.5664C90.5664 30.7262 90.6074 30.9586 90.6074 31.191H90.621C90.8397 30.7262 91.3045 30.4255 91.8239 30.4255C92.8626 30.4255 93.1634 31.191 93.1634 32.1067V35.0317H92.0699V32.3118C92.0699 31.6147 91.8922 31.3276 91.4411 31.3276C90.8671 31.3276 90.6621 31.806 90.6621 32.3938V35.0317H89.5686V31.2456Z" fill="#858585"/>
<path d="M95.7468 33.9246H95.7604L96.6352 30.4939H97.7013L96.0338 35.9065C95.8425 36.5353 95.4734 37 94.7353 37C94.503 37 94.2569 36.959 94.0382 36.8906L94.1066 36.0569C94.2296 36.1116 94.3799 36.1389 94.5166 36.1389C94.8447 36.1389 94.9813 35.9475 95.1317 35.4828L95.2137 35.0864L93.7102 30.4939H94.8447L95.7468 33.9246Z" fill="#858585"/>
<path d="M23.2639 12.6978L15.555 0L0.000488281 25.546L23.2639 12.6978Z" fill="#858585"/>
<path d="M5.67287 25.546L23.5783 13.2035L23.3733 12.8755L2.95288 25.546H5.67287Z" fill="#858585"/>
<path d="M11.3452 25.5459L24.1114 14.0919L23.8107 13.5999L8.5022 25.5459H11.3452Z" fill="#858585"/>
<path d="M16.8945 25.546L24.8494 15.3084L24.4667 14.6797L14.0515 25.546H16.8945Z" fill="#858585"/>
<path d="M31.0412 25.5459C31.0412 25.5459 27.1867 19.3268 25.3962 16.2378L19.5872 25.5459H31.0412Z" fill="#858585"/>
</svg>
