<svg width="104" height="46" viewBox="0 0 104 46" fill="none" xmlns="http://www.w3.org/2000/svg">
<path d="M18.1555 40.6991L18.6038 38.4648H18.2452L18.29 38.1144H18.6486V37.9829C18.6934 37.6325 18.8279 37.282 19.0969 37.1067C19.2762 36.9753 19.5003 36.8877 19.7245 36.8877C19.9038 36.8877 20.0383 36.9315 20.0831 36.9753L19.9934 37.3258C19.9038 37.282 19.8141 37.282 19.7245 37.282C19.3659 37.282 19.1866 37.6325 19.0969 38.0267V38.1582H19.7245L19.6348 38.5086H19.0521L18.6038 40.7429H18.1555V40.6991Z" fill="#858585"/>
<path d="M20.7107 40.7866C20.0383 40.7866 19.6797 40.3047 19.6797 39.7352C19.6797 38.9028 20.2624 38.1143 21.1142 38.1143C21.8314 38.1143 22.1452 38.64 22.1452 39.1657C22.19 39.9543 21.6073 40.7866 20.7107 40.7866ZM20.7555 40.4362C21.2935 40.4362 21.6969 39.779 21.6969 39.1657C21.6969 38.859 21.5624 38.4647 21.0693 38.4647C20.4866 38.4647 20.128 39.1219 20.128 39.7352C20.128 40.1295 20.3969 40.4362 20.7555 40.4362Z" fill="#858585"/>
<path d="M22.5039 40.6991L22.8177 39.0344C22.8625 38.6839 22.9074 38.3772 22.9522 38.1144H23.3108C23.3108 38.2896 23.266 38.4648 23.2211 38.6839C23.4005 38.3334 23.6694 38.0706 24.028 38.0706C24.0729 38.0706 24.1177 38.0706 24.1625 38.0706L24.0729 38.5087C24.028 38.5087 23.9832 38.5087 23.9384 38.5087C23.5349 38.5087 23.2211 38.9906 23.0867 39.5601L22.8625 40.6991H22.5039Z" fill="#858585"/>
<path d="M26.852 40.6991C26.852 40.5239 26.8969 40.3048 26.8969 40.042C26.6279 40.5677 26.2244 40.7429 25.8658 40.7429C25.4176 40.7429 25.1038 40.3925 25.1038 39.9106C25.1038 39.0344 25.7762 38.0706 26.9417 38.0706C27.2107 38.0706 27.4796 38.1144 27.6589 38.1582L27.3451 39.5163C27.2555 39.9544 27.2107 40.4363 27.2555 40.6991H26.852ZM27.121 38.4648C27.0762 38.4648 26.9417 38.421 26.8072 38.421C26.1348 38.421 25.552 39.122 25.552 39.8229C25.552 40.1296 25.6417 40.3925 26.0003 40.3925C26.3589 40.3925 26.8072 39.9106 26.9417 39.2096L27.121 38.4648Z" fill="#858585"/>
<path d="M30.8417 40.6115C30.7072 40.6991 30.4382 40.7867 30.0796 40.7867C29.4072 40.7867 29.0486 40.3487 29.0486 39.7791C29.0486 38.9029 29.721 38.0706 30.6624 38.0706C30.8865 38.0706 31.1107 38.1582 31.2003 38.202L31.0658 38.5525C30.9762 38.5087 30.7969 38.4648 30.6175 38.4648C29.9451 38.4648 29.4969 39.122 29.4969 39.7353C29.4969 40.1734 29.721 40.4363 30.1693 40.4363C30.4382 40.4363 30.6624 40.3487 30.7969 40.3048L30.8417 40.6115Z" fill="#858585"/>
<path d="M31.335 40.699L32.0522 36.9314H32.5005L31.7832 40.699H31.335Z" fill="#858585"/>
<path d="M34.4727 40.5677C34.2934 40.6553 33.9348 40.7867 33.621 40.7867C32.9037 40.7867 32.6348 40.3048 32.6348 39.7353C32.6348 38.9467 33.2175 38.0706 34.0692 38.0706C34.5624 38.0706 34.8313 38.3772 34.8313 38.7277C34.8313 39.3848 34.0692 39.5601 33.083 39.5601C33.083 39.6915 33.083 39.9106 33.1279 40.042C33.2175 40.261 33.4417 40.3925 33.7106 40.3925C34.0244 40.3925 34.2486 40.3048 34.4279 40.2172L34.4727 40.5677ZM34.383 38.7715C34.383 38.5525 34.2037 38.4648 33.9796 38.4648C33.5313 38.4648 33.2175 38.8591 33.1279 39.2972C33.8003 39.2534 34.383 39.1658 34.383 38.7715Z" fill="#858585"/>
<path d="M36.8037 40.6991C36.8037 40.5239 36.8485 40.3048 36.8485 40.042C36.5796 40.5677 36.1761 40.7429 35.8175 40.7429C35.3692 40.7429 35.0554 40.3925 35.0554 39.9106C35.0554 39.0344 35.7278 38.0706 36.8934 38.0706C37.1623 38.0706 37.4313 38.1144 37.6106 38.1582L37.3416 39.5163C37.252 39.9544 37.2071 40.4363 37.252 40.6991H36.8037ZM37.0727 38.4648C37.0278 38.4648 36.8934 38.421 36.7589 38.421C36.0865 38.421 35.5037 39.122 35.5037 39.8229C35.5037 40.1296 35.5934 40.3925 35.952 40.3925C36.3106 40.3925 36.7589 39.9106 36.8934 39.2096L37.0727 38.4648Z" fill="#858585"/>
<path d="M37.8796 40.6991L38.2383 38.8591C38.2831 38.5525 38.3279 38.3334 38.3727 38.1144H38.7762L38.6865 38.6401C38.9107 38.2896 39.2693 38.0706 39.6727 38.0706C39.9865 38.0706 40.3452 38.2458 40.3452 38.7715C40.3452 38.9029 40.3452 39.0344 40.3003 39.1658L39.9865 40.6553H39.5383L39.8072 39.1658C39.8072 39.0782 39.8521 38.9467 39.8521 38.8153C39.8521 38.5525 39.7624 38.3772 39.4486 38.3772C39.1348 38.3772 38.6865 38.7715 38.5521 39.3848L38.3279 40.6115H37.8796V40.6991Z" fill="#858585"/>
<path d="M42.6761 40.5677C42.4968 40.6553 42.1381 40.7867 41.8243 40.7867C41.1071 40.7867 40.8381 40.3048 40.8381 39.7353C40.8381 38.9467 41.4209 38.0706 42.2726 38.0706C42.7657 38.0706 43.0347 38.3772 43.0347 38.7277C43.0347 39.3848 42.2726 39.5601 41.2864 39.5601C41.2864 39.6915 41.2864 39.9106 41.3312 40.042C41.4209 40.261 41.645 40.3925 41.914 40.3925C42.2278 40.3925 42.4519 40.3048 42.6312 40.2172L42.6761 40.5677ZM42.5864 38.7715C42.5864 38.5525 42.4071 38.4648 42.183 38.4648C41.7347 38.4648 41.4209 38.8591 41.3312 39.2972C42.0037 39.2534 42.5864 39.1658 42.5864 38.7715Z" fill="#858585"/>
<path d="M43.2141 40.6991L43.5279 39.0344C43.5727 38.6839 43.6176 38.3772 43.6624 38.1144H44.0658C44.0658 38.2896 44.021 38.4648 43.9762 38.6839C44.1555 38.3334 44.4245 38.0706 44.7831 38.0706C44.8279 38.0706 44.8727 38.0706 44.9176 38.0706L44.8279 38.5087C44.7831 38.5087 44.7382 38.5087 44.6934 38.5087C44.29 38.5087 43.9762 38.9906 43.8417 39.5601L43.6176 40.6991H43.2141Z" fill="#858585"/>
<path d="M44.3796 41.3563C44.5589 41.0496 44.7831 40.4801 44.9176 40.0858L45.4555 40.042C45.2762 40.4801 44.9176 41.0934 44.7383 41.3125L44.3796 41.3563Z" fill="#858585"/>
<path d="M46.5762 40.699L47.2934 36.9314H47.7417L47.4279 38.5962C47.652 38.2895 47.9658 38.0704 48.3693 38.0704C48.6831 38.0704 49.0417 38.2457 49.0417 38.7714C49.0417 38.9028 49.0417 39.0781 48.9969 39.2095L48.6831 40.699H48.2348L48.5486 39.2095C48.5486 39.1219 48.5934 38.9904 48.5934 38.859C48.5934 38.64 48.4589 38.4209 48.19 38.4209C47.8313 38.4209 47.3831 38.8152 47.2934 39.3847L47.0693 40.6552H46.5762V40.699Z" fill="#858585"/>
<path d="M51.3726 40.5677C51.1933 40.6553 50.8347 40.7867 50.5209 40.7867C49.8036 40.7867 49.5347 40.3048 49.5347 39.7353C49.5347 38.9467 50.1174 38.0706 50.9691 38.0706C51.4623 38.0706 51.7312 38.3772 51.7312 38.7277C51.7312 39.3848 50.9692 39.5601 49.9829 39.5601C49.9829 39.6915 49.9829 39.9106 50.0278 40.042C50.1174 40.261 50.3416 40.3925 50.6105 40.3925C50.9243 40.3925 51.1485 40.3048 51.3278 40.2172L51.3726 40.5677ZM51.2829 38.7715C51.2829 38.5525 51.1036 38.4648 50.8795 38.4648C50.4312 38.4648 50.1174 38.8591 50.0278 39.2972C50.745 39.2534 51.2829 39.1658 51.2829 38.7715Z" fill="#858585"/>
<path d="M53.7038 40.6991C53.7038 40.5239 53.7487 40.3048 53.7487 40.042C53.4797 40.5677 53.0763 40.7429 52.7176 40.7429C52.2694 40.7429 51.9556 40.3925 51.9556 39.9106C51.9556 39.0344 52.628 38.0706 53.7935 38.0706C54.0625 38.0706 54.3314 38.1144 54.5107 38.1582L54.2418 39.5163C54.1521 39.9544 54.1073 40.4363 54.1521 40.6991H53.7038ZM53.9728 38.4648C53.928 38.4648 53.7935 38.421 53.659 38.421C52.9866 38.421 52.4038 39.122 52.4038 39.8229C52.4038 40.1296 52.4935 40.3925 52.8521 40.3925C53.2107 40.3925 53.659 39.9106 53.7935 39.2096L53.9728 38.4648Z" fill="#858585"/>
<path d="M54.7798 40.699L55.5419 36.9314H55.9901L55.2281 40.699H54.7798Z" fill="#858585"/>
<path d="M57.2004 37.5447L57.0659 38.158H57.6935L57.6039 38.5085H56.9763L56.7521 39.779C56.7073 39.9104 56.7073 40.0418 56.7073 40.1732C56.7073 40.3485 56.797 40.4361 56.9763 40.4361C57.0659 40.4361 57.1108 40.4361 57.2004 40.4361V40.7866C57.1108 40.8304 56.9763 40.8304 56.8418 40.8304C56.4383 40.8304 56.3039 40.6113 56.3039 40.3485C56.3039 40.2171 56.3039 40.0418 56.3487 39.8666L56.6177 38.5523H56.259L56.3039 38.2018H56.6625L56.7521 37.7199L57.2004 37.5447Z" fill="#858585"/>
<path d="M57.7383 40.699L58.4555 36.9314H58.9038L58.59 38.5962C58.8141 38.2895 59.1279 38.0704 59.5314 38.0704C59.8452 38.0704 60.2038 38.2457 60.2038 38.7714C60.2038 38.9028 60.2038 39.0781 60.159 39.2095L59.8452 40.699H59.3969L59.7107 39.2095C59.7107 39.1219 59.7555 38.9904 59.7555 38.859C59.7555 38.64 59.621 38.4209 59.3521 38.4209C58.9934 38.4209 58.5452 38.8152 58.4555 39.3847L58.2314 40.6552H57.7383V40.699Z" fill="#858585"/>
<path d="M60.6521 40.6989L61.1452 38.1142H61.5935L61.1004 40.6989H60.6521ZM61.459 37.6761C61.2797 37.6761 61.19 37.5447 61.19 37.3694C61.19 37.1942 61.3245 37.0627 61.5038 37.0627C61.6831 37.0627 61.7728 37.1942 61.7728 37.3694C61.8176 37.5447 61.6383 37.6761 61.459 37.6761Z" fill="#858585"/>
<path d="M63.7901 40.5677C63.6108 40.6553 63.2521 40.7867 62.9384 40.7867C62.2211 40.7867 61.9521 40.3048 61.9521 39.7353C61.9521 38.9467 62.5349 38.0706 63.3866 38.0706C63.8797 38.0706 64.1487 38.3772 64.1487 38.7277C64.1487 39.3848 63.3866 39.5601 62.4004 39.5601C62.4004 39.6915 62.4004 39.9106 62.4453 40.042C62.5349 40.261 62.759 40.3925 63.028 40.3925C63.3418 40.3925 63.5659 40.3048 63.7453 40.2172L63.7901 40.5677ZM63.6556 38.7715C63.6556 38.5525 63.4763 38.4648 63.2522 38.4648C62.8039 38.4648 62.4901 38.8591 62.4004 39.2972C63.1177 39.2534 63.6556 39.1658 63.6556 38.7715Z" fill="#858585"/>
<path d="M64.3279 40.6991L64.6417 39.0344C64.6865 38.6839 64.7313 38.3772 64.7762 38.1144H65.1796C65.1796 38.2896 65.1348 38.4648 65.0899 38.6839C65.2693 38.3334 65.5382 38.0706 65.8968 38.0706C65.9417 38.0706 65.9865 38.0706 66.0313 38.0706L65.9417 38.5087C65.8968 38.5087 65.852 38.5087 65.8072 38.5087C65.4037 38.5087 65.0899 38.9906 64.9555 39.5601L64.7313 40.6991H64.3279Z" fill="#858585"/>
<path d="M67.1072 40.6991L67.5555 38.4648H67.1968L67.2417 38.1144H67.6003V37.9829C67.6451 37.6325 67.7796 37.282 68.0486 37.1067C68.2279 36.9753 68.452 36.8877 68.6761 36.8877C68.8555 36.8877 68.9899 36.9315 69.0348 36.9753L68.9451 37.3258C68.8555 37.282 68.7658 37.282 68.6761 37.282C68.3175 37.282 68.1382 37.6325 68.0486 38.0267V38.1582H68.6313L68.5417 38.5086H67.9589L67.5106 40.7429H67.1072V40.6991Z" fill="#858585"/>
<path d="M71.1865 38.158L70.8278 39.998C70.783 40.3046 70.7382 40.5237 70.6934 40.7427H70.2899L70.3796 40.2608C70.1554 40.6113 69.7968 40.7865 69.4382 40.7865C69.0796 40.7865 68.7209 40.6113 68.7209 40.0418C68.7209 39.9103 68.7209 39.7789 68.7658 39.6037L69.0347 38.158H69.483L69.214 39.6037C69.1692 39.7351 69.1692 39.8665 69.1692 39.998C69.1692 40.2608 69.2589 40.4361 69.5727 40.4361C69.8865 40.4361 70.3347 40.0418 70.4244 39.5161L70.6934 38.2018H71.1865V38.158Z" fill="#858585"/>
<path d="M72.6211 37.5447L72.4866 38.158H73.1142L73.0245 38.5085H72.3969L72.1728 39.779C72.128 39.9104 72.128 40.0418 72.128 40.1732C72.128 40.3485 72.2176 40.4361 72.3969 40.4361C72.4866 40.4361 72.5314 40.4361 72.6211 40.4361V40.7866C72.5314 40.8304 72.3969 40.8304 72.2624 40.8304C71.859 40.8304 71.7245 40.6113 71.7245 40.3485C71.7245 40.2171 71.7245 40.0418 71.7693 39.8666L72.0383 38.5523H71.6797L71.7245 38.2018H72.0831L72.1728 37.7199L72.6211 37.5447Z" fill="#858585"/>
<path d="M75.7141 38.158L75.3555 39.998C75.3107 40.3046 75.2659 40.5237 75.221 40.7427H74.8624L74.9521 40.2608C74.7279 40.6113 74.3693 40.7865 74.0107 40.7865C73.6521 40.7865 73.2935 40.6113 73.2935 40.0418C73.2935 39.9103 73.2935 39.7789 73.3383 39.6037L73.6072 38.158H74.0555L73.7866 39.6037C73.7417 39.7351 73.7417 39.8665 73.7417 39.998C73.7417 40.2608 73.8314 40.4361 74.1452 40.4361C74.459 40.4361 74.9073 40.0418 74.9969 39.5161L75.2659 38.2018H75.7141V38.158Z" fill="#858585"/>
<path d="M76.0281 40.6991L76.3419 39.0344C76.3867 38.6839 76.4315 38.3772 76.4764 38.1144H76.8798C76.8798 38.2896 76.835 38.4648 76.7901 38.6839C76.9695 38.3334 77.2384 38.0706 77.597 38.0706C77.6419 38.0706 77.6867 38.0706 77.7315 38.0706L77.6419 38.5087C77.597 38.5087 77.5522 38.5087 77.5074 38.5087C77.1039 38.5087 76.7901 38.9906 76.6557 39.5601L76.4315 40.6991H76.0281Z" fill="#858585"/>
<path d="M79.659 40.5677C79.4797 40.6553 79.121 40.7867 78.8073 40.7867C78.09 40.7867 77.821 40.3048 77.821 39.7353C77.821 38.9467 78.4038 38.0706 79.2555 38.0706C79.7486 38.0706 80.0176 38.3772 80.0176 38.7277C80.0176 39.3848 79.2555 39.5601 78.2693 39.5601C78.2693 39.6915 78.2693 39.9106 78.3141 40.042C78.4038 40.261 78.6279 40.3925 78.8969 40.3925C79.2107 40.3925 79.4348 40.3048 79.6141 40.2172L79.659 40.5677ZM79.5245 38.7715C79.5245 38.5525 79.3452 38.4648 79.121 38.4648C78.6728 38.4648 78.359 38.8591 78.2693 39.2972C78.9866 39.2534 79.5245 39.1658 79.5245 38.7715Z" fill="#858585"/>
<path d="M13.7176 30.5352C14.0314 30.6228 14.5693 30.6228 15.0176 30.6228C18.4245 30.6228 20.6211 28.8266 20.6211 24.9714C20.6211 21.5105 18.6038 19.8895 15.4211 19.8895C14.6142 19.8895 14.0762 19.9771 13.7176 20.0209V30.5352ZM10.0417 17.4362C11.3866 17.2171 13.1797 17.0857 15.0176 17.0857C18.1555 17.0857 20.2176 17.5676 21.7866 18.7505C23.49 19.9771 24.5659 21.9924 24.5659 24.84C24.5659 27.9066 23.4004 30.0095 21.8762 31.3238C20.128 32.7257 17.4831 33.3828 14.2555 33.3828C12.328 33.3828 10.9383 33.2514 10.0417 33.1638V17.4362Z" fill="#858585"/>
<path d="M29.6763 21.6418H25.9556V33.2952H29.6763V21.6418Z" fill="#858585"/>
<path d="M34.3831 21.6418L35.9969 27.0304C36.2659 27.9942 36.49 28.9142 36.6693 29.878H36.759C36.9383 28.9142 37.1624 28.038 37.4314 27.0304L38.9555 21.6418H42.8555L38.4176 33.2952H34.6969L30.3486 21.6418H34.3831Z" fill="#858585"/>
<path d="M50.3417 26.1104C50.3417 25.2343 49.9383 23.7447 48.2796 23.7447C46.7107 23.7447 46.0831 25.1466 45.9486 26.1104H50.3417ZM45.9486 28.5638C46.0831 30.0971 47.5624 30.7981 49.3107 30.7981C50.5658 30.7981 51.5969 30.6228 52.5831 30.3162L53.0762 32.7695C51.8658 33.2514 50.3865 33.5143 48.7727 33.5143C44.7383 33.5143 42.4072 31.2362 42.4072 27.5562C42.4072 24.6209 44.29 21.3352 48.4141 21.3352C52.2693 21.3352 53.7038 24.2704 53.7038 27.1619C53.7038 27.7752 53.6141 28.3447 53.5693 28.6076L45.9486 28.5638Z" fill="#858585"/>
<path d="M55.0037 25.4532C55.0037 23.7446 54.9589 22.6056 54.9141 21.6418H58.0968L58.2313 23.7884H58.321C58.9485 22.0799 60.383 21.3789 61.5485 21.3789C61.9072 21.3789 62.0416 21.4227 62.3106 21.4665V24.8837C61.9968 24.8399 61.683 24.796 61.2796 24.796C59.9348 24.796 58.9934 25.497 58.7692 26.636C58.7244 26.8551 58.6796 27.118 58.6796 27.4246V33.2951H54.9589L55.0037 25.4532Z" fill="#858585"/>
<path d="M63.2521 30.1409C63.9245 30.5352 65.359 31.0171 66.4348 31.0171C67.5555 31.0171 68.0038 30.6667 68.0038 30.0533C68.0038 29.44 67.6452 29.1333 66.2555 28.6952C63.79 27.9067 62.8038 26.5924 62.8486 25.2343C62.8486 23.0438 64.7314 21.4229 67.69 21.4229C69.0796 21.4229 70.29 21.7733 71.0072 22.1238L70.3796 24.6209C69.8417 24.3581 68.8107 23.9638 67.7796 23.9638C66.8831 23.9638 66.3452 24.3143 66.3452 24.8838C66.3452 25.4533 66.7934 25.76 68.2728 26.2419C70.559 26.9867 71.4555 28.1257 71.5003 29.8343C71.5003 32.0248 69.7521 33.6019 66.3452 33.6019C64.7762 33.6019 63.3865 33.2514 62.49 32.7695L63.2521 30.1409Z" fill="#858585"/>
<path d="M80.1073 26.1104C80.1073 25.2343 79.7039 23.7447 78.0453 23.7447C76.4763 23.7447 75.8487 25.1466 75.7142 26.1104H80.1073ZM75.7142 28.5638C75.8487 30.0971 77.328 30.7981 79.0763 30.7981C80.3315 30.7981 81.3625 30.6228 82.3487 30.3162L82.8418 32.7695C81.6315 33.2514 80.1522 33.5143 78.5384 33.5143C74.5039 33.5143 72.1729 31.2362 72.1729 27.5562C72.1729 24.6209 74.0556 21.3352 78.1797 21.3352C82.0349 21.3352 83.4694 24.2704 83.4694 27.1619C83.4694 27.7752 83.3797 28.3447 83.3349 28.6076L75.7142 28.5638Z" fill="#858585"/>
<path d="M87.2349 21.642L89.028 27.3372C89.2073 28.0381 89.4763 28.8705 89.6108 29.4839H89.7004C89.8797 28.8705 90.0591 27.9943 90.2384 27.3372L91.7177 21.642H95.7073L92.928 29.3086C91.2246 33.9086 90.0591 35.7486 88.7591 36.9315C87.5039 38.0267 86.1142 38.421 85.1729 38.5086L84.4108 35.442C84.8591 35.3543 85.4418 35.1353 86.0246 34.8286C86.5625 34.522 87.2349 33.9524 87.5487 33.3829C87.6832 33.2077 87.728 33.0324 87.728 32.8572C87.728 32.7258 87.6832 32.5505 87.5935 32.2439L83.2004 21.5981H87.2349V21.642Z" fill="#858585"/>
<path d="M80.2865 38.0267H80.4209V37.1505H80.7347V37.019H79.9727V37.1505H80.2865V38.0267ZM81.7658 38.0267H81.9002L81.8554 37.019H81.6761L81.4968 37.5009C81.452 37.6324 81.4071 37.72 81.4071 37.8514C81.3623 37.7638 81.3623 37.6324 81.3175 37.5009L81.1382 37.019H80.9589L80.8692 38.0267H81.0037L81.0485 37.5886C81.0485 37.4571 81.0485 37.2819 81.0485 37.1505C81.0934 37.2819 81.1382 37.4133 81.183 37.5448L81.3623 38.0267H81.452L81.6313 37.5448C81.6761 37.4133 81.7209 37.2819 81.7658 37.1505C81.7658 37.2819 81.7658 37.4571 81.7658 37.5886V38.0267Z" fill="#858585"/>
<path d="M68.9003 15.421C67.0623 15.3772 65.2692 15.8152 63.6106 16.6914C66.0313 19.5391 70.6934 20.2838 74.414 18.9257C72.083 18.5752 69.9761 17.3486 68.9003 15.421Z" fill="#858585"/>
<g opacity="0.85">
<path d="M84.9487 13.9752C85.666 12.7047 86.1591 11.3466 86.3832 9.98853C85.0384 10.2076 83.6936 10.6457 82.4384 11.3028C82.3039 12.4857 82.0349 13.6247 81.5867 14.72C82.7074 14.3257 83.828 14.1066 84.9487 13.9752Z" fill="#858585"/>
</g>
<g opacity="0.7">
<path d="M80.9141 6.22095C79.6589 7.27238 78.6727 8.54285 77.9106 9.94476C78.5382 11.259 78.852 12.7048 78.9417 14.1067C79.7037 12.9676 80.6451 11.96 81.7658 11.1276C81.8555 9.50666 81.5865 7.8419 80.9141 6.22095Z" fill="#858585"/>
</g>
<g opacity="0.4">
<path d="M74.0108 16.3848C73.1591 14.8514 72.666 13.1867 72.5763 11.4781C71.097 10.6019 69.3935 9.98858 67.6453 9.76953C67.7349 11.6533 68.3177 13.4933 69.2591 15.0705C70.9177 15.2019 72.5315 15.64 74.0108 16.3848Z" fill="#858585"/>
</g>
<g opacity="0.55">
<path d="M76.2073 14.6323C76.2522 13.0114 76.6108 11.4343 77.2832 9.94473C76.4763 8.4114 75.3556 7.14092 74.0556 6.1333C73.3832 7.75425 73.0694 9.50663 73.159 11.259C74.3246 12.179 75.4004 13.3181 76.2073 14.6323Z" fill="#858585"/>
</g>
<path d="M77.0142 17.9182C79.5245 17.5677 82.8866 17.8305 85.2176 19.7144C86.6969 19.4077 89.0728 18.3563 90.5969 16.6915C87.728 14.9391 81.9004 14.5886 77.0142 17.9182Z" fill="#858585"/>
<path d="M96.3348 22.6058H96.4693V21.7296H96.7831V21.5981H96.021V21.7296H96.3348V22.6058ZM97.8141 22.6058H97.9486L97.9038 21.5981H97.7244L97.5451 22.0801C97.5003 22.2115 97.4555 22.2991 97.4555 22.4305C97.4107 22.3429 97.4107 22.2115 97.3658 22.0801L97.1865 21.5981H97.0072L96.9175 22.6058H97.052L97.0969 22.1677C97.0969 22.0362 97.0969 21.861 97.0969 21.7296C97.1417 21.861 97.1865 21.9924 97.2313 22.1239L97.4107 22.6058H97.5003L97.6796 22.1239C97.7244 21.9924 97.7693 21.861 97.8141 21.7296C97.8141 21.861 97.8141 22.0362 97.8141 22.1677V22.6058Z" fill="#858585"/>
</svg>
