<svg width="124" height="22" viewBox="0 0 124 22" fill="none" xmlns="http://www.w3.org/2000/svg">
<path d="M87.8951 6.28679V9.94668H94.6507V21.3185H98.1551V9.94668H104.909V6.28679H87.8951ZM73.8687 6.28679V17.5279C73.9229 19.7347 75.4792 21.2988 77.6351 21.3185H90.8822V17.5279H77.5052V6.28679H73.8687ZM55.167 17.5279V15.6979H69.453V11.9073H55.167V9.94668H69.453V6.28679H55.4289C53.2253 6.25412 51.6712 7.82046 51.6625 9.94668V17.5279C51.6712 19.7347 53.2275 21.2988 55.4289 21.3185H69.453V17.5279H55.167ZM28.9325 6.28679H43.9978C46.1905 6.25412 47.7447 7.82046 47.7642 9.94668V17.5279C47.7447 19.7347 46.1884 21.2988 43.9978 21.3185H28.9325V6.28679ZM14.2568 21.3185C13.3152 21.2988 13.2827 20.4492 13.6074 19.7499L18.153 12.4302C18.3543 12.1099 18.6249 11.6655 19.0621 11.6459C19.3695 11.6655 19.64 12.1077 19.8414 12.4302L24.3891 19.7499C24.7138 20.4492 24.6813 21.2988 23.7376 21.3185H14.2568ZM0.749937 21.3185C-0.113722 21.2901 -0.148355 20.4645 0.230443 19.8806L4.5141 12.6916C4.77169 12.3735 5.03576 11.9465 5.42322 11.9073C5.75656 11.9465 6.01847 12.3757 6.20246 12.6916L10.6182 19.8806C10.9385 20.4645 10.9082 21.2901 10.0987 21.3185H0.749937ZM7.63323 10.0774C6.78473 10.0469 6.75226 9.22124 7.11374 8.63958L11.5294 1.45052C11.6745 1.13246 11.9385 0.703294 12.3108 0.66626C12.6593 0.703294 12.9213 1.13246 13.0879 1.45052L17.5036 8.63958C17.8413 9.22341 17.811 10.0469 16.9841 10.0774H7.63323ZM102.051 21.3185L110.233 7.72461C111.093 6.39136 112.039 6.04934 112.961 6.02537C113.933 6.04934 114.744 6.25412 115.688 7.59389L124 21.3185H119.844L117.766 17.92H108.285L106.207 21.3185H102.051Z" fill="#858585"/>
<path d="M32.4387 9.94678H43.3481C43.5861 9.95644 43.8118 10.0559 43.9803 10.2255C44.1488 10.395 44.2476 10.6222 44.2572 10.8617V16.613C44.2269 17.1467 43.6858 17.5563 43.2182 17.528H32.4409V9.94678H32.4387ZM110.363 14.6523H115.688L113.48 11.1232C113.222 10.6788 112.716 10.6788 112.441 11.1232L110.363 14.6523Z" fill="#ECECEC"/>
</svg>
