<svg width="47" height="36" viewBox="0 0 47 36" fill="none" xmlns="http://www.w3.org/2000/svg">
<g clip-path="url(#clip0_1_378)">
<path d="M17.1052 27.2334C14.7923 27.2334 13.0496 29.1026 13.0496 31.5627C13.0496 34.0657 14.8461 35.8812 17.3096 35.8812C18.6328 35.8812 19.73 35.4085 20.5691 34.4846C20.6122 34.4417 20.6337 34.3879 20.6229 34.3235C20.6229 34.259 20.5906 34.2053 20.5476 34.1624L19.7193 33.4319C19.6332 33.3567 19.5041 33.3567 19.4181 33.4319C18.7619 34.0334 18.1379 34.2805 17.3418 34.2805C16.137 34.2805 15.0612 33.3459 14.9967 32.2394H20.8166C20.9349 32.2394 21.0317 32.1535 21.0425 32.0353C21.0532 31.9386 21.0532 31.8205 21.0532 31.7023C21.0532 30.4669 20.709 29.3604 20.0743 28.5655C19.375 27.6953 18.3423 27.2334 17.1052 27.2334ZM19.1599 30.8429H14.9752C14.9859 29.6934 15.8896 28.834 17.0837 28.834C18.3638 28.834 19.1384 29.8761 19.1599 30.8429Z" fill="#858585"/>
<path d="M26.0769 30.8429L25.9156 30.7892C25.0119 30.4991 24.2374 30.2521 24.2374 29.7149V29.6827C24.2374 29.1993 24.6784 28.877 25.3669 28.877C25.9801 28.877 26.7439 29.1133 27.5077 29.5538C27.5615 29.586 27.626 29.5968 27.6798 29.5753C27.7443 29.5645 27.7874 29.5216 27.8197 29.4678L28.379 28.4688C28.4436 28.3614 28.4006 28.2325 28.3037 28.168C27.4324 27.6309 26.3781 27.3301 25.4207 27.3301C23.678 27.3301 22.4516 28.3721 22.4516 29.8653V29.8976C22.4516 31.4767 23.7855 31.9816 25.0442 32.3361L25.2378 32.4006C26.1092 32.6691 26.873 32.8947 26.873 33.4748V33.5071C26.873 34.0442 26.3996 34.3665 25.6251 34.3665C24.8183 34.3665 23.9254 34.0549 23.1078 33.4748C23.054 33.4426 22.9895 33.4211 22.9357 33.4319C22.8711 33.4426 22.8281 33.4748 22.7958 33.5285L22.1719 34.4739C22.1074 34.5706 22.1289 34.7102 22.2257 34.7854C23.1939 35.4944 24.431 35.9026 25.5928 35.9026C27.4969 35.9026 28.6803 34.9036 28.6803 33.2815V33.2492C28.6587 31.8312 27.4216 31.2511 26.0769 30.8429Z" fill="#858585"/>
<path d="M36.5225 33.3674C36.4365 33.2815 36.2966 33.2815 36.1998 33.3674C35.5758 33.969 34.9411 34.2483 34.2204 34.2483C32.8327 34.2483 31.7784 33.1096 31.7784 31.6056C31.7784 30.1446 32.8111 28.9952 34.1236 28.9952C34.8874 28.9952 35.479 29.253 36.103 29.8653C36.146 29.9083 36.1998 29.9298 36.2643 29.9298C36.3289 29.9298 36.3827 29.9083 36.4257 29.8653L37.3293 28.8985C37.4154 28.8126 37.4046 28.6729 37.3293 28.587C36.4795 27.7061 35.4575 27.2979 34.1451 27.2979C31.7246 27.2979 29.842 29.21 29.842 31.6486C29.842 34.0657 31.7246 35.9456 34.1343 35.9456C35.479 35.9456 36.458 35.5267 37.3939 34.5383C37.4799 34.4524 37.4692 34.3127 37.3831 34.2268L36.5225 33.3674Z" fill="#858585"/>
<path d="M42.5898 27.2334C40.1048 27.2334 38.1577 29.1456 38.1577 31.5841C38.1577 34.0012 40.0941 35.8812 42.5576 35.8812C45.0533 35.8812 47.0005 33.9797 47.0005 31.5519C47.0005 30.381 46.5594 29.3067 45.7526 28.501C44.935 27.6846 43.8162 27.2334 42.5898 27.2334ZM45.0641 31.5841C45.0641 33.0988 44.0206 34.1946 42.5898 34.1946C41.1698 34.1946 40.0941 33.0559 40.0941 31.5519C40.0941 30.0372 41.1268 28.9415 42.5468 28.9415C43.9883 28.9415 45.0641 30.0802 45.0641 31.5841Z" fill="#858585"/>
<path d="M12.1243 27.459H10.6613C10.5645 27.459 10.4784 27.5234 10.4461 27.6201L8.82173 33.0666L6.35824 27.8027C6.32596 27.7383 6.25066 27.6846 6.17536 27.6846C6.10005 27.6846 6.02475 27.7275 5.99248 27.8027L3.56126 33.0666L1.96913 27.6201C1.93686 27.5234 1.8508 27.459 1.75398 27.459H0.226398C0.151095 27.459 0.0865492 27.4912 0.0435187 27.5557C0.000488281 27.6201 -0.0102693 27.6953 0.0112459 27.7598L2.5608 35.6556C2.59307 35.7522 2.67913 35.8167 2.77595 35.8167H4.1852C4.27126 35.8167 4.35732 35.763 4.38959 35.677L6.17536 31.5519L7.9396 35.677C7.97188 35.763 8.05794 35.8167 8.144 35.8167H9.55325C9.65007 35.8167 9.73613 35.7522 9.7684 35.6556L12.3395 27.7598C12.361 27.6953 12.3502 27.6201 12.3072 27.5557C12.2642 27.4912 12.1996 27.459 12.1243 27.459Z" fill="#858585"/>
<path d="M35.877 21.6365L46.9143 0.914093C47.1187 0.52736 46.839 0.0546875 46.3979 0.0546875H35.6726C35.3606 0.0546875 35.0809 0.226569 34.9411 0.495133L29.218 11.2377L34.7582 21.6365C34.8658 21.8406 35.0809 21.9803 35.3176 21.9803C35.5542 21.9695 35.7694 21.8406 35.877 21.6365Z" fill="#858585"/>
<path d="M0.0971889 0.914032L10.6396 20.7126L16.395 9.90556L11.3927 0.505815C11.2528 0.23725 10.9624 0.0653695 10.6612 0.0653695H0.613554C0.172492 0.0546269 -0.107206 0.516557 0.0971889 0.914032Z" fill="#858585"/>
<path d="M11.3066 21.9695H23.0002C23.3121 21.9695 23.5918 21.7976 23.7317 21.5291L29.2073 11.2377L23.6671 0.849621C23.5596 0.645513 23.3444 0.505859 23.1077 0.505859C22.8711 0.505859 22.6559 0.63477 22.5483 0.849621L11.3066 21.9695Z" fill="#858585"/>
</g>
<defs>
<clipPath id="clip0_1_378">
<rect width="47" height="35.8909" fill="white" transform="translate(0.000488281 0.0546875)"/>
</clipPath>
</defs>
</svg>
