<svg width="63" height="38" viewBox="0 0 63 38" fill="none" xmlns="http://www.w3.org/2000/svg">
<g clip-path="url(#clip0_1_391)">
<mask id="mask0_1_391" style="mask-type:luminance" maskUnits="userSpaceOnUse" x="0" y="1" width="63" height="36">
<path d="M0.312256 36.814H62.6888V1.18578H0.312256V36.814Z" fill="white"/>
</mask>
<g mask="url(#mask0_1_391)">
<path d="M0.312256 33.7207L1.14163 23.8611H4.21656L5.50683 26.889C5.95849 27.8692 6.41072 29.1859 6.74686 30.3423H6.79075C6.75552 29.0396 6.81328 27.6638 6.93745 26.1873L7.13267 23.8611H9.5151L8.68631 33.7207H5.94347L4.57234 30.4441C4.1126 29.3907 3.5876 28.074 3.2272 26.8749H3.18389C3.12902 28.2057 3.03257 29.698 2.89857 31.2927L2.69412 33.7207H0.312256Z" fill="#858585"/>
<path d="M12.859 33.7207L10.5979 23.8611H13.4568L14.1557 27.7369C14.3815 28.8348 14.5501 29.9168 14.6743 31.1903H14.7032C15.0503 29.9765 15.4205 28.8348 15.7983 27.7814L17.1827 23.8611H19.9544L15.9334 33.7207H12.859Z" fill="#858585"/>
<path d="M22.4148 24.8358L22.1462 28.0275H26.4756L26.4028 28.8866H22.074L21.7425 32.8303H26.337L26.2613 33.728H20.6082L21.4312 23.9369H27.0849L27.0087 24.8358H22.4148Z" fill="#858585"/>
<path d="M28.3285 26.7534H29.2543L29.1631 28.0017H29.1896C29.4906 27.5715 29.859 27.2339 30.2939 26.9892C30.73 26.7417 31.1811 26.6194 31.6483 26.6194C32.4257 26.6194 32.9813 26.8634 33.3152 27.3509C33.649 27.8378 33.7726 28.6091 33.6836 29.6642L33.3417 33.7285H32.3888L32.7237 29.745C32.7965 28.8777 32.7232 28.2761 32.5048 27.9408C32.2854 27.6055 31.8753 27.4375 31.2758 27.4375C30.7554 27.4375 30.2633 27.6921 29.8007 28.2018C29.3392 28.7121 29.0799 29.3119 29.0216 29.999L28.708 33.7285H27.7417L28.3285 26.7534Z" fill="#858585"/>
<path d="M35.8912 29.8381H40.1264C40.1836 29.061 40.0485 28.4605 39.721 28.0415C39.3958 27.6202 38.9136 27.4107 38.2788 27.4107C37.6169 27.4107 37.0735 27.6237 36.6501 28.0474C36.2262 28.4728 35.972 29.0691 35.8912 29.8381ZM35.8259 30.6164C35.7786 31.3766 35.9553 31.9759 36.355 32.4142C36.7558 32.8514 37.3126 33.0708 38.0282 33.0708C38.7339 33.0708 39.4247 32.8935 40.0987 32.5359L40.2985 33.2996C39.5264 33.6747 38.716 33.8638 37.8682 33.8638C36.88 33.8638 36.1083 33.5366 35.555 32.8841C35.0006 32.231 34.7707 31.3497 34.8631 30.2407C34.959 29.1148 35.3182 28.2288 35.9409 27.5851C36.5646 26.9407 37.3657 26.6195 38.3452 26.6195C39.2982 26.6195 40.0127 26.9249 40.4857 27.5376C40.9587 28.1509 41.1481 29.0293 41.0511 30.1734C41.0419 30.2905 41.0205 30.4374 40.9876 30.6164H35.8259Z" fill="#858585"/>
<path d="M42.6876 26.7534H43.6279L43.5291 28.2422H43.5551C44.4145 27.1607 45.5541 26.6194 46.9754 26.6194L46.9032 27.4638C45.9243 27.4638 45.1093 27.7365 44.4584 28.2831C43.8087 28.8274 43.4465 29.5343 43.3738 30.4016L43.0937 33.7285H42.1008L42.6876 26.7534Z" fill="#858585"/>
<path d="M48.3656 29.2755C48.3159 29.8654 48.4372 30.3283 48.7318 30.6642C49.0257 30.9996 49.4502 31.1663 50.007 31.1663C50.5805 31.1663 51.0403 31.0025 51.3857 30.6771C51.7305 30.3506 51.9286 29.883 51.9805 29.2755C52.0244 28.7389 51.8916 28.2953 51.582 27.9471C51.2707 27.5983 50.8514 27.4233 50.3212 27.4233C49.7748 27.4233 49.3232 27.5948 48.9674 27.9336C48.6134 28.2742 48.4124 28.7213 48.3656 29.2755ZM49.5917 36.1038C50.3062 36.1038 50.8687 35.985 51.2759 35.748C51.6842 35.5104 51.906 35.1856 51.9407 34.7753C52.0123 33.9162 51.3031 33.4873 49.8118 33.4873C49.106 33.4873 48.5625 33.6061 48.1802 33.8431C47.7984 34.0789 47.5917 34.3891 47.5582 34.7753C47.5247 35.1768 47.6858 35.4998 48.0404 35.7409C48.3945 35.982 48.9114 36.1038 49.5917 36.1038ZM50.1508 26.6193C51.0686 26.6193 51.7276 26.9721 52.1272 27.6797H52.1538L52.2578 26.7533H53.1853L52.9797 29.1942C52.8301 30.965 51.8194 31.8516 49.9493 31.8516C49.437 31.8516 48.9905 31.7609 48.6087 31.5824C48.4153 31.7796 48.3125 31.9447 48.3021 32.0787C48.2853 32.2753 48.417 32.4462 48.696 32.5884C48.9749 32.7318 49.3665 32.8038 49.869 32.8038C52.014 32.8038 53.0323 33.4469 52.9237 34.735C52.8711 35.3605 52.5465 35.8644 51.9493 36.2436C51.3527 36.6246 50.547 36.8142 49.5317 36.8142C48.57 36.8142 47.8365 36.6351 47.3329 36.2782C46.8293 35.92 46.6034 35.4366 46.6549 34.8286C46.6849 34.471 46.8483 34.1421 47.1475 33.8431C47.4467 33.5435 47.8446 33.3223 48.3419 33.1789L48.3442 33.152C47.6829 32.9378 47.3716 32.5937 47.4109 32.1191C47.4392 31.7884 47.6257 31.4613 47.97 31.14C47.5333 30.6841 47.3462 30.0626 47.4126 29.2755C47.479 28.4791 47.7649 27.8377 48.2691 27.3508C48.7728 26.8633 49.4012 26.6193 50.1508 26.6193Z" fill="#858585"/>
<path d="M55.5125 26.7533L57.2371 32.5357H57.2631L59.8148 26.7533H60.8735L57.6131 33.7284C57.0535 34.9281 56.4932 35.7409 55.9324 36.1705C55.371 36.5994 54.6179 36.8142 53.6736 36.8142L53.6898 35.9955C54.4042 35.9955 54.9708 35.8392 55.3901 35.5267C55.8094 35.2125 56.2241 34.6138 56.6342 33.7284L54.4273 26.7533H55.5125Z" fill="#858585"/>
<path d="M52.4729 19.6626L19.7379 6.4667L17.8909 8.9275L52.4729 19.6626Z" fill="#858585"/>
<path d="M52.3462 20.1436L16.3682 10.9563L13.9956 14.1176L52.3462 20.1436Z" fill="#858585"/>
<path d="M52.31 20.6238L12.3324 16.3336L9.11255 20.6238H52.31Z" fill="#858585"/>
<path d="M36.9342 11.5979L30.6047 1.18584L28.7207 3.69698L36.9342 11.5979Z" fill="#858585"/>
<path d="M27.9216 4.76158L26.2368 7.00587L36.7091 11.842L27.9216 4.76158Z" fill="#858585"/>
<path d="M39.7426 10.2467L38.0088 12.5566L52.6655 19.2461L39.7426 10.2467Z" fill="#858585"/>
<path d="M52.9347 18.8604L42.1799 6.99931L40.4709 9.27637L52.9347 18.8604Z" fill="#858585"/>
<path d="M62.3951 33.1526L62.4159 32.3146C62.42 32.2051 62.4321 32.0694 62.4396 31.9178H62.4246C62.3772 32.043 62.3218 32.2104 62.2692 32.3415L61.9475 33.1315H61.6581L61.4751 32.3204C61.4583 32.2104 61.4312 32.043 61.4115 31.9178H61.3959C61.3844 32.0483 61.3676 32.1847 61.3509 32.3146L61.2273 33.1526H60.9581L61.1846 31.7288H61.6033L61.7864 32.4252C61.8077 32.5346 61.8245 32.6399 61.8487 32.7868H61.8528C61.9007 32.6557 61.9423 32.5346 61.9827 32.4304L62.286 31.7288H62.6885L62.6747 33.1526H62.3951ZM60.9986 31.7288L60.9789 31.964H60.5279L60.4262 33.1526H60.1473L60.2495 31.964H59.7996L59.8204 31.7288H60.9986Z" fill="#858585"/>
</g>
</g>
<defs>
<clipPath id="clip0_1_391">
<rect width="63" height="36.2466" fill="white" transform="translate(0.000488281 0.876709)"/>
</clipPath>
</defs>
</svg>
