<svg width="80" height="26" viewBox="0 0 80 26" fill="none" xmlns="http://www.w3.org/2000/svg">
<path d="M9.24728 16.7211L15.4262 10.5906C15.4694 10.5043 15.5558 10.4611 15.5558 10.3316C15.5558 10.2452 15.5558 10.1589 15.5126 10.0725C15.4694 9.98618 15.4262 9.89983 15.3398 9.85666C15.2534 9.81349 15.1669 9.77032 15.0805 9.77032H10.6732C10.63 9.77032 10.5436 9.77032 10.5003 9.81349C10.4571 9.85666 10.3707 9.85666 10.3275 9.89983L4.7103 15.5986V0.876793C4.7103 0.83362 4.7103 0.747276 4.66709 0.704104C4.62388 0.660932 4.62388 0.574585 4.58067 0.574585C4.53746 0.531413 4.49425 0.488242 4.40784 0.488242C4.36463 0.445069 4.27821 0.445068 4.235 0.445068H0.47579C0.43258 0.445068 0.346163 0.445069 0.302954 0.488242C0.173326 0.531414 0.086907 0.617758 0.0436977 0.747276C0.000488445 0.790448 0.000488281 0.876794 0.000488281 0.919966V24.708C0.000488281 24.7512 0.000488445 24.8375 0.0436977 24.8807C0.086907 25.0102 0.173326 25.0965 0.302954 25.1397C0.346163 25.1829 0.43258 25.1829 0.47579 25.1829H4.27821C4.32142 25.1829 4.40784 25.1829 4.45104 25.1397C4.49425 25.0965 4.58067 25.0965 4.62388 25.0534C4.66709 25.0102 4.7103 24.967 4.7103 24.9238C4.75351 24.8807 4.75351 24.7943 4.75351 24.7512V21.1678C4.75351 20.6929 5.05597 20.218 5.53128 20.0454C5.74732 19.959 6.00658 19.959 6.22263 20.0022C6.43867 20.0454 6.65472 20.1749 6.82755 20.3907L10.9324 25.0534C11.0189 25.1397 11.1485 25.2261 11.2781 25.2261H16.0311C16.1175 25.2261 16.204 25.1829 16.2904 25.1397C16.3768 25.0965 16.42 25.0102 16.4632 24.9238C16.5064 24.8375 16.5064 24.7512 16.5064 24.6648C16.5064 24.5785 16.4632 24.4921 16.3768 24.4058L9.24728 16.7211Z" fill="#858585"/>
<path d="M55.8698 0.401855H59.629C59.8883 0.401855 60.1043 0.617717 60.1043 0.876752V24.6648C60.1043 24.9238 59.8883 25.1397 59.629 25.1397H55.8698C55.6106 25.1397 55.3945 24.9238 55.3945 24.6648V0.876752C55.3945 0.747234 55.4377 0.617717 55.5242 0.531372C55.6106 0.445028 55.7402 0.401855 55.8698 0.401855Z" fill="#858585"/>
<path d="M25.0618 9.38184C20.7409 9.38184 17.1978 13.0515 17.1978 17.4119C17.1978 21.8155 20.7409 25.5283 25.0618 25.5283C29.3828 25.5283 32.9259 21.8587 32.9259 17.4119C32.9259 13.0515 29.426 9.38184 25.0618 9.38184ZM25.0618 21.3406C22.9878 21.3406 21.3891 19.5705 21.3891 17.3687C21.2594 15.3396 22.815 13.5696 24.8458 13.4832C26.8766 13.3537 28.6482 14.9079 28.7346 16.937C28.7346 17.0665 28.7346 17.2392 28.7346 17.3687C28.7346 19.5705 27.0927 21.3406 25.0618 21.3406Z" fill="#858585"/>
<path d="M36.1232 6.23016C36.901 5.49622 37.4627 4.54643 37.8084 3.55347C38.1109 2.5605 38.2405 1.56753 38.1109 0.531395C35.9936 0.27236 33.9196 1.00629 32.4072 2.51733C30.8949 4.02836 30.1604 6.14381 30.4196 8.21609C31.4566 8.34561 32.4505 8.21609 33.4443 7.91388C34.4813 7.5685 35.3887 6.96409 36.1232 6.23016Z" fill="#858585"/>
<path d="M50.5983 9.77039H47.228C47.0984 9.77039 46.9688 9.81356 46.8823 9.8999C46.7959 9.98625 46.7527 10.1158 46.7527 10.2453V11.1951C45.5428 10.0294 43.9873 9.42501 42.3454 9.38184C38.4565 9.38184 35.3022 13.0515 35.3022 17.4119C35.3022 21.8155 38.4565 25.5283 42.3454 25.5283C43.6848 25.5283 44.9379 25.0966 46.0181 24.3195C46.1046 24.2763 46.191 24.2332 46.2774 24.2332C46.3638 24.2332 46.4502 24.2332 46.5367 24.2763C46.7095 24.3627 46.7959 24.5354 46.7959 24.7081V24.9671C46.7959 25.0103 46.7959 25.0534 46.8391 25.0966C46.8823 25.1398 46.9255 25.1398 46.9688 25.1398H50.5983C50.8576 25.1398 51.0736 24.9239 51.0736 24.6649V10.2453C51.0736 10.1158 51.0304 9.98625 50.944 9.8999C50.8576 9.81356 50.728 9.77039 50.5983 9.77039ZM43.3824 21.3406C41.3083 21.3406 39.7096 19.5705 39.7096 17.3687C39.58 15.3396 41.1355 13.5696 43.1663 13.4832C45.1972 13.3537 46.9688 14.9079 47.0552 16.937C47.0552 17.0665 47.0552 17.2392 47.0552 17.3687C47.0984 19.5705 45.4132 21.3406 43.3824 21.3406Z" fill="#858585"/>
<path d="M78.5986 9.77039H75.2283C75.0986 9.77039 74.969 9.81356 74.8826 9.8999C74.7962 9.98625 74.7529 10.1158 74.7529 10.2453V11.1951C73.5431 10.0294 71.9876 9.42501 70.3456 9.38184C66.4568 9.38184 63.3025 13.0515 63.3025 17.4119C63.3025 21.8155 66.4568 25.5283 70.3456 25.5283C71.6851 25.5283 72.9382 25.0966 74.0184 24.3195C74.1048 24.2763 74.1912 24.2332 74.2776 24.2332C74.3641 24.2332 74.4505 24.2332 74.5369 24.2763C74.7097 24.3627 74.7962 24.5354 74.7962 24.7081V24.9671C74.7962 25.0103 74.7962 25.0534 74.8394 25.0966C74.8826 25.1398 74.9258 25.1398 74.969 25.1398H78.5986C78.8578 25.1398 79.0739 24.9239 79.0739 24.6649V10.2453C79.0739 10.1158 79.0307 9.98625 78.9442 9.8999C78.8578 9.81356 78.7282 9.77039 78.5986 9.77039ZM71.3826 21.3406C69.3086 21.3406 67.7098 19.5705 67.7098 17.3687C67.5802 15.3396 69.1357 13.5696 71.1666 13.4832C73.1974 13.3537 74.969 14.9079 75.0554 16.937C75.0554 17.0665 75.0554 17.2392 75.0554 17.3687C75.0554 19.5705 73.4135 21.3406 71.3826 21.3406Z" fill="#858585"/>
</svg>
