<svg width="99" height="31" viewBox="0 0 99 31" fill="none" xmlns="http://www.w3.org/2000/svg">
<path fill-rule="evenodd" clip-rule="evenodd" d="M18.5111 13.9172C21.2321 11.598 24.8004 10.7949 28.2346 10.0365C30.0632 9.59056 32.0259 9.54585 33.8545 9.23345C39.3408 8.78748 44.7377 8.74278 50.2687 8.78749C51.0271 7.76198 51.6072 6.51293 52.4986 5.66515C54.6401 3.07819 57.896 1.5173 61.2419 0.847787C61.9545 0.71422 62.624 0.580094 63.3376 0.490677C58.6018 0.163394 53.8562 -0.000261446 49.1091 3.13502e-07C21.99 3.13502e-07 0 4.86207 0 10.8838C0 14.1844 6.77951 17.1726 17.4403 19.1353C17.262 18.9576 17.1726 18.7335 17.039 18.5111C16.4148 16.816 17.1284 14.988 18.5111 13.9172ZM70.6536 1.11548C71.5009 1.33847 72.3039 1.74028 72.7952 2.5428C73.2406 3.34588 73.463 4.41609 73.0176 5.17447C70.6084 9.59056 64.8555 8.74277 60.2611 8.8769C60.0823 8.78748 59.1009 9.01047 59.4128 8.60921C61.6426 5.53158 64.0071 1.5173 68.3338 0.892497H68.8239C69.4046 0.892497 70.0294 0.937207 70.6536 1.11548Z" fill="#858585"/>
<path fill-rule="evenodd" clip-rule="evenodd" d="M49.1101 21.7227C76.2292 21.7227 98.2192 16.8612 98.2192 10.8842C98.2192 7.49417 91.3056 4.50595 80.4218 2.49854C80.8683 2.98921 81.1355 3.61346 81.1802 4.37183C81.2249 6.60223 79.3069 8.25254 77.3883 9.01035C71.5902 10.5271 64.9001 10.0811 58.6107 10.0811C58.03 10.5718 57.674 11.1072 57.2275 11.7314C54.6853 15.3886 52.4107 20.9202 47.5481 21.678L49.1101 21.7227ZM49.1101 10.5271C49.2442 10.2594 48.976 9.94699 48.6641 9.94699C41.7952 9.9917 34.8816 9.81343 28.994 12.1774C27.1207 13.2029 25.381 14.5414 24.8014 16.6818C24.5785 17.6643 24.5785 18.7786 25.381 19.4923C26.3176 20.4289 27.5667 20.6961 28.8604 20.6961C30.5107 20.7408 32.161 20.2954 32.9641 18.9575C33.0977 18.4662 33.5884 18.0644 33.3212 17.4849C32.7411 17.1725 31.9828 17.2624 31.4032 17.0831C31.0908 16.8154 31.4032 16.5482 31.4926 16.3258L32.028 16.0134L40.9044 16.0581C41.2609 16.2358 41.1721 16.7707 41.0827 17.1278C40.2349 19.4917 38.0497 20.7855 35.6858 21.3203C36.8901 21.365 38.1392 21.4544 39.3882 21.4991C44.0698 19.6706 46.7014 14.7202 49.1101 10.5271Z" fill="#858585"/>
<path fill-rule="evenodd" clip-rule="evenodd" d="M14.8093 28.3241C14.8093 27.7446 14.7646 27.6551 14.3633 27.5657H14.0509C14.0062 27.5657 13.9615 27.5221 13.9615 27.5221C13.9615 27.4774 14.0062 27.4327 14.0956 27.4327C14.5416 27.4327 15.1659 27.4774 15.2553 27.4774C15.3 27.4774 15.9248 27.4327 16.1919 27.4327C16.3255 27.4327 16.3702 27.4774 16.3702 27.5221C16.3702 27.5221 16.3255 27.5657 16.2808 27.5657H16.0578C15.7901 27.6104 15.7007 27.7446 15.656 27.9675V29.5295C15.656 29.8419 15.656 29.8419 15.5224 29.8855C14.8982 30.1538 14.0062 30.1979 13.4261 30.1979C12.6678 30.1979 11.2404 30.1543 10.1697 29.4407C9.54543 29.0836 8.96533 28.3252 8.96533 27.4333C8.96533 26.2731 9.76841 25.4706 10.6156 25.114C11.5076 24.7122 12.4889 24.6228 13.292 24.6228C13.9163 24.6228 14.5852 24.7122 14.7635 24.7569C14.9865 24.8016 15.3436 24.8016 15.5666 24.8463C15.7001 24.8463 15.7001 24.8463 15.7001 24.891C15.7001 24.9793 15.6107 25.2034 15.6107 25.916C15.6107 26.0054 15.6107 26.0501 15.5213 26.0501C15.4766 26.0501 15.4766 26.0054 15.4766 25.9607C15.4766 25.8724 15.4319 25.6483 15.2536 25.4706C15.0306 25.2029 14.2281 24.891 12.9343 24.891C12.3095 24.891 11.5959 24.9357 10.8381 25.3811C10.258 25.6935 9.85671 26.3625 9.85671 27.1656C9.85671 28.1916 10.5257 28.9042 10.8822 29.173C11.6853 29.7078 12.5772 29.9302 13.4692 29.9302C13.8263 29.9302 14.3611 29.8855 14.6288 29.7525C14.7624 29.7078 14.8071 29.6184 14.8071 29.5301V28.3241H14.8093ZM18.6453 26.8079V25.247C18.6006 25.0235 18.5117 24.8899 18.1993 24.8452H17.8869C17.8422 24.8452 17.7975 24.8005 17.7975 24.8005C17.7975 24.7558 17.8422 24.7558 17.9317 24.7558H20.2956C21.5447 24.7558 21.9906 25.0235 22.1689 25.1576C22.3919 25.2906 22.6596 25.603 22.6596 26.0048C22.6596 26.9862 21.6335 27.6998 20.2062 27.6998C20.1615 27.6998 20.0726 27.6998 20.0279 27.6551C19.9385 27.6551 19.8944 27.6551 19.8944 27.6104C19.8944 27.5657 19.9391 27.5657 20.1621 27.5657C21.1434 27.5657 21.9012 27.0756 21.9012 26.4066C21.9012 26.1842 21.8565 25.693 21.3217 25.2912C20.7863 24.9352 20.2062 24.9352 19.9832 24.9352C19.8049 24.9352 19.6261 24.9788 19.5373 24.9788C19.4925 25.0235 19.4478 25.0682 19.4478 25.1129V28.057C19.4478 28.7259 19.4478 29.3054 19.4925 29.6178C19.5373 29.7967 19.582 29.975 19.8938 29.975C20.0274 30.0197 20.2504 30.0197 20.3398 30.0197C20.3845 30.0197 20.4292 30.0644 20.4292 30.0644C20.4292 30.1091 20.3845 30.1091 20.2509 30.1091H18.1099C17.9764 30.1091 17.9317 30.1091 17.9317 30.0644C17.9317 30.0644 17.9764 30.0197 18.0211 30.0197C18.1099 30.0197 18.2441 30.0197 18.3335 29.975C18.5117 29.975 18.5565 29.7972 18.6012 29.6178C18.6459 29.3054 18.6459 28.7259 18.6459 28.057L18.6453 26.8079ZM27.3875 30.0191C27.254 29.9744 27.254 29.9297 27.254 29.7514C27.254 29.3943 27.2987 29.1272 27.2987 28.993C27.2987 28.9036 27.3434 28.9036 27.3881 28.9036C27.4328 28.9036 27.4769 28.9036 27.4769 28.9483V29.216C27.6558 29.752 28.28 29.9297 28.949 29.9297C29.9298 29.9297 30.3763 29.4396 30.3763 28.993C30.3763 28.5029 30.1086 28.2347 29.2161 27.7446L28.7701 27.4769C27.7446 26.8526 27.4764 26.4061 27.4764 25.9149C27.4764 25.1576 28.2795 24.6217 29.5727 24.6217C29.9292 24.6217 30.2416 24.6664 30.4646 24.7111C30.6429 24.7558 30.7323 24.7558 30.8217 24.7558C30.9111 24.7558 30.9111 24.7558 30.9111 24.8005C30.9111 24.8452 30.8664 25.0682 30.8664 25.5577C30.8664 25.6472 30.8664 25.6919 30.8217 25.6919C30.7323 25.6919 30.7323 25.6919 30.7323 25.6024C30.7323 25.5577 30.6429 25.3348 30.5987 25.2465C30.554 25.2017 30.2863 24.8893 29.3497 24.8893C28.6807 24.8893 28.1453 25.2017 28.1453 25.6919C28.1453 26.1384 28.413 26.3608 29.3497 26.8956L29.6174 27.0745C30.8217 27.7434 31.0894 28.1453 31.0894 28.7248C31.0894 29.0372 30.9111 29.572 30.2416 29.9286C29.7957 30.1521 29.2603 30.1963 28.7254 30.1963C28.2795 30.1974 27.8335 30.1532 27.3875 30.0191ZM35.8179 28.0564C35.8179 28.7253 35.8179 29.3049 35.8626 29.6173C35.9073 29.7961 35.952 29.9744 36.2644 29.9744C36.398 30.0191 36.5768 30.0191 36.6657 30.0191C36.7551 30.0191 36.7551 30.0638 36.7551 30.0638C36.7551 30.1085 36.7104 30.1085 36.6215 30.1085H34.4359C34.3017 30.1085 34.2576 30.1085 34.2576 30.0638C34.2576 30.0638 34.3023 30.0191 34.347 30.0191C34.4364 30.0191 34.5253 30.0191 34.6147 29.9744C34.8377 29.9744 34.8824 29.7967 34.9271 29.6173C34.9718 29.3049 34.9718 28.7253 34.9718 28.0564V25.0229L33.4998 25.0676C32.8755 25.0676 32.6525 25.1123 32.4743 25.29C32.3848 25.4242 32.3407 25.4689 32.3407 25.5136C32.296 25.5572 32.2513 25.5572 32.2066 25.5572C32.2066 25.5572 32.1619 25.5572 32.1619 25.5136C32.1619 25.4242 32.3848 24.8446 32.3848 24.7552C32.4296 24.7105 32.4296 24.6211 32.4743 24.6211C32.5631 24.6211 32.6525 24.7105 32.9202 24.7105C33.2326 24.7552 33.5892 24.7552 33.7233 24.7552H37.4257C37.7381 24.7552 37.9611 24.7552 38.1394 24.7105C38.273 24.7105 38.3624 24.6658 38.4071 24.6658C38.4518 24.6658 38.4518 24.7105 38.4518 24.7552V25.5577C38.4518 25.6025 38.4071 25.6472 38.3624 25.6472C38.3177 25.6472 38.273 25.6024 38.273 25.5141V25.4247C38.2283 25.247 38.0053 25.0676 37.0686 25.0676L35.8196 25.0229V28.0564H35.8179ZM56.4247 28.0564C56.4247 28.7253 56.4247 29.3049 56.4694 29.6173C56.5141 29.7961 56.5588 29.9744 56.8712 29.9744C57.0053 30.0191 57.2283 30.0191 57.3177 30.0191C57.3613 30.0191 57.3613 30.0638 57.3613 30.0638C57.3613 30.1085 57.3177 30.1085 57.2283 30.1085H55.0432C54.9091 30.1085 54.8644 30.1085 54.8644 30.0638C54.8644 30.0638 54.9091 30.0191 54.9538 30.0191C55.0432 30.0191 55.1762 30.0191 55.2215 29.9744C55.4439 29.9744 55.4892 29.7967 55.5339 29.6173C55.5786 29.3049 55.5786 28.7253 55.5786 28.0564V25.0229L54.106 25.0676C53.4817 25.0676 53.2588 25.1123 53.0799 25.29C52.9916 25.4242 52.9469 25.4689 52.9469 25.5136C52.9022 25.5572 52.8575 25.5572 52.8128 25.5572C52.8128 25.5572 52.7681 25.5572 52.7681 25.5136C52.7681 25.4242 52.9916 24.8446 52.9916 24.7552C53.0363 24.7105 53.0363 24.6211 53.0799 24.6211C53.1693 24.6211 53.2588 24.7105 53.5264 24.7105C53.8388 24.7552 54.1954 24.7552 54.3301 24.7552H58.0314C58.3438 24.7552 58.5673 24.7552 58.7451 24.7105C58.8792 24.7105 58.9686 24.6658 59.0128 24.6658C59.0575 24.6658 59.0575 24.7105 59.0575 24.7552V25.5577C59.0575 25.6025 59.0128 25.6472 58.9692 25.6472C58.9245 25.6472 58.8797 25.6024 58.8797 25.5141V25.4247C58.835 25.247 58.6121 25.0676 57.676 25.0676L56.4264 25.0229V28.0564H56.4247ZM60.9749 26.8079C60.9749 25.6924 60.9749 25.4694 60.9302 25.247C60.9302 25.0235 60.8408 24.8899 60.5284 24.8452H60.1713C60.1266 24.8452 60.0819 24.8005 60.0819 24.8005C60.0819 24.7558 60.1266 24.7558 60.2607 24.7558H63.6496C63.8284 24.7558 64.0067 24.7111 64.0514 24.7111C64.0961 24.7111 64.1408 24.6664 64.1855 24.6664C64.2303 24.6664 64.2303 24.7111 64.2303 24.7558C64.2303 24.8005 64.1855 24.8899 64.1855 25.0682C64.1408 25.1576 64.1408 25.47 64.0961 25.5583C64.0961 25.603 64.0961 25.6477 64.0514 25.6477C64.0067 25.6477 63.962 25.603 63.962 25.5147C63.962 25.47 63.962 25.3806 63.9184 25.2912C63.829 25.1582 63.7396 25.0687 63.2048 25.0235H61.8663C61.8216 25.0235 61.7769 25.0235 61.7769 25.0682V27.0309C61.7769 27.0756 61.8216 27.1203 61.8663 27.1203H63.4272C63.6496 27.0756 63.829 27.0756 63.9184 26.9862C63.962 26.9415 64.0067 26.8968 64.0514 26.8968C64.0514 26.8968 64.0961 26.9415 64.0961 26.9862C64.0961 27.0309 64.0514 27.1203 64.0067 27.388C64.0067 27.5221 63.962 27.7898 63.962 27.8345C63.962 27.8792 63.962 27.9675 63.9184 27.9675C63.8737 27.9675 63.829 27.9228 63.829 27.8792C63.829 27.8345 63.829 27.7451 63.7843 27.6557C63.7396 27.5663 63.6502 27.4333 63.2931 27.4333C63.0254 27.3886 62.0446 27.3886 61.8663 27.3886C61.8216 27.3886 61.7769 27.3886 61.7769 27.4333V29.2613C61.8216 29.7525 61.9546 29.8419 62.9359 29.8419C63.2042 29.8419 63.6496 29.8419 63.9184 29.7972C64.1408 29.7078 64.2744 29.5737 64.3191 29.2613C64.3638 29.173 64.3638 29.173 64.4085 29.173C64.4979 29.173 64.498 29.2166 64.498 29.2613C64.498 29.306 64.4085 29.7972 64.3638 29.975C64.2744 30.1538 64.1861 30.1538 63.829 30.1538C62.3117 30.1538 61.6427 30.1091 61.375 30.1091H60.3937C60.3043 30.1091 60.2607 30.1091 60.2607 30.0644C60.2607 30.0644 60.2607 30.0197 60.3043 30.0197C60.3937 30.0197 60.5278 30.0197 60.6178 29.975C60.8402 29.975 60.8855 29.7972 60.9302 29.6178C60.9749 29.3054 60.9749 28.7259 60.9749 28.057V26.8079ZM71.7245 28.3241C71.7245 27.7446 71.6798 27.6551 71.278 27.5657H70.9209C70.8762 27.5657 70.8315 27.5221 70.8315 27.5221C70.8315 27.4774 70.8762 27.4327 71.0103 27.4327C71.4568 27.4327 72.0811 27.4774 72.1247 27.4774C72.1694 27.4774 72.7948 27.4327 73.106 27.4327C73.1955 27.4327 73.2402 27.4774 73.2402 27.5221L73.1955 27.5657H72.9278C72.6601 27.6104 72.5707 27.7446 72.5707 27.9675C72.5259 28.1911 72.5259 28.4141 72.5259 28.7259V29.5295C72.5259 29.8419 72.5259 29.8419 72.3929 29.8855C71.7687 30.1538 70.8756 30.1979 70.2961 30.1979C69.5377 30.1979 68.1557 30.1543 67.0402 29.4407C66.4607 29.0836 65.88 28.3252 65.88 27.4333C65.88 26.2731 66.6384 25.4706 67.5303 25.114C68.4234 24.7122 69.4047 24.6228 70.162 24.6228C70.7873 24.6228 71.5004 24.7122 71.6793 24.7569C71.9017 24.8016 72.2141 24.8016 72.4818 24.8463C72.5712 24.8463 72.5712 24.8463 72.5712 24.891C72.6159 24.9793 72.5265 25.2034 72.5265 25.916C72.5265 26.0054 72.5265 26.0501 72.4382 26.0501C72.3935 26.0501 72.3935 26.0054 72.3488 25.9607C72.3488 25.8724 72.3041 25.6483 72.17 25.4706C71.9023 25.2029 71.1003 24.891 69.8507 24.891C69.2264 24.891 68.4686 24.9357 67.7103 25.3811C67.1307 25.6935 66.7289 26.3625 66.7289 27.1656C66.7289 28.1916 67.4426 28.9042 67.7997 29.173C68.5569 29.7078 69.45 29.9302 70.3866 29.9302C70.7437 29.9302 71.2339 29.8855 71.501 29.7525C71.6351 29.7078 71.7245 29.6184 71.7245 29.5301V28.3241ZM76.3636 28.0564C76.3636 28.7253 76.3636 29.3049 76.4072 29.6173C76.4519 29.7961 76.4966 29.9744 76.809 29.9744C76.9432 30.0191 77.1661 30.0191 77.2556 30.0191C77.3003 30.0191 77.345 30.0638 77.345 30.0638C77.345 30.1085 77.3003 30.1085 77.1661 30.1085H74.981C74.8916 30.1085 74.8469 30.1085 74.8469 30.0638C74.8469 30.0638 74.8469 30.0191 74.8916 30.0191C74.981 30.0191 75.114 30.0191 75.204 29.9744C75.4275 29.9744 75.4717 29.7967 75.5164 29.6173C75.5611 29.3049 75.5611 28.7253 75.5611 28.0564V26.8079C75.5611 25.6924 75.5611 25.4694 75.5164 25.247C75.5164 25.0235 75.4281 24.8899 75.204 24.8452H74.8916C74.8469 24.8452 74.8022 24.8005 74.8022 24.8005C74.8022 24.7558 74.8469 24.7558 74.981 24.7558H76.9437C77.0331 24.7558 77.0767 24.7558 77.0767 24.8005L77.0331 24.8452H76.7649C76.4972 24.8899 76.4078 25.0229 76.4078 25.247C76.3642 25.4694 76.3642 25.6924 76.3642 26.8079L76.3636 28.0564ZM79.8867 26.8079V25.247C79.842 25.0235 79.7972 24.8899 79.4401 24.8452H79.1277C79.083 24.8452 79.0383 24.8005 79.0383 24.8005C79.0383 24.7558 79.083 24.7558 79.2172 24.7558H82.6072C82.7849 24.7558 82.9196 24.7111 83.0079 24.7111C83.0526 24.7111 83.0973 24.6664 83.142 24.6664C83.1867 24.6664 83.1867 24.7111 83.1867 24.7558C83.1867 24.8005 83.142 24.8899 83.0973 25.0682C83.0973 25.1576 83.0973 25.47 83.0526 25.5583C83.0526 25.603 83.0526 25.6477 83.0079 25.6477C82.9196 25.6477 82.9196 25.603 82.9196 25.5147C82.9196 25.47 82.9196 25.3806 82.8749 25.2912C82.7855 25.1582 82.696 25.0687 82.1612 25.0235H80.7781C80.7781 25.0235 80.7333 25.0235 80.7333 25.0682V27.0309C80.7333 27.0756 80.7333 27.1203 80.7781 27.1203H82.3837C82.6072 27.0756 82.7408 27.0756 82.8302 26.9862C82.9196 26.9415 82.9643 26.8968 82.9643 26.8968C83.0079 26.8968 83.0526 26.9415 83.0526 26.9862C83.0526 27.0309 82.9643 27.1203 82.9643 27.388C82.9196 27.5221 82.9196 27.7898 82.9196 27.8345C82.9196 27.8792 82.9196 27.9675 82.8302 27.9675C82.7855 27.9675 82.7855 27.9228 82.7855 27.8792C82.7855 27.8345 82.7855 27.7451 82.7408 27.6557C82.696 27.5663 82.6077 27.4333 82.2059 27.4333C81.9382 27.3886 80.9574 27.3886 80.8228 27.3886C80.778 27.3886 80.7333 27.3886 80.7333 27.4333V29.2613C80.7781 29.7525 80.9122 29.8419 81.8935 29.8419C82.1612 29.8419 82.5625 29.8419 82.8302 29.7972C83.0979 29.7078 83.1873 29.5737 83.2767 29.2613C83.2767 29.173 83.3203 29.173 83.365 29.173C83.4097 29.173 83.4097 29.2166 83.4097 29.2613C83.4097 29.306 83.365 29.7972 83.2767 29.975C83.232 30.1538 83.1426 30.1538 82.7855 30.1538C81.2693 30.1538 80.6003 30.1091 80.3326 30.1091H79.3502C79.2619 30.1091 79.1724 30.1091 79.1724 30.0644C79.1724 30.0644 79.2172 30.0197 79.2619 30.0197C79.3502 30.0197 79.4843 30.0197 79.5743 29.975C79.752 29.975 79.7967 29.7972 79.842 29.6178C79.8867 29.3054 79.8867 28.7259 79.8867 28.057V26.8079ZM85.3283 30.0191C85.1506 29.9744 85.1506 29.9297 85.1506 29.7514C85.1506 29.3943 85.1953 29.1272 85.1953 28.993C85.24 28.9036 85.24 28.9036 85.2836 28.9036C85.3283 28.9036 85.373 28.9036 85.373 28.9483V29.216C85.5518 29.752 86.1766 29.9297 86.8456 29.9297C87.8269 29.9297 88.2723 29.4396 88.2723 28.993C88.2723 28.5029 88.0046 28.2347 87.1133 27.7446L86.6667 27.4769C85.6407 26.8526 85.4182 26.4061 85.4182 25.9149C85.4182 25.1576 86.1766 24.6217 87.4704 24.6217C87.8275 24.6217 88.1393 24.6664 88.3623 24.7111C88.5411 24.7558 88.63 24.7558 88.7194 24.7558C88.8088 24.7558 88.8088 24.7558 88.8088 24.8005C88.8088 24.8452 88.7641 25.0682 88.7641 25.5577C88.7641 25.6472 88.7641 25.6919 88.7194 25.6919C88.63 25.6919 88.63 25.6919 88.63 25.6024C88.63 25.5577 88.5417 25.3348 88.497 25.2465C88.4523 25.2017 88.1846 24.8893 87.2485 24.8893C86.5784 24.8893 86.0436 25.2017 86.0436 25.6919C86.0436 26.1384 86.3113 26.3608 87.2485 26.8956L87.5162 27.0745C88.72 27.7434 88.9877 28.1453 88.9877 28.7248C88.9877 29.0372 88.81 29.572 88.1404 29.9286C87.6939 30.1521 87.1591 30.1963 86.6231 30.1963C86.1761 30.1974 85.7295 30.1532 85.3283 30.0191ZM53.4806 30.0191C53.3923 30.0191 53.2129 30.0191 53.0788 29.9744C52.8564 29.9297 52.5887 29.8414 52.2316 29.1719C51.6073 28.1011 50.0464 25.157 49.9123 24.8899C49.7782 24.6664 49.7782 24.6217 49.6899 24.6217C49.6452 24.6217 49.6005 24.6664 49.4663 24.9352L47.2365 29.3502C47.0582 29.7073 46.7905 29.9744 46.5228 29.9744C46.3004 29.9744 46.0322 29.885 45.4973 29.4843C44.9172 29.0377 44.2483 28.4135 43.4458 27.6551C44.3383 27.0756 44.6054 26.5408 44.6054 26.0048C44.6054 25.5147 44.2041 25.1576 43.9364 25.0235C43.4011 24.7558 42.7321 24.7558 42.1079 24.7558H39.8333C39.7439 24.7558 39.6997 24.7558 39.6997 24.8005C39.6997 24.8005 39.6997 24.8452 39.7444 24.8452H40.101C40.4134 24.8899 40.5028 25.0229 40.5028 25.247C40.5475 25.4694 40.5475 25.6924 40.5475 26.8079V28.0564C40.5475 28.7253 40.5475 29.3049 40.5028 29.6173C40.4581 29.7961 40.4134 29.9744 40.1904 29.9744C40.101 30.0191 40.0121 30.0191 39.9227 30.0191C39.8333 30.0191 39.8333 30.0638 39.8333 30.0638C39.8333 30.1085 39.878 30.1085 39.9669 30.1085H42.1526C42.2414 30.1085 42.2861 30.1085 42.2861 30.0638C42.2861 30.0638 42.2861 30.0191 42.1973 30.0191C42.1079 30.0191 41.9296 30.0191 41.7513 29.9744C41.4836 29.9744 41.3942 29.7967 41.3942 29.6173C41.3495 29.3049 41.3495 28.7253 41.3495 28.0564V27.8787C41.3495 27.834 41.3495 27.834 41.3942 27.834H42.6432C42.688 27.834 42.7327 27.8787 42.7327 27.8787C42.9556 28.0564 43.4016 28.5465 43.8481 28.9483C44.383 29.4843 44.7401 29.8414 45.1861 29.9744C45.409 30.1085 45.6767 30.1085 46.2116 30.1085H48.0854C48.1743 30.1085 48.2637 30.1085 48.2637 30.0638C48.2637 30.0191 48.219 30.0191 48.1743 30.0191H48.0407C47.9071 30.0191 47.6836 29.9744 47.6836 29.7967C47.6836 29.7073 47.7283 29.529 47.8177 29.3502L48.3978 28.057C48.4425 28.057 48.4425 28.0122 48.5314 28.0122H50.6277C50.6724 28.0122 50.7171 28.057 50.7171 28.057L51.6537 29.7967C51.6984 29.9297 51.6537 29.9744 51.609 30.0191C51.5643 30.0191 51.5196 30.0191 51.5196 30.0638C51.5196 30.1085 51.6537 30.1085 51.832 30.1085H53.394C53.4823 30.1085 53.5717 30.1085 53.5717 30.0638C53.5717 30.0191 53.5253 30.0191 53.4806 30.0191ZM42.4638 27.6104C42.0179 27.6104 41.5719 27.5657 41.3931 27.5221C41.3484 27.4774 41.3484 27.4774 41.3484 27.4327V25.0687C41.3484 25.024 41.3484 25.024 41.3931 25.024C41.5266 24.9793 41.7943 24.9793 42.062 24.9793C43.1328 24.9793 43.8018 25.5153 43.8018 26.4072C43.8018 26.942 43.5341 27.2991 43.177 27.478C42.9545 27.6104 42.6868 27.6104 42.4638 27.6104ZM50.4924 27.7446H48.6191C48.5744 27.7446 48.5744 27.7446 48.5744 27.6998L49.4658 25.7818C49.5105 25.6924 49.5552 25.6924 49.5999 25.7818L50.5366 27.6998C50.5818 27.7446 50.5818 27.7446 50.4924 27.7446Z" fill="#858585"/>
</svg>
