<svg width="52" height="40" viewBox="0 0 52 40" fill="none" xmlns="http://www.w3.org/2000/svg">
<path d="M50.9649 39.1854V39.2868H51.061C51.0792 39.2868 51.0974 39.2817 51.113 39.2741C51.126 39.2665 51.1338 39.2513 51.1338 39.2361C51.1338 39.2209 51.126 39.2056 51.113 39.198C51.0974 39.1879 51.0792 39.1854 51.061 39.1854H50.9649ZM51.0636 39.1144C51.1052 39.1119 51.1468 39.1245 51.1806 39.1473C51.2092 39.1702 51.2222 39.2031 51.2222 39.2361C51.2222 39.2665 51.2118 39.2944 51.1884 39.3146C51.1624 39.3374 51.1286 39.3501 51.0948 39.3527L51.2248 39.4971H51.126L51.0064 39.3527H50.9674V39.4971H50.8843V39.1144H51.0636ZM51.0376 39.6289C51.0818 39.6289 51.126 39.6213 51.165 39.6036C51.204 39.5884 51.2378 39.563 51.269 39.5352C51.3002 39.5073 51.3236 39.4718 51.3392 39.4338C51.373 39.3527 51.373 39.2639 51.3392 39.1828C51.3236 39.1448 51.2976 39.1119 51.269 39.0814C51.2378 39.0536 51.204 39.0282 51.165 39.013C51.1234 38.9978 51.0818 38.9877 51.0376 38.9902C50.9934 38.9902 50.9493 38.9978 50.9077 39.013C50.8687 39.0282 50.8323 39.0536 50.8011 39.0814C50.7075 39.1752 50.6789 39.3146 50.7309 39.4363C50.7465 39.4743 50.7699 39.5098 50.8011 39.5377C50.8323 39.5681 50.8687 39.5909 50.9077 39.6061C50.9467 39.6239 50.9908 39.6315 51.0376 39.6289ZM51.0376 38.8964C51.152 38.8964 51.2612 38.9395 51.3444 39.0181C51.3834 39.0561 51.4146 39.0992 51.4353 39.1499C51.4795 39.2513 51.4795 39.3679 51.4353 39.4718C51.4146 39.5199 51.3834 39.5656 51.3444 39.6036C51.3054 39.6416 51.2586 39.672 51.2066 39.6923C51.1546 39.7151 51.0948 39.7253 51.0376 39.7253C50.9778 39.7253 50.9207 39.7151 50.8661 39.6923C50.8141 39.672 50.7673 39.6416 50.7283 39.6036C50.6893 39.5656 50.6581 39.5174 50.6373 39.4667C50.5931 39.3653 50.5931 39.2487 50.6373 39.1448C50.6581 39.0967 50.6893 39.051 50.7283 39.013C50.7673 38.975 50.8141 38.9446 50.8661 38.9243C50.9207 38.9015 50.9778 38.8913 51.0376 38.8913M11.2349 37.4161C11.2349 36.6862 11.7262 36.0829 12.5294 36.0829C13.2963 36.0829 13.8136 36.6583 13.8136 37.4161C13.8136 38.174 13.2963 38.7494 12.5294 38.7494C11.7262 38.7494 11.2349 38.1487 11.2349 37.4161ZM14.687 37.4161V35.3352H13.759V35.8421C13.4652 35.467 13.0181 35.2312 12.4124 35.2312C11.2167 35.2312 10.2783 36.1463 10.2783 37.4161C10.2783 38.686 11.2167 39.6011 12.4124 39.6011C13.0181 39.6011 13.4652 39.3653 13.759 38.9902V39.4946H14.687V37.4161ZM46.0363 37.4161C46.0363 36.6862 46.5276 36.0829 47.3308 36.0829C48.1003 36.0829 48.6149 36.6583 48.6149 37.4161C48.6149 38.174 48.0977 38.7494 47.3308 38.7494C46.5276 38.7494 46.0363 38.1487 46.0363 37.4161ZM49.491 37.4161V33.6648H48.563V35.8421C48.2692 35.467 47.8221 35.2312 47.2164 35.2312C46.0207 35.2312 45.0823 36.1463 45.0823 37.4161C45.0823 38.686 46.0207 39.6011 47.2164 39.6011C47.8221 39.6011 48.2692 39.3653 48.563 38.9902V39.4946H49.491V37.4161ZM26.2025 36.0423C26.8004 36.0423 27.1851 36.4073 27.2813 37.0511H25.0666C25.1679 36.4504 25.5423 36.0423 26.2025 36.0423ZM26.2207 35.2312C24.9704 35.2312 24.0944 36.1184 24.0944 37.4161C24.0944 38.7393 25.0042 39.6011 26.2805 39.6011C26.9226 39.6011 27.5126 39.4439 28.0299 39.0181L27.575 38.3489C27.2163 38.6277 26.7614 38.7849 26.3325 38.7849C25.7346 38.7849 25.1913 38.5137 25.0562 37.7659H28.2249C28.2327 37.6544 28.2431 37.5403 28.2431 37.4187C28.2379 36.1184 27.4139 35.2312 26.2207 35.2312ZM37.4217 37.4136C37.4217 36.6836 37.913 36.0804 38.7163 36.0804C39.4831 36.0804 40.0004 36.6557 40.0004 37.4136C40.0004 38.1715 39.4831 38.7469 38.7163 38.7469C37.913 38.7469 37.4217 38.1461 37.4217 37.4136ZM40.8764 37.4136V35.3352H39.9484V35.8421C39.6521 35.467 39.2076 35.2312 38.6019 35.2312C37.4061 35.2312 36.4677 36.1463 36.4677 37.4161C36.4677 38.686 37.4061 39.6011 38.6019 39.6011C39.2076 39.6011 39.6547 39.3653 39.9484 38.9902V39.4946H40.8764V37.4136ZM32.1812 37.4136C32.1812 38.6759 33.0833 39.5985 34.4584 39.5985C35.1004 39.5985 35.5293 39.4591 35.992 39.1017L35.5475 38.3717C35.1992 38.6151 34.8327 38.7469 34.4298 38.7469C33.6889 38.7393 33.1456 38.2171 33.1456 37.4136C33.1456 36.6101 33.6889 36.0905 34.4298 36.0804C34.8327 36.0804 35.1992 36.2122 35.5475 36.4555L35.992 35.7255C35.5293 35.3681 35.1004 35.2287 34.4584 35.2287C33.0833 35.2312 32.1812 36.1513 32.1812 37.4136ZM44.1413 35.2312C43.6058 35.2312 43.2575 35.4746 43.0157 35.8421V35.3352H42.0955V39.4946H43.0235V37.1627C43.0235 36.4732 43.3277 36.093 43.9333 36.093C44.1309 36.0905 44.3285 36.126 44.513 36.197L44.799 35.3453C44.5988 35.2642 44.3311 35.2312 44.1413 35.2312ZM19.275 35.6672C18.8279 35.3808 18.2144 35.2312 17.536 35.2312C16.4546 35.2312 15.7605 35.7356 15.7605 36.562C15.7605 37.2413 16.2778 37.6595 17.2318 37.7887L17.6711 37.8496C18.1806 37.9206 18.4198 38.0498 18.4198 38.2855C18.4198 38.6075 18.0818 38.79 17.4476 38.79C16.8055 38.79 16.3402 38.5897 16.0283 38.354L15.5916 39.0586C16.1011 39.4236 16.7431 39.5985 17.4398 39.5985C18.6719 39.5985 19.3868 39.0333 19.3868 38.2399C19.3868 37.5099 18.8253 37.1272 17.8973 36.9954L17.4606 36.9346C17.0577 36.8839 16.7379 36.8053 16.7379 36.5265C16.7379 36.2223 17.0421 36.0398 17.549 36.0398C18.0948 36.0398 18.6199 36.24 18.8799 36.3972L19.275 35.6672ZM31.2454 35.2312C30.71 35.2312 30.3616 35.4746 30.1225 35.8421V35.3352H29.2023V39.4946H30.1303V37.1627C30.1303 36.4732 30.4344 36.093 31.0401 36.093C31.2376 36.0905 31.4352 36.126 31.6198 36.197L31.9057 35.3453C31.7003 35.2642 31.4326 35.2312 31.2454 35.2312ZM23.3275 35.3352H21.8095V34.0729H20.8736V35.3352H20.008V36.1615H20.8736V38.06C20.8736 39.0257 21.2584 39.6011 22.3553 39.6011C22.7582 39.6011 23.221 39.4794 23.5173 39.2791L23.2495 38.5035C22.9714 38.6607 22.6699 38.7393 22.4281 38.7393C21.9654 38.7393 21.812 38.4604 21.812 38.0422V36.1615H23.3301L23.3275 35.3352ZM9.45948 39.4971V36.8864C9.45948 35.9029 8.81741 35.2414 7.78023 35.2338C7.23435 35.2262 6.67287 35.3909 6.28035 35.9739C5.98661 35.5126 5.52131 35.2338 4.87145 35.2338C4.41655 35.2338 3.96944 35.3656 3.62112 35.8522V35.3352H2.69312V39.4946H3.62892V37.188C3.62892 36.4656 4.03963 36.0829 4.67389 36.0829C5.28996 36.0829 5.6019 36.4732 5.6019 37.1804V39.4946H6.5403V37.188C6.5403 36.4656 6.96921 36.0829 7.58527 36.0829C8.21954 36.0829 8.52108 36.4732 8.52108 37.1804V39.4946L9.45948 39.4971Z" fill="#858585"/>
<path d="M51.4928 25.6579V25.0496H51.3317L51.1445 25.4678L50.9573 25.0496H50.7936V25.6579H50.908V25.1991L51.0847 25.5945H51.2043L51.381 25.1991V25.6579H51.4928ZM50.4634 25.6579V25.1535H50.6714V25.0521H50.1411V25.1535H50.3491V25.6579H50.4634Z" fill="#858585"/>
<path d="M19.8598 15.9498C19.8598 10.9514 22.2591 6.50044 25.9971 3.63116C23.1689 1.45639 19.67 0.27522 16.0672 0.28029C7.19267 0.28029 0 7.29633 0 15.9498C0 24.6032 7.19267 31.6193 16.0672 31.6193C19.67 31.6244 23.1689 30.4432 25.9971 28.2684C22.2591 25.3991 19.8598 20.9457 19.8598 15.9498Z" fill="#858585"/>
<path d="M51.9941 15.9498C51.9941 24.6032 44.8015 31.6193 35.927 31.6193C32.3241 31.6244 28.8253 30.4432 25.9971 28.2684C29.7351 25.3991 32.1344 20.9482 32.1344 15.9498C32.1344 10.9514 29.7351 6.50044 25.9971 3.63116C28.8253 1.45639 32.3267 0.27522 35.9296 0.28029C44.8015 0.28029 51.9941 7.29633 51.9941 15.9498Z" fill="#858585"/>
</svg>
