<svg width="90" height="63" viewBox="0 0 90 63" fill="none" xmlns="http://www.w3.org/2000/svg">
<path d="M19.1929 38.4744L19.6739 39.1018V43.1079H20.9246V38.4744H19.1929Z" fill="#858585"/>
<path d="M64.4575 38.5227L64.9385 39.1502V43.1562H66.1411V38.5227H64.4575Z" fill="#858585"/>
<path d="M26.6008 38.5227L27.13 39.1984V43.2045H28.3325V38.5227H26.6008Z" fill="#858585"/>
<path d="M21.8386 39.7293L22.0791 38.4744H25.9273L26.1198 39.681L25.4463 39.0053H24.5324V43.1561H23.3298V38.957H22.6083L21.8386 39.7293Z" fill="#858585"/>
<mask id="mask0_1_152" style="mask-type:luminance" maskUnits="userSpaceOnUse" x="0" y="0" width="90" height="63">
<path d="M90 0.778809H0V62.2211H90V0.778809Z" fill="white"/>
</mask>
<g mask="url(#mask0_1_152)">
<path d="M32.6135 39.7774L32.5173 38.6673C31.7957 38.5708 31.1704 38.2812 30.4489 38.6191C29.7754 38.9087 29.0539 40.1636 30.0159 40.8393C30.497 41.2254 32.5654 42.0459 31.0261 42.7217C30.4008 42.8182 29.8235 42.6734 29.4868 41.9494V42.6251C29.9678 42.9147 30.4489 43.156 31.0261 43.156C32.373 43.2526 32.9983 42.0459 32.5654 41.2254C32.0844 40.6462 31.5552 40.4532 30.9299 40.0188C30.4489 39.7292 30.5451 38.9087 30.9299 38.8121C31.2666 38.6673 31.7476 38.8121 32.0363 39.0535L32.6135 39.7774Z" fill="#858585"/>
</g>
<mask id="mask1_1_152" style="mask-type:luminance" maskUnits="userSpaceOnUse" x="0" y="0" width="90" height="63">
<path d="M90 0.778809H0V62.2211H90V0.778809Z" fill="white"/>
</mask>
<g mask="url(#mask1_1_152)">
<path d="M33.3833 38.426L33.9605 39.1017V43.1078H35.2112V40.9841H36.9429V43.1078H38.2898V38.4743H36.9429V40.2601H35.2112V38.426H33.3833Z" fill="#858585"/>
</g>
<mask id="mask2_1_152" style="mask-type:luminance" maskUnits="userSpaceOnUse" x="0" y="0" width="90" height="63">
<path d="M90 0.778809H0V62.2211H90V0.778809Z" fill="white"/>
</mask>
<g mask="url(#mask2_1_152)">
<path d="M47.6697 43.1561L48.5355 39.3432L48.1507 38.5709H49.5938L50.652 40.7429L51.9027 38.4744H53.0091L53.7787 43.1561H52.528L51.9508 39.7293L50.3634 42.77L48.776 39.7775L48.0545 43.1561H47.6697Z" fill="#858585"/>
</g>
<mask id="mask3_1_152" style="mask-type:luminance" maskUnits="userSpaceOnUse" x="0" y="0" width="90" height="63">
<path d="M90 0.778809H0V62.2211H90V0.778809Z" fill="white"/>
</mask>
<g mask="url(#mask3_1_152)">
<path d="M54.4521 38.4744L54.9332 39.0053V43.1561H58.108V42.2391L57.5307 42.6252H56.1357V40.7911H57.675V40.2119H56.1357V39.0053H57.8193V38.4744H54.4521Z" fill="#858585"/>
</g>
<mask id="mask4_1_152" style="mask-type:luminance" maskUnits="userSpaceOnUse" x="0" y="0" width="90" height="63">
<path d="M90 0.778809H0V62.2211H90V0.778809Z" fill="white"/>
</mask>
<g mask="url(#mask4_1_152)">
<path d="M71.2881 39.9224L71.1919 38.8123C69.0754 37.8953 67.0551 39.1019 67.488 41.5152C67.6323 42.2874 68.7868 43.2045 69.7969 43.1562C70.4222 43.2045 70.759 43.0114 71.24 42.8666V42.0461C70.5666 42.577 69.8931 42.9632 68.9792 41.9979C68.0171 40.7912 68.6424 38.9088 70.4222 39.0536C70.759 39.2467 70.9514 39.5846 71.2881 39.9224Z" fill="#858585"/>
</g>
<mask id="mask5_1_152" style="mask-type:luminance" maskUnits="userSpaceOnUse" x="0" y="0" width="90" height="63">
<path d="M90 0.778809H0V62.2211H90V0.778809Z" fill="white"/>
</mask>
<g mask="url(#mask5_1_152)">
<path d="M77.1565 38.4744L77.6375 39.3432V43.1561H78.1667V40.0189L80.8604 43.1561H81.5338V38.4744H80.9566V41.5151L78.4072 38.4744H77.1565Z" fill="#858585"/>
</g>
<mask id="mask6_1_152" style="mask-type:luminance" maskUnits="userSpaceOnUse" x="0" y="0" width="90" height="63">
<path d="M90 0.778809H0V62.2211H90V0.778809Z" fill="white"/>
</mask>
<g mask="url(#mask6_1_152)">
<path d="M11.4004 37.7505C12.8435 37.9918 12.7473 39.6811 11.4966 40.1155C13.2283 40.6464 13.2283 42.6736 11.3042 43.1563H8.46613V38.4745L7.98511 37.7505H11.4004ZM9.6206 38.1366V40.0672C10.5826 40.0672 11.1118 39.9224 11.1599 39.1019C11.2561 38.4262 10.6789 37.9918 9.6206 38.1366ZM9.6206 40.5499V42.5771C10.7751 42.5771 11.3523 42.5771 11.4004 41.5152C11.4966 40.5499 10.7751 40.4051 9.6206 40.5499Z" fill="#858585"/>
</g>
<mask id="mask7_1_152" style="mask-type:luminance" maskUnits="userSpaceOnUse" x="0" y="0" width="90" height="63">
<path d="M90 0.778809H0V62.2211H90V0.778809Z" fill="white"/>
</mask>
<g mask="url(#mask7_1_152)">
<path d="M16.3549 38.5227C18.1347 38.5227 18.0385 40.5981 16.4992 40.936L18.76 43.1562H17.1245L15.1042 41.2256V43.1562H13.9498V39.1502L13.5168 38.5227H16.3549ZM15.1523 38.7158V40.4533C15.9701 40.4533 16.4511 40.3085 16.4992 39.5846C16.5954 38.9088 16.1144 38.6675 15.1523 38.7158Z" fill="#858585"/>
</g>
<mask id="mask8_1_152" style="mask-type:luminance" maskUnits="userSpaceOnUse" x="0" y="0" width="90" height="63">
<path d="M90 0.778809H0V62.2211H90V0.778809Z" fill="white"/>
</mask>
<g mask="url(#mask8_1_152)">
<path d="M61.6195 38.5227C63.3031 38.5227 63.2069 40.4533 61.7638 40.7912L64.2171 43.1562H62.5335L60.417 41.0325V43.1562H59.3587V39.1019L58.9258 38.5227H61.6195ZM60.4651 38.9088V40.6464C61.2347 40.6464 61.7157 40.5499 61.7638 39.8259C61.8119 39.1502 61.3309 38.764 60.4651 38.9088Z" fill="#858585"/>
</g>
<mask id="mask9_1_152" style="mask-type:luminance" maskUnits="userSpaceOnUse" x="0" y="0" width="90" height="63">
<path d="M90 0.778809H0V62.2211H90V0.778809Z" fill="white"/>
</mask>
<g mask="url(#mask9_1_152)">
<path d="M41.6089 43.1561L43.8216 38.1847L43.2925 37.4607H44.928L47.3331 43.1561H45.9862L45.1685 41.2254H43.1963L42.3785 43.1561H41.6089ZM45.0242 40.8393L44.2545 38.6191L43.3887 40.8393H45.0242Z" fill="#858585"/>
</g>
<mask id="mask10_1_152" style="mask-type:luminance" maskUnits="userSpaceOnUse" x="0" y="0" width="90" height="63">
<path d="M90 0.778809H0V62.2211H90V0.778809Z" fill="white"/>
</mask>
<g mask="url(#mask10_1_152)">
<path d="M71.9614 43.1562L73.7893 39.1019L73.3564 38.5227H74.7033L76.6274 43.1562H75.521L74.8957 41.6117H73.2121L72.5868 43.1562H71.9614ZM74.8476 41.2256L74.1741 39.4398L73.4526 41.2256H74.8476Z" fill="#858585"/>
</g>
<mask id="mask11_1_152" style="mask-type:luminance" maskUnits="userSpaceOnUse" x="0" y="0" width="90" height="63">
<path d="M90 0.778809H0V62.2211H90V0.778809Z" fill="white"/>
</mask>
<g mask="url(#mask11_1_152)">
<path d="M26.6489 46.9692L26.8894 45.666H31.5073L31.6516 46.9209L31.0263 46.2452H29.7275V51.0235H28.573V46.1969H27.3705L26.6489 46.9692Z" fill="#858585"/>
</g>
<mask id="mask12_1_152" style="mask-type:luminance" maskUnits="userSpaceOnUse" x="0" y="0" width="90" height="63">
<path d="M90 0.778809H0V62.2211H90V0.778809Z" fill="white"/>
</mask>
<g mask="url(#mask12_1_152)">
<path d="M51.8546 47.8862L51.8065 46.7761C49.69 45.8108 47.6697 47.0657 48.0545 49.479C48.2469 50.2512 49.4014 51.1683 50.4115 51.0717C51.0369 51.12 51.3255 50.9752 51.8065 50.8304V50.0099C51.1812 50.5408 50.5077 50.927 49.5938 49.9134C48.6317 48.755 49.209 46.8244 51.0369 47.0174C51.4217 47.2105 51.6141 47.5966 51.8546 47.8862Z" fill="#858585"/>
</g>
<mask id="mask13_1_152" style="mask-type:luminance" maskUnits="userSpaceOnUse" x="0" y="0" width="90" height="63">
<path d="M90 0.778809H0V62.2211H90V0.778809Z" fill="white"/>
</mask>
<g mask="url(#mask13_1_152)">
<path d="M56.713 47.9343L56.6649 46.776C54.5484 45.8106 52.5281 47.0656 52.9129 49.4306C53.1053 50.2028 54.2117 51.1199 55.2699 51.0233C55.9434 51.0716 56.1839 50.9268 56.6649 50.782V49.9615C55.9915 50.4924 55.3661 50.8785 54.4522 49.865C53.442 48.7066 54.0674 46.776 55.8953 46.969C56.232 47.2586 56.4244 47.6447 56.713 47.9343Z" fill="#858585"/>
</g>
<mask id="mask14_1_152" style="mask-type:luminance" maskUnits="userSpaceOnUse" x="0" y="0" width="90" height="63">
<path d="M90 0.778809H0V62.2211H90V0.778809Z" fill="white"/>
</mask>
<g mask="url(#mask14_1_152)">
<path d="M40.6467 46.5347C42.0417 46.7277 41.9455 48.1274 40.7429 48.4653C42.4265 48.8997 42.3784 50.7821 40.5986 50.9751H37.8568V47.1139L37.3757 46.5347H40.6467ZM39.0112 46.8725V48.5136C39.9252 48.5136 40.4543 48.417 40.5024 47.7413C40.5505 47.0656 40.0214 46.7277 39.0112 46.8725ZM39.0112 48.8514V50.589C40.1176 50.589 40.6948 50.589 40.6948 49.7202C40.791 48.8997 40.0695 48.7549 39.0112 48.8514Z" fill="#858585"/>
</g>
<mask id="mask15_1_152" style="mask-type:luminance" maskUnits="userSpaceOnUse" x="0" y="0" width="90" height="63">
<path d="M90 0.778809H0V62.2211H90V0.778809Z" fill="white"/>
</mask>
<g mask="url(#mask15_1_152)">
<path d="M42.6189 50.9753L44.3506 47.0658L43.9177 46.4866H45.3607L47.1886 51.0236L46.0342 50.9753L45.5532 49.8652H43.6772L43.148 50.9753H42.6189ZM45.4088 49.3343L44.6873 47.4036L43.9177 49.3343H45.4088Z" fill="#858585"/>
</g>
<mask id="mask16_1_152" style="mask-type:luminance" maskUnits="userSpaceOnUse" x="0" y="0" width="90" height="63">
<path d="M90 0.778809H0V62.2211H90V0.778809Z" fill="white"/>
</mask>
<g mask="url(#mask16_1_152)">
<path d="M34.2972 46.4382C35.6922 46.4382 36.8467 47.4518 36.8467 48.7067C36.8467 49.9616 35.6922 50.9752 34.2972 50.9752C32.9023 50.9752 31.7959 49.9616 31.7959 48.7067C31.7959 47.4518 32.9023 46.4382 34.2972 46.4382ZM32.9985 48.755C32.9985 49.8651 33.5757 50.6856 34.2972 50.6856C35.0188 50.6856 35.596 49.8168 35.596 48.755C35.596 47.6931 35.0188 46.8726 34.2972 46.8726C33.6238 46.8726 32.9985 47.7414 32.9985 48.755Z" fill="#858585"/>
</g>
<mask id="mask17_1_152" style="mask-type:luminance" maskUnits="userSpaceOnUse" x="0" y="0" width="90" height="63">
<path d="M90 0.778809H0V62.2211H90V0.778809Z" fill="white"/>
</mask>
<g mask="url(#mask17_1_152)">
<path d="M60.4169 46.4382C61.8118 46.4382 62.9182 47.4518 62.9182 48.7067C62.9182 49.9616 61.8118 50.9752 60.4169 50.9752C59.0219 50.9752 57.8674 49.9616 57.8674 48.7067C57.8674 47.4518 59.0219 46.4382 60.4169 46.4382ZM59.1181 48.755C59.1181 49.8651 59.6953 50.6856 60.4169 50.6856C61.0903 50.6856 61.7156 49.8168 61.7156 48.755C61.7156 47.6931 61.1384 46.8726 60.4169 46.8726C59.6472 46.8726 59.1181 47.7414 59.1181 48.755Z" fill="#858585"/>
</g>
<mask id="mask18_1_152" style="mask-type:luminance" maskUnits="userSpaceOnUse" x="0" y="0" width="90" height="63">
<path d="M90 0.778809H0V62.2211H90V0.778809Z" fill="white"/>
</mask>
<g mask="url(#mask18_1_152)">
<path d="M37.1834 34.3717C30.7857 34.3717 24.8691 28.0006 23.3298 20.809C29.0059 20.4712 35.9808 22.6431 39.2518 25.9252C39.0113 20.2781 41.3683 14.3414 44.7355 10.9146C48.8723 14.6793 50.3635 21.8709 50.2673 25.8287C54.9814 22.257 60.0321 20.9056 66.1412 21.1469C64.5057 28.4833 58.7815 34.5648 52.0952 34.5165L57.146 31.7654L50.7002 33.7443L60.0802 25.6356L48.9204 33.1168L51.6623 27.4214L47.3811 32.972L48.2951 27.0836L45.5051 32.8272L44.9279 15.7411L43.9659 32.6824L41.2721 26.987L42.3785 32.8272L38.0011 27.6628L40.5987 33.1651L29.2946 25.4908L38.9151 33.5512L32.6617 31.4275L37.1834 34.3717Z" fill="#858585"/>
</g>
</svg>
