<svg width="84" height="25" viewBox="0 0 84 25" fill="none" xmlns="http://www.w3.org/2000/svg">
<path d="M6.83655 6.32281H0V0.0671387H21.2022V6.32281H14.3657V24.4866H6.83655V6.32281Z" fill="#858585"/>
<path d="M22.3865 0.0671387H42.9855V6.32281H29.9156V9.36128H42.9855V15.1701H29.9156V18.2086H42.9855V24.4642H22.3865V0.0671387Z" fill="#858585"/>
<path d="M44.2366 0.0671387H56.5915C64.7239 0.0671387 67.606 6.09939 67.606 12.2434C67.606 19.7278 63.6292 24.4866 55.117 24.4866H44.2366V0.0671387ZM51.7657 18.2309H54.7148C59.4066 18.2309 60.0992 14.4328 60.0992 12.1316C60.0992 10.5901 59.6076 6.32281 54.1786 6.32281H51.7881V18.2309H51.7657Z" fill="#858585"/>
<path d="M78.4192 15.0806L76.118 11.2825L73.8839 15.0806H68.3655L73.5934 7.37275L68.5442 0H74.0626L76.0957 3.64169L78.1958 0H83.7142L78.665 7.37275L83.8929 15.0806H78.4192Z" fill="#858585"/>
</svg>
