<svg width="95" height="32" viewBox="0 0 95 32" fill="none" xmlns="http://www.w3.org/2000/svg">
<path d="M14.7144 14.1696L21.1472 1.70718C21.2174 1.46468 21.1748 1.20127 21.0302 0.995006C20.9573 0.896053 20.8664 0.812431 20.7618 0.748321C20.653 0.69118 20.5333 0.656338 20.4107 0.64937H17.9205C17.7512 0.634039 17.5805 0.680031 17.4428 0.78177C17.3051 0.887691 17.2143 1.04378 17.1909 1.218L10.5557 14.1933L19.0259 30.8257C19.0589 30.9901 19.1553 31.1351 19.2943 31.2298C19.4306 31.3274 19.5972 31.3692 19.7637 31.3483H22.2595C22.3655 31.3497 22.4701 31.3288 22.5679 31.2898C22.6629 31.2466 22.7482 31.1852 22.8198 31.11C22.9533 30.9608 23.029 30.7685 23.0304 30.5678C22.9987 30.4494 14.7144 14.1696 14.7144 14.1696Z" fill="#858585"/>
<path d="M3.18896 14.2701L0.0148513 20.7995C-0.00495045 20.9062 -0.00495045 21.0168 0.0148513 21.1235C0.0369827 21.2354 0.0765863 21.3421 0.131332 21.4387C0.193067 21.5289 0.269945 21.6052 0.35847 21.6636C0.45049 21.717 0.551829 21.7475 0.655497 21.7539H2.76147C2.90591 21.7704 3.05151 21.7297 3.17149 21.6382C3.29379 21.5366 3.37067 21.3841 3.38465 21.2189L6.71717 14.2243L3.64207 7.84487C3.61994 7.70254 3.55471 7.57292 3.45687 7.47634C3.34155 7.38738 3.20061 7.34926 3.05967 7.36832H0.900107C0.810417 7.36705 0.721892 7.38484 0.63919 7.42169C0.558818 7.46236 0.485435 7.52082 0.426029 7.59325C0.313043 7.72923 0.248978 7.9046 0.247814 8.0876C0.247814 8.18926 3.18896 14.2701 3.18896 14.2701Z" fill="#858585"/>
<path d="M10.5557 6.08388L8.37636 1.17955C8.30495 0.841074 8.02545 0.614959 7.72256 0.65007H5.48662C5.39181 0.651475 5.297 0.673946 5.20958 0.71608C5.12586 0.761022 5.05075 0.822817 4.98673 0.897252C4.86114 1.05595 4.79342 1.26381 4.79835 1.47729C4.79835 1.55173 7.03553 6.501 8.7285 10.2424L10.5557 6.08388Z" fill="#858585"/>
<path d="M8.68875 18.8789L4.81375 26.56C4.79288 26.6718 4.79288 26.7861 4.81375 26.8979C4.83584 27.011 4.88125 27.1177 4.94385 27.2117C5.00891 27.3044 5.0936 27.3807 5.19057 27.4366C5.28876 27.4861 5.39555 27.5115 5.50356 27.5128H7.73135C7.88478 27.5268 8.03698 27.481 8.1585 27.3858C8.28001 27.2917 8.36102 27.152 8.38312 26.9957L10.5557 22.5962L8.68875 18.8789Z" fill="#858585"/>
<path d="M32.7699 14.5727L36.4646 24.6332H34.9844C34.8064 24.6496 34.6271 24.6018 34.4795 24.4968C34.324 24.4027 34.2001 24.2621 34.121 24.093L31.7049 17.2877L29.0765 24.636H26.9227L30.6161 14.5754L26.8687 4.48486H28.2158C29.1648 4.48486 29.265 5.09745 29.265 5.09745L31.6759 11.8577L34.2805 4.48486H36.458L32.7699 14.5727Z" fill="#858585"/>
<path d="M50.8586 6.48265V24.6363H48.9395V5.44434H49.894C50.1553 5.44434 50.4052 5.55233 50.5899 5.7436C50.679 5.84119 50.7494 5.95569 50.7971 6.0819C50.8385 6.21201 50.8586 6.34733 50.8586 6.48265Z" fill="#858585"/>
<path d="M63.3337 9.63498C63.3178 8.49208 63.7532 7.38701 64.5473 6.55593C65.3256 5.67918 66.9586 5.44434 68.1419 5.44434C69.3252 5.44434 70.9055 5.68309 71.7141 6.55593C72.5043 7.38962 72.9396 8.49208 72.929 9.63498V20.4573C72.9369 21.5989 72.5016 22.7014 71.7141 23.5364C70.9358 24.3988 69.2948 24.6363 68.1419 24.6363C66.989 24.6363 65.3955 24.3988 64.5789 23.5364C63.7822 22.7066 63.3442 21.6016 63.3561 20.4573L63.3337 9.63498ZM65.2952 20.4573C65.2807 21.0653 65.5129 21.6524 65.9416 22.0882C66.3769 22.5422 67.4968 22.5735 68.1208 22.5735C68.7447 22.5735 69.8634 22.5735 70.2908 22.0882C70.7195 21.6524 70.9569 21.0653 70.9503 20.4573V9.63498C70.9622 9.02178 70.7274 8.42946 70.296 7.98847C69.8686 7.54357 68.7408 7.50313 68.1261 7.50313C67.5114 7.50313 66.3822 7.50313 65.9469 7.98847C65.5181 8.42815 65.2847 9.01917 65.2952 9.62976V20.4573Z" fill="#858585"/>
<path d="M92.7718 19.2819V4.48486H94.9999V24.6105H93.4513C93.2282 24.6296 93.0051 24.5818 92.8141 24.474C92.6158 24.3744 92.4583 24.2161 92.3665 24.0237L86.668 9.9362V24.6364H84.4443V4.50943H86.0468C86.2816 4.48896 86.5178 4.53945 86.719 4.65407C86.9101 4.78506 87.0544 4.96791 87.1317 5.17669L92.7718 19.2819Z" fill="#858585"/>
</svg>
