<svg width="77" height="25" viewBox="0 0 77 25" fill="none" xmlns="http://www.w3.org/2000/svg">
<path d="M1.06764 1.75L1.1428 23.272H10.6887V15.7197L14.7476 15.7415V23.272H24.3686V1.75H14.7476V9.45515L10.6887 9.47698V1.75L1.06764 1.75Z" fill="#858585"/>
<path d="M30.1553 5.30713C28.8024 5.30713 27.8276 6.13773 27.8276 7.27277C27.8276 8.27684 28.2021 8.77762 29.4799 9.47608C30.8328 10.1964 31.1347 10.3939 32.187 11.0705C32.9386 10.503 33.2385 10.3075 34.0653 9.8927C34.5915 9.58718 35.0427 9.3907 35.2681 9.25977C35.644 9.04149 35.9442 8.80061 36.1696 8.53868C36.3952 8.18944 36.5464 7.73114 36.5464 7.27277C36.5464 6.1159 35.6445 5.30713 34.3667 5.30713C33.5399 5.30713 33.089 5.54863 32.187 6.37808C31.4354 5.5268 30.9821 5.30713 30.1553 5.30713ZM27.3755 11.5726V23.273H36.9204V11.5726H27.3755Z" fill="#858585"/>
<path d="M56.2383 1.72805H63.905C72.6993 1.74988 75.9313 3.62705 75.9313 8.69107C75.9313 12.8383 72.3986 15.6323 67.1371 15.6323H65.9344V23.2501L56.2383 23.2719V1.72805ZM65.8594 6.77024C65.1077 6.09358 64.6567 5.87531 63.9051 5.87531C62.7776 5.87531 61.8756 6.6611 61.8756 7.687C61.8756 8.75656 62.2515 9.12763 64.2057 10.1535C64.7319 10.4373 65.0325 10.5901 65.1077 10.6337C65.258 10.7429 65.5587 10.9393 65.8593 11.1794C66.611 10.6337 66.8365 10.4809 68.4149 9.69515C69.5424 9.08397 69.9182 8.60377 69.9182 7.75249C69.9182 6.68294 69.0163 5.87532 67.8888 5.87532C67.2123 5.87532 66.9117 6.0281 65.8594 6.77024Z" fill="#858585"/>
<path d="M39.4766 1.72805H47.1434C55.8625 1.74988 59.1697 3.62705 59.1697 8.69107C59.1697 12.8383 55.5618 15.6323 50.3754 15.6323H49.0976V23.2501L39.4766 23.2719L39.4766 1.72805ZM49.0225 6.83572C48.3461 6.07175 47.8951 5.85347 47.1434 5.85347C46.016 5.85347 45.0388 6.68292 45.0388 7.64334C45.0388 8.45096 45.4146 9.08396 46.2415 9.52052L47.9702 10.4809L49.0225 11.1794C49.9997 10.4373 50.4507 10.1972 51.2775 9.80428C52.7056 9.14945 53.0814 8.69107 53.0814 7.68699C53.0814 6.63927 52.1794 5.83164 50.9768 5.83164C50.3003 5.83164 49.7742 6.09358 49.0225 6.83572Z" fill="#858585"/>
</svg>
