<svg width="119" height="23" viewBox="0 0 119 23" fill="none" xmlns="http://www.w3.org/2000/svg">
<path fill-rule="evenodd" clip-rule="evenodd" d="M117.652 16.1593L117.889 15.5397H118.118V16.3831H117.968V15.6969H117.964L117.7 16.3831H117.598L117.334 15.6969H117.33V16.3831H117.18V15.5397H117.41L117.652 16.1593ZM117.034 15.6627H116.774V16.3831H116.624V15.6627H116.364V15.5397H117.033L117.034 15.6627ZM45.1137 4.91734H48.2994V6.00545C48.6414 5.70704 49.745 4.64985 51.7848 4.64985C54.1841 4.64985 56.0909 6.42214 56.0909 9.20323V16.4221H52.7244V10.0964C52.7244 8.54727 51.9703 7.62719 50.6013 7.62719C49.2739 7.62719 48.4761 8.49418 48.4761 10.0964V16.4221H45.113L45.1137 4.91734ZM80.4728 10.6697C80.4728 9.07823 81.6624 7.77236 83.3137 7.77236C84.9664 7.77236 86.1546 9.07823 86.1546 10.6697C86.1546 12.2599 84.9664 13.5671 83.3137 13.5671C81.6624 13.5671 80.4728 12.2606 80.4728 10.6697ZM77.1534 10.6697C77.1534 13.9885 79.8128 16.6836 83.2915 16.6836C86.7729 16.6836 89.431 13.9878 89.431 10.6697C89.431 7.35164 86.7729 4.64985 83.2915 4.64985C79.8128 4.64985 77.1534 7.35164 77.1534 10.6697ZM34.2783 10.6704C34.2783 9.07957 35.4672 7.77303 37.1179 7.77303C38.7705 7.77303 39.9588 9.0789 39.9588 10.6704C39.9588 12.2606 38.7705 13.5684 37.1179 13.5684C35.4672 13.5691 34.2783 12.2612 34.2783 10.6704ZM30.9575 10.6711C30.9575 13.9898 33.617 16.6849 37.097 16.6849C40.5771 16.6849 43.2359 13.9892 43.2359 10.6711C43.2359 7.35298 40.5771 4.65052 37.097 4.65052C33.617 4.65052 30.9575 7.35298 30.9575 10.6711ZM105.746 4.91734H109.156V16.4228H105.746V4.91734ZM105.746 0.714111H109.156V3.64105H105.746V0.714111ZM111.785 0.714111H115.195V16.4228H111.785V0.714111ZM100.307 10.6637C100.307 12.2861 99.0614 13.5463 97.4342 13.5463C95.7869 13.5463 94.549 12.2901 94.549 10.6717C94.549 9.03319 95.8024 7.79118 97.4369 7.79118C99.0802 7.79118 100.307 9.04462 100.307 10.6637ZM94.6357 16.4228L94.6713 15.5376C94.9092 15.7178 95.9617 16.6862 98.1695 16.6862C101.07 16.6862 103.76 14.088 103.76 10.6717C103.76 7.24948 101.234 4.65119 98.2071 4.65119C95.8931 4.65119 94.8326 5.71174 94.6706 5.83003V0.714783H91.4009V16.4235L94.6357 16.4228Z" fill="#858585"/>
<path fill-rule="evenodd" clip-rule="evenodd" d="M11.1277 16.4228L16.4916 9.70931L11.7454 4.91734H16.4574L18.561 7.08683L22.4336 2.10197H26.3834L20.711 9.24624L22.9195 11.4641L28.0186 4.91734H31.9785L25.0782 13.6356L33.8395 22.4453H29.0623L22.9659 16.2413L19.7264 20.4392H15.7678L20.8273 14.1048L18.6161 11.8674L15.0722 16.4228H11.1277ZM0 0.714111H10.3454V3.64172H3.51904V6.89798H10.0383V9.73888H3.51904V13.4911H10.3454V16.4228H0V0.714111ZM58.7827 0.714111H64.3442L66.97 12.1806H67.0876L69.78 0.714111H75.1843V16.4228H71.8749V4.56247H71.7244L68.8088 16.4228H65.0915L62.2426 4.56247H62.0934V16.4228H58.7827V0.714111Z" fill="#858585"/>
</svg>
