<svg width="119" height="23" viewBox="0 0 119 23" fill="none" xmlns="http://www.w3.org/2000/svg">
<path d="M0 22.8837H10.2725C16.8147 22.8837 21.4917 18.574 21.4917 11.7753C21.4917 3.36852 15.7488 0 8.25946 0H0V22.8837Z" fill="#858585"/>
<path d="M14.5165 16.6074C17.244 13.5988 18.0141 10.1478 18.3191 7.31253C18.4992 5.63772 18.5712 4.31049 18.5998 3.49978C18.3138 3.20667 18.0109 2.9332 17.6899 2.6793C17.0406 2.72725 16.1467 2.80785 15.3173 2.94078C12.3557 3.41588 7.29579 4.4783 4.50474 8.33681C1.63213 12.3086 2.60767 17.3952 3.89675 19.2204C3.89675 19.2204 2.96251 21.5446 2.60449 22.8904H4.66468C5.06507 21.5381 5.58514 20.3439 5.58514 20.3439C8.19295 20.6424 11.5581 19.8698 14.5165 16.6074Z" fill="#ECECEC"/>
<path d="M6.82368 8.94364C3.4964 13.1309 5.02475 16.8703 5.04695 16.8268C7.13443 12.7167 11.0906 7.72803 15.2994 4.85096C15.2994 4.85096 9.76095 5.24672 6.82368 8.94364Z" fill="#858585"/>
<path d="M6.75596 17.9403C6.73376 17.9838 10.4585 18.2013 13.5342 14.1064C16.0275 10.7868 16.3045 5.81991 16.3045 5.81991C14.6905 7.03228 9.82429 12.0035 6.75596 17.9403Z" fill="#858585"/>
<path d="M33.5854 13.5898C33.5854 14.9386 33.5854 16.0496 33.517 16.6406C33.4623 17.048 33.3932 17.3569 33.1196 17.4139C32.9965 17.4407 32.831 17.4688 32.7079 17.4688C32.6258 17.4688 32.5985 17.5117 32.5985 17.5539C32.5985 17.6384 32.6668 17.6665 32.8173 17.6665C33.2291 17.6665 34.0922 17.6236 34.1613 17.6236C34.2981 17.6236 36.0258 17.7925 37.2042 17.7925C39.5345 17.7925 40.7684 16.8088 41.3579 16.1762C42.126 15.3481 42.8387 13.9845 42.8387 12.2128C42.8387 10.5403 42.1937 9.37436 41.5091 8.6433C39.8778 6.91522 37.3691 7.04118 36.0114 7.04118C35.1893 7.04118 34.3254 7.08408 34.1613 7.08408C34.0922 7.08408 33.2291 7.04118 32.6121 7.04118C32.461 7.04118 32.3926 7.06931 32.3926 7.15374C32.3926 7.21003 32.4473 7.23748 32.502 7.23748C32.6251 7.23748 32.859 7.25085 32.9685 7.2797C33.4213 7.37821 33.5307 7.60339 33.558 8.08115C33.5854 8.53076 33.5854 8.92406 33.5854 11.1165V13.5898ZM34.7372 10.8914C34.7372 9.8092 34.7372 8.37596 34.7509 7.8982C34.7509 7.74411 34.7919 7.67371 34.9157 7.61742C35.0251 7.56113 35.5326 7.51895 35.8062 7.51895C37.4375 7.51895 39.0003 7.71523 40.2889 9.10699C40.8504 9.71139 41.6048 10.8639 41.6048 12.649C41.6048 13.9422 41.2211 15.2911 40.5084 16.0081C39.6993 16.837 38.5209 17.3147 37.246 17.3147C35.6277 17.3147 35.0935 17.0192 34.9157 16.7525C34.8056 16.5984 34.7782 16.0362 34.7646 15.6851C34.7509 15.417 34.7372 14.1252 34.7372 12.6342V10.8914Z" fill="#858585" stroke="#858585" stroke-width="0.550189"/>
<path d="M52.3383 13.5898C52.3383 14.9386 52.3383 16.0496 52.2699 16.6406C52.2145 17.048 52.1461 17.3569 51.8718 17.4139C51.7487 17.4407 51.5846 17.4688 51.4608 17.4688C51.3787 17.4688 51.3513 17.5117 51.3513 17.5539C51.3513 17.6384 51.4197 17.6665 51.5702 17.6665C51.9819 17.6665 52.8458 17.6236 52.9142 17.6236C53.3122 17.6236 54.2301 17.708 56.3005 17.708C56.8346 17.708 56.9454 17.708 57.0405 17.3428C57.1096 17.048 57.219 16.0925 57.219 15.9792C57.219 15.8814 57.219 15.7689 57.1369 15.7689C57.0686 15.7689 57.0405 15.8251 57.0138 15.9792C56.9174 16.5562 56.7532 16.837 56.3969 16.9918C56.0399 17.1459 55.4373 17.1459 55.081 17.1459C53.7377 17.1459 53.5318 16.9629 53.4908 15.9933C53.4778 15.6992 53.4908 14.0689 53.4908 13.5898V12.3542C53.4908 12.2972 53.5188 12.255 53.5865 12.255C53.8197 12.255 55.1767 12.2838 55.5474 12.3254C56.0816 12.3816 56.2054 12.6202 56.2608 12.8172C56.3155 12.9994 56.3155 13.1401 56.3155 13.2809C56.3155 13.3505 56.3422 13.4068 56.4113 13.4068C56.507 13.4068 56.507 13.2527 56.507 13.1401C56.507 13.0416 56.5344 12.5224 56.5624 12.2416C56.6035 11.7779 56.6719 11.5387 56.6719 11.4543C56.6719 11.3705 56.6452 11.3417 56.6035 11.3417C56.5487 11.3417 56.494 11.4121 56.3983 11.5246C56.2752 11.6647 56.083 11.6935 55.7533 11.7216C55.438 11.7491 53.752 11.7491 53.5735 11.7491C53.5051 11.7491 53.4908 11.7069 53.4908 11.6091V7.72934C53.4908 7.63083 53.5188 7.58861 53.5735 7.58861C53.7247 7.58861 55.2184 7.60337 55.4517 7.63151C56.1924 7.71524 56.3292 7.88414 56.4249 8.10859C56.4933 8.27746 56.507 8.51737 56.507 8.61518C56.507 8.72775 56.5344 8.79739 56.6171 8.79739C56.6719 8.79739 56.6999 8.71367 56.7129 8.6433C56.7403 8.47444 56.7676 7.85598 56.782 7.71525C56.823 7.32193 56.8914 7.15307 56.8914 7.05527C56.8914 6.98491 56.8777 6.92862 56.8367 6.92862C56.7683 6.92862 56.7136 6.98489 56.6452 6.99897C56.5351 7.02641 56.3162 7.05524 56.0556 7.06931C55.7403 7.08338 53.0127 7.0834 52.9162 7.0834C52.8478 7.0834 51.984 7.04118 51.3671 7.04118C51.2159 7.04118 51.1482 7.06931 51.1482 7.15374C51.1482 7.21003 51.2029 7.23822 51.2576 7.23822C51.3807 7.23822 51.614 7.25158 51.7234 7.28043C52.1762 7.37894 52.2856 7.60408 52.313 8.08184C52.3403 8.53145 52.3403 8.92475 52.3403 11.1172V13.5898" fill="#858585"/>
<path d="M52.3383 13.5898C52.3383 14.9386 52.3383 16.0496 52.2699 16.6406C52.2145 17.048 52.1461 17.3569 51.8718 17.4139C51.7487 17.4407 51.5846 17.4688 51.4608 17.4688C51.3787 17.4688 51.3513 17.5117 51.3513 17.5539C51.3513 17.6384 51.4197 17.6665 51.5702 17.6665C51.9819 17.6665 52.8458 17.6236 52.9142 17.6236C53.3122 17.6236 54.2301 17.708 56.3005 17.708C56.8346 17.708 56.9454 17.708 57.0405 17.3428C57.1096 17.048 57.219 16.0925 57.219 15.9792C57.219 15.8814 57.219 15.7689 57.1369 15.7689C57.0686 15.7689 57.0405 15.8251 57.0138 15.9792C56.9174 16.5562 56.7532 16.837 56.3969 16.9918C56.0399 17.1459 55.4373 17.1459 55.081 17.1459C53.7377 17.1459 53.5318 16.9629 53.4908 15.9933C53.4778 15.6992 53.4908 14.0689 53.4908 13.5898V12.3542C53.4908 12.2972 53.5188 12.255 53.5865 12.255C53.8197 12.255 55.1767 12.2838 55.5474 12.3254C56.0816 12.3816 56.2054 12.6202 56.2608 12.8172C56.3155 12.9994 56.3155 13.1401 56.3155 13.2809C56.3155 13.3505 56.3422 13.4068 56.4113 13.4068C56.507 13.4068 56.507 13.2527 56.507 13.1401C56.507 13.0416 56.5344 12.5224 56.5624 12.2416C56.6035 11.7779 56.6719 11.5387 56.6719 11.4543C56.6719 11.3705 56.6452 11.3417 56.6035 11.3417C56.5487 11.3417 56.494 11.4121 56.3983 11.5246C56.2752 11.6647 56.083 11.6935 55.7533 11.7216C55.438 11.7491 53.752 11.7491 53.5735 11.7491C53.5051 11.7491 53.4908 11.7069 53.4908 11.6091V7.72934C53.4908 7.63083 53.5188 7.58861 53.5735 7.58861C53.7247 7.58861 55.2184 7.60337 55.4517 7.63151C56.1924 7.71524 56.3292 7.88414 56.4249 8.10859C56.4933 8.27746 56.507 8.51737 56.507 8.61517C56.507 8.72775 56.5344 8.79739 56.6171 8.79739C56.6719 8.79739 56.6999 8.71367 56.7129 8.6433C56.7403 8.47444 56.7676 7.85598 56.782 7.71525C56.823 7.32193 56.8914 7.15307 56.8914 7.05527C56.8914 6.98491 56.8777 6.92862 56.8367 6.92862C56.7683 6.92862 56.7136 6.98489 56.6452 6.99897C56.5351 7.02641 56.3162 7.05524 56.0556 7.06931C55.7403 7.08338 53.0127 7.0834 52.9162 7.0834C52.8478 7.0834 51.984 7.04118 51.3671 7.04118C51.2159 7.04118 51.1482 7.06931 51.1482 7.15374C51.1482 7.21003 51.2029 7.23822 51.2576 7.23822C51.3807 7.23822 51.614 7.25158 51.7234 7.28043C52.1762 7.37894 52.2856 7.60408 52.313 8.08184C52.3403 8.53145 52.3403 8.92475 52.3403 11.1172V13.5898" stroke="#858585" stroke-width="0.550189"/>
<path d="M69.3977 7.64562L71.1219 7.67375C72.4351 7.7019 72.7504 8.02487 72.8045 8.44634L72.8181 8.60112C72.8325 8.79813 72.8605 8.83963 72.9303 8.83963C72.9864 8.83963 73.0288 8.78338 73.0288 8.65673C73.0288 8.50193 73.0712 7.53233 73.0712 7.11087C73.0712 7.02714 73.0712 6.94201 73.0014 6.94201C72.8886 6.94201 72.5179 7.08342 71.6417 7.08342H66.5052C66.3404 7.08342 65.8199 7.0553 65.4218 7.01308C65.0518 6.98423 64.915 6.84491 64.8192 6.84491C64.7638 6.84491 64.7091 7.02714 64.6817 7.11087C64.6551 7.22345 64.3801 8.43226 64.3801 8.57299C64.3801 8.65672 64.4082 8.69963 64.4492 8.69963C64.5039 8.69963 64.545 8.6715 64.586 8.55963C64.627 8.46112 64.6688 8.3619 64.8199 8.12408C65.0395 7.78634 65.3678 7.68782 66.2179 7.67375L68.2472 7.64631V13.5905C68.2472 14.9393 68.2472 16.0503 68.1782 16.6414C68.1234 17.0488 68.0544 17.357 67.7808 17.4139C67.6577 17.4414 67.4928 17.4695 67.3697 17.4695C67.2876 17.4695 67.2603 17.5125 67.2603 17.5547C67.2603 17.6391 67.3287 17.6672 67.4798 17.6672C67.8909 17.6672 68.7547 17.6243 68.8231 17.6243C68.8915 17.6243 69.756 17.6672 70.5098 17.6672C70.6602 17.6672 70.7286 17.6243 70.7286 17.5547C70.7286 17.5132 70.702 17.4695 70.6192 17.4695C70.4961 17.4695 70.1945 17.4414 70.0023 17.4139C69.5912 17.357 69.5085 17.0488 69.4674 16.6414C69.399 16.051 69.399 14.94 69.399 13.5905V7.64562" fill="#858585"/>
<path d="M69.3977 7.64562L71.1219 7.67375C72.4351 7.7019 72.7504 8.02487 72.8045 8.44634L72.8181 8.60112C72.8325 8.79813 72.8605 8.83963 72.9303 8.83963C72.9864 8.83963 73.0288 8.78338 73.0288 8.65673C73.0288 8.50193 73.0712 7.53233 73.0712 7.11087C73.0712 7.02714 73.0712 6.94201 73.0014 6.94201C72.8886 6.94201 72.5179 7.08342 71.6417 7.08342H66.5052C66.3404 7.08342 65.8199 7.0553 65.4218 7.01308C65.0518 6.98423 64.915 6.84491 64.8192 6.84491C64.7638 6.84491 64.7091 7.02714 64.6817 7.11087C64.6551 7.22345 64.3801 8.43226 64.3801 8.57299C64.3801 8.65672 64.4082 8.69963 64.4492 8.69963C64.5039 8.69963 64.545 8.67151 64.586 8.55963C64.627 8.46112 64.6688 8.3619 64.8199 8.12408C65.0395 7.78634 65.3678 7.68782 66.2179 7.67375L68.2472 7.64631V13.5905C68.2472 14.9393 68.2472 16.0503 68.1782 16.6414C68.1234 17.0488 68.0544 17.357 67.7808 17.4139C67.6577 17.4414 67.4928 17.4695 67.3697 17.4695C67.2876 17.4695 67.2603 17.5125 67.2603 17.5547C67.2603 17.6391 67.3287 17.6672 67.4798 17.6672C67.8909 17.6672 68.7547 17.6243 68.8231 17.6243C68.8915 17.6243 69.756 17.6672 70.5098 17.6672C70.6602 17.6672 70.7286 17.6243 70.7286 17.5547C70.7286 17.5132 70.702 17.4695 70.6192 17.4695C70.4961 17.4695 70.1945 17.4414 70.0023 17.4139C69.5912 17.357 69.5085 17.0488 69.4674 16.6414C69.399 16.051 69.399 14.94 69.399 13.5905V7.64562" stroke="#858585" stroke-width="0.550189"/>
<path d="M81.7464 13.5897C81.7464 14.9386 81.7464 16.0496 81.6781 16.6406C81.6227 17.048 81.5549 17.3569 81.28 17.4139C81.1569 17.4406 80.9927 17.4688 80.8682 17.4688C80.7868 17.4688 80.7588 17.5117 80.7588 17.5539C80.7588 17.6383 80.8272 17.6665 80.9777 17.6665C81.3894 17.6665 82.2533 17.6236 82.2669 17.6236C82.3346 17.6236 83.1985 17.6665 83.9522 17.6665C84.1034 17.6665 84.1711 17.6236 84.1711 17.5539C84.1711 17.5124 84.1444 17.4688 84.0617 17.4688C83.9385 17.4688 83.6362 17.4406 83.444 17.4139C83.033 17.3569 82.9509 17.048 82.9099 16.6406C82.8415 16.0503 82.8415 14.9393 82.8415 13.5897V13.2527C82.8415 13.183 82.8681 13.1401 82.9379 13.1401L84.6239 13.169C84.7059 13.169 84.747 13.1964 84.8017 13.2527C85.076 13.6186 85.7203 14.56 86.2962 15.3333C87.0772 16.3873 87.5574 17.0762 88.1469 17.3991C88.504 17.5954 88.8459 17.6658 89.6134 17.6658H90.5873C90.8335 17.6658 90.9163 17.6376 90.9163 17.5532C90.9163 17.5117 90.8602 17.4681 90.7925 17.4681C90.7097 17.4681 90.5175 17.4681 90.2576 17.4258C89.915 17.3695 89.3254 17.2155 88.5854 16.414C87.7899 15.543 86.8584 14.2919 85.7339 12.8165C86.9671 11.6499 87.3925 10.6099 87.3925 9.56996C87.3925 8.60038 86.7886 7.91153 86.4459 7.65893C85.7196 7.12489 84.801 7.03975 83.9379 7.03975C83.5131 7.03975 82.4708 7.08269 82.3203 7.08269C82.2519 7.08269 81.3881 7.03975 80.7711 7.03975C80.62 7.03975 80.5522 7.06791 80.5522 7.15235C80.5522 7.20864 80.607 7.23605 80.6617 7.23605C80.7848 7.23605 81.018 7.24942 81.1275 7.27827C81.5802 7.37677 81.6897 7.60196 81.7177 8.07971C81.7444 8.52932 81.7444 8.92262 81.7444 11.1151V13.5897H81.7464ZM82.8435 7.74409C82.8435 7.66036 82.8852 7.60404 82.953 7.57519C83.0897 7.53297 83.4598 7.49076 83.8715 7.49076C85.3379 7.49076 86.2428 8.54478 86.2428 10.3017C86.2428 11.3698 85.8865 12.1276 85.407 12.4653C85.0917 12.6912 84.708 12.732 84.3783 12.732C83.7758 12.732 83.1451 12.6335 82.9393 12.5076C82.8702 12.4646 82.8428 12.4091 82.8428 12.3387V7.74409" fill="#858585"/>
<path d="M82.8435 7.74409C82.8435 7.66036 82.8852 7.60404 82.953 7.57519C83.0897 7.53297 83.4598 7.49076 83.8715 7.49076C85.3379 7.49076 86.2428 8.54478 86.2428 10.3017C86.2428 11.3698 85.8865 12.1276 85.407 12.4653C85.0917 12.6912 84.708 12.732 84.3783 12.732C83.7758 12.732 83.1451 12.6335 82.9393 12.5076C82.8702 12.4646 82.8428 12.4091 82.8428 12.3387V7.74409M81.7464 13.5897C81.7464 14.9386 81.7464 16.0496 81.6781 16.6406C81.6227 17.048 81.5549 17.3569 81.28 17.4139C81.1569 17.4406 80.9927 17.4688 80.8682 17.4688C80.7868 17.4688 80.7588 17.5117 80.7588 17.5539C80.7588 17.6383 80.8272 17.6665 80.9777 17.6665C81.3894 17.6665 82.2533 17.6236 82.2669 17.6236C82.3346 17.6236 83.1985 17.6665 83.9522 17.6665C84.1034 17.6665 84.1711 17.6236 84.1711 17.5539C84.1711 17.5124 84.1444 17.4688 84.0617 17.4688C83.9385 17.4688 83.6362 17.4406 83.444 17.4139C83.033 17.3569 82.9509 17.048 82.9099 16.6406C82.8415 16.0503 82.8415 14.9393 82.8415 13.5897V13.2527C82.8415 13.183 82.8681 13.1401 82.9379 13.1401L84.6239 13.169C84.7059 13.169 84.747 13.1964 84.8017 13.2527C85.076 13.6186 85.7203 14.56 86.2962 15.3333C87.0772 16.3873 87.5574 17.0762 88.1469 17.3991C88.504 17.5954 88.8459 17.6658 89.6134 17.6658H90.5873C90.8335 17.6658 90.9163 17.6376 90.9163 17.5532C90.9163 17.5117 90.8602 17.4681 90.7925 17.4681C90.7097 17.4681 90.5175 17.4681 90.2576 17.4258C89.915 17.3695 89.3254 17.2155 88.5854 16.414C87.7899 15.543 86.8584 14.2919 85.7339 12.8165C86.9671 11.6499 87.3925 10.6099 87.3925 9.56996C87.3925 8.60038 86.7886 7.91153 86.4459 7.65893C85.7196 7.12489 84.801 7.03975 83.9379 7.03975C83.5131 7.03975 82.4708 7.08269 82.3203 7.08269C82.2519 7.08269 81.3881 7.03975 80.7711 7.03975C80.62 7.03975 80.5522 7.06792 80.5522 7.15235C80.5522 7.20864 80.607 7.23605 80.6617 7.23605C80.7848 7.23605 81.018 7.24942 81.1275 7.27827C81.5802 7.37677 81.6897 7.60196 81.7177 8.07971C81.7444 8.52932 81.7444 8.92262 81.7444 11.1151V13.5897H81.7464Z" stroke="#858585" stroke-width="0.550189"/>
<path d="M99.0302 11.1166C99.0302 8.92479 99.0302 8.53079 99.0583 8.08118C99.0856 7.58935 99.1957 7.35012 99.5658 7.28046C99.7299 7.25231 99.812 7.23824 99.9084 7.23824C99.9631 7.23824 100.018 7.21079 100.018 7.1545C100.018 7.07007 99.9488 7.0419 99.7983 7.0419C99.3872 7.0419 98.5248 7.08484 98.4557 7.08484C98.3866 7.08484 97.5241 7.0419 97.0707 7.0419C96.9202 7.0419 96.8518 7.07007 96.8518 7.1545C96.8518 7.21079 96.9065 7.23824 96.9606 7.23824C97.0563 7.23824 97.2341 7.25229 97.3853 7.2945C97.6883 7.36486 97.8244 7.60411 97.8517 8.08186C97.8784 8.53148 97.8784 8.92548 97.8784 11.1172V13.5905C97.8784 14.9393 97.8784 16.0503 97.81 16.6414C97.756 17.0488 97.6876 17.3576 97.4126 17.4146C97.2889 17.4414 97.124 17.4695 97.0016 17.4695C96.9195 17.4695 96.8915 17.5125 96.8915 17.5547C96.8915 17.6391 96.9599 17.6672 97.1103 17.6672C97.5234 17.6672 98.3859 17.6243 98.4543 17.6243C98.5234 17.6243 99.3859 17.6672 100.14 17.6672C100.291 17.6672 100.36 17.6243 100.36 17.5547C100.36 17.5132 100.332 17.4695 100.25 17.4695C100.127 17.4695 99.8257 17.4414 99.6328 17.4146C99.2217 17.3576 99.1397 17.0488 99.0986 16.6414C99.0295 16.051 99.0295 14.94 99.0295 13.5905V11.1166" fill="#858585"/>
<path d="M99.0302 11.1166C99.0302 8.92479 99.0302 8.53079 99.0583 8.08118C99.0856 7.58935 99.1957 7.35012 99.5658 7.28046C99.7299 7.25231 99.812 7.23824 99.9084 7.23824C99.9631 7.23824 100.018 7.21079 100.018 7.1545C100.018 7.07007 99.9488 7.0419 99.7983 7.0419C99.3872 7.0419 98.5248 7.08484 98.4557 7.08484C98.3866 7.08484 97.5241 7.0419 97.0707 7.0419C96.9202 7.0419 96.8518 7.07007 96.8518 7.1545C96.8518 7.21079 96.9065 7.23824 96.9606 7.23824C97.0563 7.23824 97.2341 7.25229 97.3853 7.2945C97.6883 7.36486 97.8244 7.60411 97.8517 8.08186C97.8784 8.53147 97.8784 8.92548 97.8784 11.1172V13.5905C97.8784 14.9393 97.8784 16.0503 97.81 16.6414C97.756 17.0488 97.6876 17.3576 97.4126 17.4146C97.2889 17.4414 97.124 17.4695 97.0016 17.4695C96.9195 17.4695 96.8915 17.5125 96.8915 17.5547C96.8915 17.6391 96.9599 17.6672 97.1103 17.6672C97.5234 17.6672 98.3859 17.6243 98.4543 17.6243C98.5234 17.6243 99.3859 17.6672 100.14 17.6672C100.291 17.6672 100.36 17.6243 100.36 17.5547C100.36 17.5132 100.332 17.4695 100.25 17.4695C100.127 17.4695 99.8257 17.4414 99.6328 17.4146C99.2217 17.3576 99.1397 17.0488 99.0986 16.6414C99.0295 16.051 99.0295 14.94 99.0295 13.5905V11.1166" stroke="#858585" stroke-width="0.550189"/>
<path d="M109.073 16.1206C108.827 16.8236 108.553 17.3569 107.922 17.4407C107.812 17.4547 107.621 17.4695 107.524 17.4695C107.457 17.4695 107.401 17.4976 107.401 17.5539C107.401 17.6383 107.483 17.6665 107.662 17.6665C108.306 17.6665 109.06 17.6236 109.211 17.6236C109.362 17.6236 109.952 17.6665 110.281 17.6665C110.403 17.6665 110.486 17.6383 110.486 17.5539C110.486 17.4976 110.445 17.4695 110.35 17.4695H110.212C109.978 17.4695 109.692 17.3428 109.692 17.0621C109.692 16.8088 109.76 16.4718 109.883 16.12L110.706 13.6326C110.733 13.5623 110.774 13.5194 110.843 13.5194H113.79C113.858 13.5194 113.886 13.5482 113.913 13.6045L115.189 17.0621C115.271 17.2865 115.189 17.4139 115.107 17.4407C115.052 17.4547 115.01 17.4836 115.01 17.5399C115.01 17.6236 115.161 17.6236 115.422 17.6383C116.368 17.6665 117.368 17.6665 117.574 17.6665C117.724 17.6665 117.849 17.6383 117.849 17.5539C117.849 17.4842 117.794 17.4695 117.712 17.4695C117.574 17.4695 117.368 17.4554 117.162 17.385C116.875 17.3006 116.477 17.0769 115.983 15.8251C115.146 13.689 112.995 7.8848 112.79 7.35076C112.626 6.91522 112.57 6.84486 112.488 6.84486C112.406 6.84486 112.352 6.92929 112.187 7.39297L109.073 16.1206ZM110.993 13.0142C110.952 13.0142 110.924 12.986 110.952 12.9157L112.159 9.12105C112.226 8.90997 112.296 8.90997 112.365 9.12105L113.666 12.9157C113.68 12.972 113.68 13.0142 113.611 13.0142H110.993Z" fill="#858585" stroke="#858585" stroke-width="0.550189"/>
</svg>
