<svg width="108" height="19" viewBox="0 0 108 19" fill="none" xmlns="http://www.w3.org/2000/svg">
<path fill-rule="evenodd" clip-rule="evenodd" d="M26.615 18.931L20.6622 0.0672766L5.95106 0.0525264L0 18.931L9.53013 18.9605L10.3602 16.4924H16.2553L17.0854 18.9605L26.615 18.931ZM13.3078 4.38661C13.1011 5.32083 12.9285 6.29517 12.6491 7.20755C12.2294 8.57847 11.7526 9.93052 11.3 11.292H15.3109C14.8624 9.92993 14.385 8.57847 13.9659 7.20755C13.6865 6.29458 13.5144 5.32083 13.3078 4.38661ZM32.6797 4.28393H34.8647C36.2403 4.28393 36.6629 4.8133 36.675 5.63597C36.686 6.39314 36.0943 7.10486 34.8255 7.10486H32.6797V4.28393ZM37.5657 0.0525264H25.6094V14.156H32.6509V11.1008H36.3875C39.8419 11.1008 43.6138 9.74462 43.6305 5.16503C43.6432 1.74331 41.3953 0.0525264 37.5657 0.0525264ZM50.9503 4.28393H53.1358C54.5115 4.28393 54.9346 4.8133 54.9456 5.63597C54.956 6.39314 54.3648 7.10486 53.096 7.10486H50.9503V4.28393ZM55.8363 0.0525264H43.8799V14.156H50.922V11.1008H54.6581C58.1125 11.1008 61.8843 9.74462 61.9011 5.16503C61.9132 1.74331 59.6659 0.0525264 55.8363 0.0525264ZM62.4431 0.0525264H69.4841V9.13735H75.3965V14.1566H62.4431V0.0525264ZM82.9269 0.0525264H75.8421V14.1566H82.9269V0.0525264ZM83.2156 14.1566L87.9342 7.37869L83.0614 0.0525264H91.1045L92.8837 3.90682L94.6628 0.0525264H102.706L97.8337 7.37869L102.552 14.1566H94.8954L92.8837 10.7432L90.8725 14.1566H83.2156ZM104.521 2.09859V0.374749H103.885V0H105.593V0.375339H104.961V2.09918L104.521 2.09859ZM105.846 2.09859V0H106.498L106.924 1.59755L107.345 0H108V2.09918H107.586V0.406618L107.151 2.09918H106.7L106.259 0.406618V2.09918L105.846 2.09859ZM27.5929 18.895V15.8563H29.0886V16.9209H29.813V15.8563H31.311V18.895H29.813V17.9554H29.0886V18.895H27.5929ZM31.7983 18.895V15.8563H33.3044V18.895H31.7983ZM37.2315 18.7037C36.9689 18.7982 36.6975 18.869 36.4164 18.9174C36.1287 18.9659 35.8375 18.99 35.5459 18.9894C34.908 18.9894 34.4289 18.8542 34.1079 18.5834C33.7875 18.3137 33.627 17.91 33.627 17.3735C33.627 16.8424 33.7921 16.4429 34.1229 16.1755C34.4537 15.9082 34.9507 15.7742 35.6123 15.7742C36.1433 15.7746 36.6731 15.8279 37.194 15.9336V16.9982C36.9481 16.9716 36.7264 16.951 36.5307 16.9368C36.3344 16.9232 36.1716 16.9162 36.0423 16.9162C35.7144 16.9162 35.4697 16.9699 35.3075 17.0773C35.1447 17.1859 35.0633 17.3482 35.0633 17.5642C35.0633 17.7613 35.1279 17.9118 35.2561 18.0156C35.3848 18.1201 35.5713 18.172 35.8172 18.172C35.8286 18.1719 35.84 18.1709 35.8513 18.1691C35.8668 18.1673 35.8778 18.1655 35.8859 18.1655V17.3446H37.2309L37.2315 18.7037ZM37.7268 18.895V15.8563H39.2225V16.9209H39.947V15.8563H41.445V18.895H39.947V17.9554H39.2225V18.895H37.7268ZM45.1955 17.3777H45.4859C45.6914 17.3777 45.8351 17.3523 45.9188 17.3027C46.0025 17.2526 46.0447 17.1688 46.0447 17.0501C46.0447 16.948 46.0071 16.876 45.9333 16.8353C45.8588 16.794 45.7197 16.7734 45.517 16.7734H45.1949L45.1955 17.3777ZM43.6617 18.895V15.8568H46.2334C46.6675 15.8568 46.9949 15.9495 47.2159 16.1354C47.437 16.3213 47.5473 16.5963 47.5473 16.9604C47.5473 17.3588 47.4128 17.6698 47.1444 17.8952C46.8759 18.1201 46.5024 18.2322 46.0239 18.2322H45.1955V18.895H43.6617ZM53.0943 17.3074H53.3887C53.5919 17.3074 53.735 17.2821 53.8199 17.2319C53.9048 17.1806 53.9475 17.0956 53.9475 16.9752C53.9475 16.8743 53.9111 16.804 53.8378 16.7633C53.7645 16.7232 53.6248 16.7019 53.4198 16.7019H53.0937L53.0943 17.3074ZM51.5686 18.895V15.8568H54.4433C54.7735 15.8568 55.0218 15.9288 55.1909 16.074C55.3601 16.2192 55.4437 16.4328 55.4437 16.7155C55.4437 16.984 55.3658 17.1953 55.2105 17.3499C55.0552 17.5046 54.8226 17.5996 54.5126 17.635L55.5621 18.895H53.7905L53.2507 18.1885C53.1889 18.1022 53.1301 18.0137 53.0746 17.923C53.0881 18.0737 53.0947 18.2249 53.0943 18.3762V18.8955L51.5686 18.895ZM55.7572 18.895V15.8563H59.0609V16.9286H57.2904V17.2018H59.0609V18.1219H57.2904V18.895H55.7572ZM61.355 18.0805C61.5074 18.0805 61.6257 18.0245 61.71 17.9129C61.7943 17.8014 61.8376 17.6444 61.8376 17.4438C61.8376 17.2331 61.7983 17.0749 61.7169 16.9693C61.6367 16.8631 61.516 16.8099 61.355 16.8099C61.1951 16.8099 61.0733 16.8631 60.993 16.9693C60.9128 17.0749 60.8724 17.2325 60.8724 17.4438C60.8724 17.6462 60.9151 17.8026 60.9988 17.9141C61.0831 18.0245 61.202 18.0805 61.355 18.0805ZM61.355 18.9894C60.6651 18.9894 60.1531 18.8566 59.8194 18.5922C59.4858 18.329 59.3201 17.9218 59.3201 17.3741C59.3201 16.8282 59.4858 16.4228 59.8194 16.159C60.152 15.8946 60.664 15.7618 61.355 15.7618C62.0471 15.7618 62.5592 15.8946 62.894 16.159C63.2276 16.4222 63.3945 16.8282 63.3945 17.3741C63.3945 17.9224 63.2276 18.329 62.894 18.5922C62.5592 18.8566 62.0471 18.9894 61.355 18.9894ZM65.2233 17.3074H65.5188C65.722 17.3074 65.8652 17.2821 65.9495 17.2319C66.0337 17.1806 66.077 17.0956 66.077 16.9752C66.077 16.8743 66.0412 16.804 65.9679 16.7633C65.8946 16.7232 65.7549 16.7019 65.5506 16.7019H65.2238L65.2233 17.3074ZM63.6981 18.895V15.8568H66.5741C66.9031 15.8568 67.1513 15.9288 67.3205 16.074C67.4896 16.2192 67.5739 16.4328 67.5739 16.7155C67.5739 16.984 67.496 17.1953 67.3395 17.3499C67.1848 17.5046 66.9516 17.5996 66.6428 17.635L67.6911 18.895H65.92L65.3797 18.1885L65.2995 18.0729C65.2665 18.0236 65.2345 17.9736 65.2036 17.923C65.2158 18.0737 65.2221 18.2249 65.2227 18.3762V18.8955L63.6981 18.895ZM69.2641 17.1983C69.2688 17.2862 69.2734 17.3712 69.2757 17.4544C69.2791 17.5382 69.2803 17.6314 69.2803 17.7335V18.8955H67.8775V15.8574H69.7819L70.0885 16.8896C70.1442 17.0707 70.1919 17.2542 70.2316 17.4396C70.2518 17.3417 70.2934 17.1841 70.3569 16.9693L70.376 16.9008L70.6779 15.8568H72.5846V18.895H71.1841V17.7512C71.1841 17.6922 71.1841 17.6167 71.1864 17.5228L71.1957 17.2006L71.1235 17.4508C71.0987 17.5341 71.0669 17.6314 71.0312 17.7412L70.649 18.895H69.8137L69.4212 17.7211C69.391 17.6308 69.3625 17.5399 69.3357 17.4485C69.3105 17.3655 69.2867 17.2821 69.2641 17.1983ZM74.5363 17.6609H75.1563L74.967 17.072C74.9149 16.8988 74.8746 16.7221 74.8463 16.5432C74.8296 16.6471 74.8111 16.7427 74.7909 16.8312C74.7707 16.9197 74.7505 16.9994 74.7268 17.0714L74.5363 17.6609ZM72.7006 18.895L73.6658 15.8568H76.0234L76.992 18.895H75.4374L75.3214 18.5013H74.3718L74.2477 18.895H72.7006ZM77.141 18.895V15.8568H78.6707L79.2457 16.699C79.3074 16.7952 79.3594 16.8766 79.4004 16.9433C79.4408 17.0088 79.4783 17.0755 79.5141 17.141L79.5107 16.9309C79.5095 16.8595 79.5095 16.7651 79.5095 16.6482V15.8574H80.9648V18.8955H79.6307L78.8381 17.8858C78.7398 17.7557 78.6516 17.618 78.5743 17.4739C78.5801 17.576 78.5859 17.6704 78.5888 17.7571C78.5922 17.8433 78.5934 17.907 78.5934 17.946V18.8944L77.141 18.895ZM84.7141 18.8218C84.4469 18.8778 84.1946 18.9192 83.9568 18.9469C83.7189 18.9746 83.4944 18.9894 83.2837 18.9894C82.6083 18.9894 82.1032 18.8554 81.7695 18.5875C81.4347 18.3201 81.2679 17.9153 81.2679 17.3735C81.2679 16.8347 81.4358 16.4328 81.773 16.1696C82.1089 15.9058 82.6187 15.7742 83.3039 15.7742C83.4875 15.7742 83.6953 15.7854 83.925 15.8067C84.1536 15.8273 84.418 15.861 84.7141 15.9058V17.0997C84.5235 17.0656 84.3317 17.038 84.1392 17.0171C83.9875 16.9999 83.8351 16.9907 83.6826 16.9893C83.4061 16.9893 83.2011 17.0283 83.0672 17.1062C83.0042 17.1402 82.952 17.1917 82.9164 17.2548C82.8809 17.3179 82.8635 17.3899 82.8663 17.4627C82.8663 17.6108 82.924 17.7211 83.0401 17.7943C83.1561 17.8669 83.3299 17.9041 83.5608 17.9041C83.9495 17.9048 84.3368 17.857 84.7141 17.7619V18.8218ZM91.1778 18.895V17.0625H90.2796V15.8563H93.6179V17.0625H92.718V18.895H91.1778ZM95.1887 17.6609H95.8087L95.6193 17.072C95.5672 16.8988 95.5269 16.7221 95.4987 16.5432C95.4808 16.6471 95.4629 16.7427 95.4433 16.8312C95.4231 16.9197 95.4017 16.9994 95.378 17.0714L95.1887 17.6609ZM93.353 18.895L94.317 15.8568H96.6757L97.6444 18.895H96.0886L95.9738 18.5013H95.0242L94.9001 18.895H93.353ZM99.2809 17.3777H99.5719C99.7768 17.3777 99.9206 17.3523 100.005 17.3027C100.089 17.2526 100.13 17.1688 100.13 17.0501C100.13 16.948 100.093 16.876 100.019 16.8353C99.9442 16.794 99.8057 16.7734 99.6025 16.7734H99.2809V17.3777ZM97.7466 18.895V15.8568H100.318C100.754 15.8568 101.08 15.9495 101.301 16.1354C101.522 16.3213 101.633 16.5963 101.633 16.9604C101.633 17.3588 101.498 17.6698 101.229 17.8952C100.961 18.1201 100.588 18.2322 100.109 18.2322H99.2809V18.895H97.7466ZM105.166 15.9058V16.8176C104.88 16.7816 104.646 16.7562 104.46 16.7415C104.275 16.7255 104.11 16.7179 103.965 16.7179C103.726 16.7179 103.568 16.7285 103.494 16.7492C103.42 16.7698 103.382 16.8076 103.382 16.8619C103.382 16.9516 103.53 16.997 103.823 16.997C103.934 16.997 104.023 16.9988 104.091 17.0011C104.518 17.0088 104.824 17.0808 105.013 17.2148C105.201 17.3499 105.296 17.563 105.296 17.8557C105.296 18.2358 105.144 18.5208 104.841 18.712C104.538 18.9038 104.086 19 103.487 19C103.229 19 102.97 18.9876 102.707 18.9634C102.446 18.9392 102.182 18.9038 101.916 18.8572V18.0032C102.203 18.0493 102.473 18.0853 102.721 18.1089C102.972 18.1325 103.197 18.1455 103.398 18.1455C103.522 18.1455 103.608 18.1366 103.651 18.1183C103.696 18.1006 103.719 18.0687 103.719 18.0233C103.719 17.9826 103.705 17.9519 103.675 17.933C103.627 17.9093 103.575 17.8968 103.522 17.8964C103.486 17.8952 103.386 17.8917 103.217 17.8876C103.077 17.8846 102.936 17.8754 102.796 17.8598C102.447 17.8167 102.194 17.7205 102.036 17.5724C101.879 17.4249 101.801 17.2118 101.801 16.9321C101.801 16.5296 101.954 16.2334 102.262 16.0433C102.57 15.8533 103.051 15.7583 103.705 15.7583C103.935 15.7583 104.173 15.7707 104.417 15.7949C104.662 15.8197 104.912 15.8568 105.166 15.9058ZM47.8411 18.895V15.8563H51.1749V16.8465H49.3438V17.1487H51.1749V17.8439H49.3438V18.0941H51.1749V18.895H47.8411ZM85.068 18.895V15.8563H88.4023V16.8465H86.5712V17.1487H88.4023V17.8439H86.5712V18.0941H88.4023V18.895H85.068Z" fill="#858585"/>
</svg>
