<?xml version="1.0" encoding="utf-8"?>
<!-- Generator: Adobe Illustrator 26.1.0, SVG Export Plug-In . SVG Version: 6.00 Build 0)  -->
<svg version="1.1"
	 id="баннер-красный_xA0_Изображение_00000090259856699711198600000013338158419897363854_"
	 xmlns="http://www.w3.org/2000/svg" xmlns:xlink="http://www.w3.org/1999/xlink" x="0px" y="0px" viewBox="0 0 1200 252.9"
	 style="enable-background:new 0 0 1200 252.9;" xml:space="preserve">
<style type="text/css">
	.st0{fill:none;stroke:#1D1D1B;}
</style>
<g>
	<polygon class="st0" points="398.5,106 354.9,106 354.9,56.4 307.7,56.4 307.7,196.5 354.9,196.5 354.9,144.8 398.5,144.8 
		398.5,196.5 445.7,196.5 445.7,56.4 398.5,56.4 	"/>
	<path class="st0" d="M514.5,56.4l-61.2,140h48l9.4-24.4h53.2l9.4,24.4h48.8l-61.2-140H514.5z M523.7,138l13.6-35.3l13.6,35.3H523.7
		z"/>
	<polygon class="st0" points="690.6,138.2 657.3,56.4 606.5,56.4 665.7,196.5 712.1,196.5 771.3,56.4 724.9,56.4 	"/>
	<polygon class="st0" points="822.3,160.8 822.3,142.5 881.5,142.5 881.5,108.4 822.3,108.4 822.3,92 889.7,92 889.7,56.4 
		775.9,56.4 775.9,196.5 892.3,196.5 892.3,160.8 	"/>
</g>
</svg>
