<svg width="587" height="142" viewBox="0 0 587 142" fill="none" xmlns="http://www.w3.org/2000/svg">
<path d="M91.8 50.6H48.2V1H1V141.1H48.2V89.4H91.8V141.1H139V1H91.8V50.6Z" stroke="white"/>
<path d="M207.8 1L146.6 141H194.6L204 116.6H257.2L266.6 141H315.4L254.2 1H207.8ZM217 82.6L230.6 47.3L244.2 82.6H217Z" stroke="white"/>
<path d="M383.9 82.8L350.6 1H299.8L359 141.1H405.4L464.6 1H418.2L383.9 82.8Z" stroke="white"/>
<path d="M515.6 105.4V87.1H574.8V53H515.6V36.6H583V1H469.2V141.1H585.6V105.4H515.6Z" stroke="white"/>
</svg>
