<svg width="24" height="24" viewBox="0 0 24 24" fill="none" xmlns="http://www.w3.org/2000/svg">
<path d="M22.5998 22.5993V14.6882C22.5998 10.8001 21.7628 7.83008 17.2268 7.83008C15.0397 7.83008 13.5817 9.0181 12.9877 10.1521H12.9337V8.18108H8.64062V22.5993H13.1227V15.4442C13.1227 13.5542 13.4737 11.7451 15.7957 11.7451C18.0908 11.7451 18.1178 13.8782 18.1178 15.5522V22.5723H22.5998V22.5993Z" fill="white"/>
<path d="M1.35156 8.18262H5.83363V22.6008H1.35156V8.18262Z" fill="white"/>
<path d="M3.59204 1C2.16102 1 1 2.16102 1 3.59204C1 5.02306 2.16102 6.21108 3.59204 6.21108C5.02306 6.21108 6.18408 5.02306 6.18408 3.59204C6.18408 2.16102 5.02306 1 3.59204 1Z" fill="white"/>
</svg>
