<svg width="22" height="22" viewBox="0 0 22 22" fill="none" xmlns="http://www.w3.org/2000/svg">
<path d="M15.6787 0.200195H5.92131C2.65629 0.200195 0 2.85649 0 6.12155V15.8789C0 19.1439 2.65629 21.8002 5.92131 21.8002H15.6787C18.9437 21.8002 21.6 19.1439 21.6 15.8789V6.12155C21.6 2.85649 18.9437 0.200195 15.6787 0.200195ZM10.8 16.9247C7.53321 16.9247 4.87557 14.267 4.87557 11.0002C4.87557 7.73341 7.53325 5.0758 10.8 5.0758C14.0667 5.0758 16.7245 7.73345 16.7245 11.0002C16.7245 14.2669 14.0667 16.9247 10.8 16.9247ZM17.0788 6.5214C16.0863 6.5214 15.2788 5.71393 15.2788 4.72143C15.2788 3.72893 16.0863 2.92142 17.0788 2.92142C18.0713 2.92142 18.8788 3.72888 18.8788 4.72139C18.8788 5.71389 18.0713 6.5214 17.0788 6.5214Z" fill="white"/>
</svg>
