<svg width="461" height="461" viewBox="0 0 461 461" fill="none" xmlns="http://www.w3.org/2000/svg">
<path d="M443.031 229.992C443.031 347.617 347.677 442.971 230.051 442.971C112.426 442.971 17.072 347.617 17.072 229.992C17.072 112.367 112.426 17.0127 230.051 17.0127C347.677 17.0127 443.031 112.367 443.031 229.992Z" stroke="#C71717" stroke-width="34"/>
<path d="M434.056 236.437L450.471 232.167L450.267 235.266L435.428 239.062L435.529 237.524L449.732 243.413L449.551 246.167L434.709 250.01L434.807 248.518L449.015 254.337L448.828 257.183L433.112 250.804L433.32 247.636L446.713 244.114L446.659 244.94L433.846 239.627L434.056 236.437Z" fill="white"/>
<path d="M440.578 265.138L439.169 273.017L436.746 272.584L438.155 264.705L440.578 265.138ZM433.745 264.15L432.146 273.093L429.678 272.652L431.804 260.765L447.652 263.6L445.583 275.169L443.115 274.728L444.658 266.102L433.745 264.15Z" fill="white"/>
<path d="M428.613 277.346L444.153 281.557L442.179 288.838C441.674 290.703 440.919 292.023 439.914 292.8C438.924 293.58 437.815 293.804 436.587 293.471C435.758 293.246 435.1 292.861 434.612 292.316C434.139 291.775 433.828 291.134 433.679 290.395C433.541 289.674 433.574 288.937 433.779 288.182L434.469 288.798C434.233 289.671 433.857 290.412 433.343 291.019C432.844 291.63 432.237 292.054 431.522 292.289C430.803 292.539 429.992 292.541 429.089 292.297C427.757 291.936 426.859 291.144 426.396 289.923C425.933 288.701 425.974 287.084 426.52 285.071L428.613 277.346ZM430.095 280.845L428.832 285.507C428.539 286.587 428.492 287.464 428.691 288.138C428.89 288.811 429.381 289.254 430.166 289.467C430.935 289.675 431.576 289.539 432.087 289.058C432.614 288.581 433.023 287.803 433.316 286.722L434.64 281.838L436.882 282.446L435.715 286.753C435.442 287.759 435.411 288.577 435.622 289.206C435.829 289.85 436.287 290.268 436.998 290.46C437.723 290.657 438.337 290.529 438.841 290.078C439.34 289.642 439.727 288.92 439.999 287.914L441.106 283.829L430.095 280.845Z" fill="white"/>
<path d="M420.214 304.302L434.995 310.684L432.205 317.146C431.512 318.75 430.594 320.024 429.452 320.968C428.31 321.911 427.044 322.483 425.654 322.685C424.264 322.886 422.823 322.665 421.331 322.021C419.853 321.382 418.704 320.485 417.884 319.329C417.077 318.18 416.626 316.866 416.529 315.388C416.433 313.91 416.731 312.368 417.424 310.763L420.214 304.302ZM421.351 308.05L419.801 311.64C419.321 312.752 419.119 313.8 419.195 314.785C419.264 315.784 419.585 316.665 420.157 317.43C420.723 318.209 421.512 318.817 422.526 319.255C423.553 319.698 424.537 319.856 425.478 319.728C426.427 319.619 427.288 319.248 428.063 318.614C428.832 317.994 429.456 317.128 429.937 316.016L431.487 312.426L421.351 308.05Z" fill="white"/>
<path d="M418.296 330.603L414.43 337.612L412.275 336.423L416.141 329.415L418.296 330.603ZM412.143 327.472L407.755 335.427L405.56 334.216L411.393 323.643L425.49 331.419L419.813 341.711L417.618 340.5L421.85 332.827L412.143 327.472Z" fill="white"/>
<path d="M399.885 342.599C400.58 341.551 401.391 340.645 402.32 339.881C403.262 339.125 404.156 338.623 405.001 338.373L406.366 340.519C405.589 340.777 404.797 341.209 403.991 341.815C403.185 342.421 402.507 343.14 401.956 343.971C401.49 344.674 401.19 345.293 401.056 345.83C400.921 346.366 400.914 346.821 401.035 347.195C401.167 347.577 401.4 347.879 401.733 348.099C402.142 348.37 402.565 348.438 403.003 348.305C403.453 348.181 403.905 347.928 404.359 347.549C404.817 347.19 405.301 346.765 405.81 346.275C406.31 345.797 406.834 345.325 407.381 344.86C407.933 344.416 408.499 344.047 409.081 343.752C409.667 343.478 410.287 343.346 410.942 343.357C411.597 343.368 412.283 343.61 412.999 344.084C413.727 344.567 414.265 345.199 414.612 345.98C414.963 346.783 415.055 347.699 414.888 348.729C414.725 349.78 414.238 350.919 413.425 352.146C412.891 352.951 412.26 353.683 411.53 354.34C410.801 354.997 410.05 355.493 409.277 355.827L407.861 353.758C408.617 353.394 409.289 352.947 409.879 352.418C410.481 351.898 410.977 351.343 411.367 350.755C411.824 350.065 412.113 349.447 412.235 348.903C412.348 348.371 412.338 347.914 412.205 347.531C412.064 347.162 411.821 346.863 411.475 346.634C411.066 346.363 410.641 346.284 410.199 346.395C409.761 346.529 409.32 346.779 408.874 347.146C408.42 347.526 407.933 347.957 407.411 348.439C406.902 348.929 406.378 349.401 405.84 349.853C405.292 350.318 404.732 350.692 404.159 350.975C403.577 351.27 402.963 351.406 402.317 351.382C401.662 351.371 400.983 351.133 400.279 350.667C399.564 350.193 399.03 349.555 398.679 348.752C398.332 347.971 398.24 347.054 398.403 346.004C398.578 344.961 399.072 343.826 399.885 342.599Z" fill="white"/>
<path d="M393.298 352.323L406.107 362.077L404.296 364.456L391.487 354.702L393.298 352.323Z" fill="white"/>
<path d="M382.563 365.104C383.396 364.162 384.312 363.427 385.311 362.898C386.311 362.39 387.346 362.087 388.416 361.989C389.497 361.9 390.558 362.03 391.601 362.378C392.644 362.726 393.613 363.297 394.509 364.088C395.406 364.88 396.091 365.772 396.565 366.764C397.039 367.756 397.293 368.788 397.327 369.862C397.362 370.957 397.179 372.032 396.777 373.089C396.387 374.156 395.776 375.161 394.943 376.103C394.04 377.126 393.061 377.898 392.007 378.419C390.942 378.952 389.84 379.216 388.699 379.211L388.569 376.579C389.456 376.524 390.253 376.317 390.958 375.959C391.665 375.622 392.308 375.126 392.887 374.471C393.445 373.839 393.859 373.161 394.13 372.438C394.4 371.716 394.518 370.991 394.484 370.266C394.45 369.54 394.271 368.839 393.947 368.164C393.612 367.501 393.135 366.895 392.515 366.346C391.905 365.808 391.251 365.414 390.551 365.164C389.841 364.926 389.118 364.829 388.382 364.875C387.658 364.93 386.959 365.131 386.285 365.477C385.611 365.823 384.99 366.318 384.422 366.961C383.894 367.559 383.478 368.214 383.175 368.928C382.872 369.664 382.722 370.483 382.724 371.384L379.925 371.183C379.977 370.104 380.242 369.028 380.719 367.956C381.197 366.905 381.812 365.955 382.563 365.104ZM382.091 369.321L386.607 373.311L384.734 375.431L379.925 371.183L382.091 369.321Z" fill="white"/>
<path d="M374.022 374.659L384.986 386.45L383.183 388.126L367.347 385.923L368.24 385.093L376.682 394.171L374.509 396.192L363.546 384.401L365.348 382.725L381.184 384.928L380.291 385.759L371.85 376.68L374.022 374.659Z" fill="white"/>
<path d="M306.989 419.055L312.645 434.129L306.443 436.456C305.108 436.957 303.886 437.17 302.777 437.095C301.653 437.025 300.682 436.685 299.864 436.075C299.045 435.465 298.429 434.607 298.014 433.502C297.599 432.397 297.499 431.345 297.714 430.347C297.93 429.349 298.437 428.455 299.237 427.663C300.023 426.877 301.084 426.233 302.419 425.732L307.07 423.987L306.314 425.769L304.189 420.106L306.989 419.055ZM306.201 425.468L307.959 426.356L303.437 428.052C302.202 428.516 301.373 429.122 300.95 429.87C300.518 430.638 300.479 431.496 300.835 432.444C301.196 433.405 301.789 434.026 302.614 434.306C303.426 434.591 304.449 434.502 305.683 434.039L310.205 432.342L309.474 434.189L306.201 425.468Z" fill="white"/>
<path d="M288.879 425.446L293.09 440.986L286.696 442.719C285.32 443.092 284.083 443.188 282.986 443.009C281.874 442.834 280.94 442.404 280.182 441.72C279.425 441.035 278.892 440.123 278.583 438.984C278.274 437.844 278.274 436.788 278.582 435.815C278.894 434.856 279.486 434.021 280.357 433.308C281.218 432.614 282.336 432.081 283.712 431.708L288.507 430.408L287.575 432.067L285.993 426.229L288.879 425.446ZM278.711 428.202L284.169 432.776L281.083 433.612L275.603 429.044L278.711 428.202ZM287.491 431.756L289.151 432.784L284.489 434.047C283.216 434.392 282.336 434.924 281.848 435.644C281.345 436.368 281.226 437.219 281.491 438.196C281.76 439.187 282.292 439.861 283.087 440.217C283.868 440.578 284.895 440.585 286.168 440.241L290.83 438.977L289.927 440.747L287.491 431.756Z" fill="white"/>
<path d="M269.879 439.68L262 441.089L261.567 438.666L269.446 437.257L269.879 439.68ZM268.438 432.928L259.495 434.528L259.053 432.06L270.94 429.934L273.774 445.782L262.205 447.851L261.764 445.384L270.39 443.841L268.438 432.928Z" fill="white"/>
<path d="M248.891 432.883C250.143 432.767 251.357 432.831 252.535 433.076C253.714 433.336 254.666 433.718 255.39 434.22L254.574 436.629C253.886 436.185 253.053 435.838 252.075 435.59C251.098 435.342 250.113 435.264 249.12 435.357C248.28 435.434 247.61 435.589 247.107 435.821C246.605 436.052 246.246 436.332 246.03 436.66C245.816 437.003 245.727 437.373 245.764 437.77C245.809 438.259 246.021 438.632 246.399 438.889C246.779 439.162 247.259 439.356 247.839 439.472C248.406 439.604 249.04 439.714 249.741 439.803C250.427 439.894 251.122 440.006 251.828 440.141C252.52 440.292 253.163 440.502 253.757 440.77C254.338 441.055 254.83 441.456 255.232 441.973C255.634 442.49 255.875 443.176 255.954 444.031C256.035 444.901 255.88 445.717 255.488 446.477C255.083 447.253 254.427 447.899 253.52 448.415C252.599 448.947 251.406 449.281 249.94 449.417C248.978 449.506 248.013 449.473 247.043 449.316C246.074 449.16 245.217 448.885 244.472 448.492L245.197 446.092C245.954 446.453 246.723 446.697 247.505 446.825C248.288 446.968 249.031 447.007 249.733 446.941C250.558 446.865 251.221 446.703 251.721 446.457C252.207 446.211 252.557 445.917 252.771 445.574C252.97 445.232 253.051 444.855 253.013 444.443C252.967 443.954 252.762 443.573 252.398 443.299C252.02 443.041 251.548 442.854 250.983 442.737C250.403 442.621 249.761 442.512 249.059 442.407C248.357 442.319 247.662 442.206 246.971 442.07C246.266 441.935 245.624 441.733 245.044 441.463C244.449 441.195 243.959 440.802 243.572 440.283C243.17 439.766 242.93 439.088 242.852 438.248C242.772 437.393 242.935 436.577 243.341 435.801C243.732 435.04 244.388 434.394 245.309 433.862C246.231 433.346 247.425 433.019 248.891 432.883Z" fill="white"/>
<path d="M234.871 443.336L226.867 443.429L226.839 440.968L234.842 440.875L234.871 443.336ZM234.561 436.439L225.476 436.545L225.447 434.038L237.522 433.898L237.708 449.997L225.956 450.133L225.927 447.626L234.689 447.525L234.561 436.439Z" fill="white"/>
<path d="M219.57 433.829L218.205 449.871L215.753 449.663L206.743 436.455L207.958 436.558L206.907 448.91L203.951 448.659L205.315 432.617L207.767 432.826L216.778 446.034L215.563 445.93L216.614 433.578L219.57 433.829Z" fill="white"/>
<path d="M196.301 431.203L193.963 444.57L199.219 445.489L198.783 447.982L185.325 445.627L185.761 443.135L191.018 444.055L193.356 430.688L196.301 431.203Z" fill="white"/>
<path d="M185.381 429.247L174.229 442.934L171.385 442.175L168.515 424.745L171.537 425.552L173.816 441.181L172.661 440.873L182.404 428.452L185.381 429.247ZM181.198 431.987L179.815 434.046L171.416 431.804L171.243 429.33L181.198 431.987Z" fill="white"/>
<path d="M161.905 422.322L157.281 435.08L162.298 436.898L161.436 439.277L148.592 434.622L149.454 432.243L154.47 434.061L159.094 421.304L161.905 422.322Z" fill="white"/>
<path d="M149.349 417.394L142.912 432.151L140.171 430.955L146.608 416.198L149.349 417.394Z" fill="white"/>
<path d="M134.239 409.859C135.349 410.45 136.273 411.177 137.012 412.04C137.752 412.903 138.293 413.842 138.638 414.86C138.975 415.89 139.099 416.947 139.009 418.028C138.912 419.123 138.583 420.198 138.021 421.254C137.459 422.31 136.754 423.176 135.906 423.854C135.052 424.546 134.106 425.033 133.07 425.315C132.027 425.61 130.941 425.692 129.813 425.56C128.684 425.428 127.572 425.071 126.476 424.487C125.366 423.896 124.448 423.173 123.722 422.317C122.983 421.454 122.445 420.508 122.108 419.477C121.763 418.46 121.64 417.404 121.736 416.309C121.826 415.227 122.152 414.159 122.714 413.103C123.276 412.047 123.984 411.174 124.839 410.482C125.694 409.791 126.639 409.304 127.675 409.022C128.711 408.74 129.794 408.665 130.922 408.797C132.037 408.921 133.143 409.276 134.239 409.859ZM133.027 412.184C132.309 411.802 131.581 411.571 130.843 411.49C130.104 411.41 129.392 411.474 128.708 411.683C128.016 411.905 127.39 412.249 126.829 412.715C126.248 413.187 125.762 413.788 125.373 414.519C124.984 415.25 124.76 415.982 124.7 416.714C124.619 417.453 124.683 418.164 124.892 418.849C125.093 419.547 125.434 420.18 125.913 420.748C126.392 421.316 126.991 421.791 127.708 422.173C128.425 422.555 129.153 422.786 129.892 422.867C130.617 422.94 131.332 422.869 132.038 422.654C132.722 422.445 133.355 422.105 133.937 421.633C134.497 421.167 134.972 420.569 135.361 419.838C135.743 419.121 135.975 418.393 136.055 417.654C136.123 416.908 136.055 416.186 135.854 415.488C135.645 414.803 135.301 414.177 134.822 413.609C134.342 413.041 133.744 412.566 133.027 412.184Z" fill="white"/>
<path d="M122.405 403.415L113.466 416.805L111.419 415.439L109.905 399.522L110.919 400.199L104.036 410.509L101.568 408.862L110.507 395.472L112.554 396.838L114.068 412.755L113.054 412.078L119.938 401.767L122.405 403.415Z" fill="white"/>
<path d="M98.7756 386.287L87.9849 398.236L82.7616 393.519C81.4644 392.347 80.5525 391.069 80.026 389.685C79.4996 388.3 79.364 386.917 79.6194 385.536C79.8748 384.156 80.5471 382.862 81.6365 381.656C82.7156 380.461 83.9341 379.661 85.2922 379.255C86.6401 378.861 88.0294 378.855 89.4602 379.238C90.8911 379.621 92.2551 380.399 93.5524 381.57L98.7756 386.287ZM94.8609 386.161L91.9591 383.54C91.0601 382.728 90.1322 382.2 89.1752 381.956C88.2069 381.701 87.2689 381.722 86.3611 382.018C85.442 382.303 84.6125 382.856 83.8726 383.675C83.1224 384.506 82.657 385.387 82.4765 386.319C82.2743 387.252 82.349 388.188 82.7008 389.125C83.0411 390.052 83.6608 390.922 84.5597 391.734L87.4615 394.354L94.8609 386.161Z" fill="white"/>
<path d="M74.7392 376.339L69.3102 370.458L71.1185 368.788L76.5476 374.67L74.7392 376.339ZM79.6533 371.49L73.4911 364.814L75.3332 363.114L83.5235 371.986L71.6933 382.907L63.7214 374.271L65.5635 372.57L71.5073 379.009L79.6533 371.49Z" fill="white"/>
<path d="M68.5269 354.58L60.0374 369.964L58.0634 367.391L65.7922 353.547L66.9262 355.025L51.5112 358.851L49.6911 356.479L66.7348 352.244L68.5269 354.58Z" fill="white"/>
<path d="M51.1587 346.387L46.862 339.634L48.9383 338.313L53.235 345.066L51.1587 346.387ZM56.8567 342.489L51.9797 334.824L54.0949 333.478L60.577 343.666L46.9934 352.309L40.6842 342.393L42.7993 341.047L47.5035 348.44L56.8567 342.489Z" fill="white"/>
<path d="M51.5571 328.944L37.2907 336.406L35.9049 333.757L47.9294 327.467L44.0278 320.008L46.2697 318.835L51.5571 328.944Z" fill="white"/>
<path d="M41.4031 307.132C41.8799 308.295 42.1274 309.445 42.1455 310.581C42.1636 311.717 41.9804 312.786 41.5959 313.789C41.1972 314.797 40.6182 315.689 39.8587 316.464C39.0851 317.246 38.145 317.863 37.0383 318.316C35.9316 318.77 34.8358 318.987 33.7507 318.968C32.6515 318.954 31.6131 318.725 30.6356 318.281C29.6438 317.842 28.7558 317.212 27.9715 316.39C27.1872 315.568 26.5596 314.582 26.0886 313.433C25.6119 312.269 25.3673 311.127 25.355 310.005C25.3369 308.869 25.5272 307.797 25.9259 306.788C26.3104 305.786 26.8894 304.894 27.663 304.113C28.4225 303.337 29.3555 302.723 30.4622 302.27C31.5689 301.816 32.6718 301.596 33.771 301.61C34.8702 301.623 35.9086 301.852 36.8862 302.297C37.8638 302.741 38.7447 303.374 39.529 304.196C40.3074 305.004 40.9322 305.983 41.4031 307.132ZM38.9857 308.147C38.6775 307.395 38.2649 306.753 37.7479 306.219C37.2308 305.685 36.6423 305.28 35.9822 305.004C35.3079 304.733 34.6063 304.598 33.8774 304.598C33.1284 304.59 32.3709 304.744 31.6047 305.057C30.8386 305.371 30.1986 305.791 29.6848 306.317C29.151 306.834 28.7459 307.422 28.4696 308.082C28.179 308.748 28.0369 309.453 28.0432 310.196C28.0494 310.939 28.2067 311.686 28.5148 312.438C28.823 313.19 29.2356 313.833 29.7526 314.367C30.2638 314.887 30.8595 315.289 31.5396 315.574C32.1997 315.85 32.9042 315.992 33.6531 316C34.3821 316 35.1296 315.842 35.8958 315.528C36.6477 315.22 37.2906 314.808 37.8244 314.291C38.3524 313.759 38.7617 313.161 39.0522 312.495C39.3285 311.835 39.4636 311.133 39.4573 310.39C39.4511 309.647 39.2938 308.899 38.9857 308.147Z" fill="white"/>
<path d="M36.3987 294.559L20.9763 299.181L19.0749 292.835C18.6655 291.469 18.5359 290.236 18.6861 289.134C18.8318 288.018 19.2367 287.072 19.9008 286.297C20.5648 285.522 21.4624 284.965 22.5934 284.626C23.7243 284.287 24.7803 284.259 25.7613 284.541C26.7423 284.823 27.6005 285.39 28.3361 286.242C29.0672 287.08 29.6375 288.181 30.0468 289.547L31.4729 294.306L29.746 293.431L35.5404 291.695L36.3987 294.559ZM30.0545 293.339L29.0494 295.033L27.6629 290.406C27.2844 289.143 26.7361 288.274 26.0181 287.801C25.2809 287.318 24.4277 287.221 23.4583 287.512C22.4742 287.807 21.8146 288.357 21.4795 289.161C21.14 289.951 21.1595 290.978 21.538 292.241L22.9245 296.868L21.1315 296.013L30.0545 293.339Z" fill="white"/>
<path d="M31.4273 277.582L15.6124 280.599L15.1513 278.181L25.3776 269.066L25.6189 270.331L12.7769 265.733L12.3158 263.315L28.1264 260.276L28.6565 263.055L17.2063 265.262L17.0942 264.675L27.8445 268.619L28.0944 269.929L19.5677 277.643L19.4385 276.965L30.893 274.781L31.4273 277.582Z" fill="white"/>
<path d="M17.7513 251.857L17.0423 243.884L19.4936 243.666L20.2026 251.639L17.7513 251.857ZM24.6038 251.016L23.799 241.967L26.2962 241.745L27.3658 253.772L11.3291 255.199L10.288 243.492L12.7851 243.27L13.5614 251.998L24.6038 251.016Z" fill="white"/>
<path d="M26.0236 235.531L9.92408 235.407L9.94308 232.946L22.4177 222.945L22.4083 224.164L10.0116 224.068L10.0345 221.101L26.134 221.225L26.115 223.686L13.6405 233.687L13.6499 232.468L26.0465 232.564L26.0236 235.531Z" fill="white"/>
<path d="M26.8313 212.147L13.3243 210.841L12.8107 216.152L10.2924 215.909L11.6074 202.31L14.1256 202.554L13.6121 207.865L27.1191 209.171L26.8313 212.147Z" fill="white"/>
<path d="M45.932 141.893L31.6108 134.537L32.977 131.877L45.0477 138.077L48.8939 130.589L51.1444 131.745L45.932 141.893Z" fill="white"/>
<path d="M57.8291 121.061C57.1541 122.121 56.358 122.987 55.4408 123.657C54.5235 124.328 53.5445 124.795 52.5038 125.06C51.4501 125.317 50.3875 125.358 49.3162 125.186C48.2319 125.004 47.1852 124.593 46.1761 123.951C45.1671 123.309 44.3573 122.539 43.7469 121.642C43.1236 120.736 42.7113 119.756 42.5102 118.701C42.296 117.638 42.2983 116.549 42.517 115.434C42.7357 114.32 43.1783 113.238 43.8451 112.19C44.52 111.13 45.312 110.27 46.221 109.613C47.1383 108.943 48.1237 108.479 49.1774 108.223C50.2182 107.958 51.2807 107.916 52.365 108.097C53.4364 108.27 54.4766 108.677 55.4856 109.32C56.4947 109.962 57.3109 110.735 57.9343 111.641C58.5576 112.546 58.9699 113.526 59.171 114.581C59.3722 115.636 59.3635 116.721 59.1448 117.836C58.9344 118.938 58.4958 120.013 57.8291 121.061ZM55.6045 119.673C56.0408 118.987 56.3277 118.279 56.4652 117.549C56.6028 116.818 56.5939 116.104 56.4386 115.405C56.2704 114.699 55.9758 114.048 55.5547 113.453C55.129 112.836 54.5668 112.306 53.8682 111.862C53.1696 111.417 52.4575 111.137 51.7319 111.02C51.0016 110.883 50.2872 110.892 49.5886 111.047C48.8772 111.194 48.2198 111.484 47.6165 111.918C47.0133 112.352 46.4935 112.912 46.0573 113.598C45.621 114.284 45.3341 114.992 45.1966 115.722C45.0672 116.439 45.0826 117.158 45.2426 117.877C45.3978 118.576 45.6884 119.233 46.1141 119.85C46.5352 120.445 47.095 120.964 47.7936 121.409C48.4792 121.845 49.1872 122.132 49.9175 122.27C50.6561 122.394 51.3811 122.383 52.0926 122.236C52.7911 122.081 53.442 121.786 54.0453 121.352C54.6485 120.918 55.1683 120.358 55.6045 119.673Z" fill="white"/>
<path d="M70.1379 103.718C69.3581 104.704 68.4837 105.489 67.5148 106.071C66.5434 106.632 65.5265 106.991 64.4641 107.148C63.3898 107.296 62.3225 107.224 61.2624 106.933C60.2023 106.642 59.2031 106.126 58.2649 105.384C57.3268 104.642 56.5939 103.789 56.0663 102.825C55.5388 101.86 55.2288 100.843 55.1365 99.7733C55.0416 98.6818 55.1659 97.5975 55.5094 96.5203C55.8408 95.4336 56.3965 94.3972 57.1763 93.4109C58.0227 92.3404 58.9579 91.516 59.9819 90.9378C61.0154 90.3476 62.102 90.0241 63.2415 89.9673L63.5152 92.5879C62.6321 92.6912 61.8481 92.9411 61.1631 93.3378C60.4755 93.7129 59.8607 94.2432 59.3187 94.9288C58.7956 95.5904 58.4188 96.2894 58.1884 97.0259C57.9579 97.7624 57.8795 98.492 57.9531 99.2148C58.0266 99.9376 58.2437 100.627 58.6043 101.284C58.9743 101.928 59.4841 102.507 60.1336 103.021C60.7711 103.525 61.4461 103.882 62.1585 104.094C62.8805 104.293 63.6076 104.35 64.3399 104.265C65.0601 104.169 65.7473 103.931 66.4012 103.549C67.0552 103.167 67.6484 102.639 68.181 101.965C68.6755 101.34 69.0548 100.662 69.3188 99.9328C69.5803 99.1818 69.6858 98.3562 69.6351 97.4561L72.4408 97.5047C72.447 98.5847 72.2413 99.673 71.8237 100.77C71.4036 101.845 70.8417 102.828 70.1379 103.718ZM70.3795 99.4813L65.6525 95.7439L67.4071 93.5248L72.4408 97.5047L70.3795 99.4813Z" fill="white"/>
<path d="M83.8308 88.0979C82.9548 88.9998 81.9997 89.686 80.9655 90.1564C79.9314 90.6269 78.8779 90.8862 77.8051 90.9343C76.7213 90.9717 75.6724 90.7972 74.6583 90.4108C73.6333 90.0136 72.6918 89.3984 71.8339 88.565C70.976 87.7317 70.3392 86.8139 69.9234 85.8115C69.4966 84.7984 69.2917 83.755 69.3086 82.6812C69.3145 81.5968 69.5376 80.5309 69.9778 79.4835C70.418 78.4362 71.0708 77.467 71.9362 76.5761C72.8122 75.6742 73.762 74.9935 74.7854 74.5341C75.8196 74.0636 76.8785 73.8097 77.9623 73.7723C79.0351 73.7241 80.084 73.8986 81.1091 74.2958C82.1232 74.6823 83.0591 75.2922 83.917 76.1255C84.7749 76.9588 85.4173 77.882 85.8441 78.8951C86.2708 79.9082 86.4758 80.9516 86.4588 82.0253C86.4419 83.0991 86.2133 84.1596 85.7731 85.207C85.3436 86.2434 84.6962 87.207 83.8308 88.0979ZM81.934 86.2875C82.5002 85.7046 82.9247 85.0695 83.2075 84.3822C83.4903 83.695 83.6265 82.9936 83.6161 82.2781C83.5947 81.5519 83.4382 80.8548 83.1465 80.1867C82.8546 79.497 82.4116 78.8636 81.8177 78.2867C81.2238 77.7098 80.5834 77.2908 79.8964 77.0297C79.2092 76.7469 78.5078 76.6107 77.7923 76.6211C77.0658 76.6208 76.3631 76.772 75.6844 77.0747C75.0057 77.3773 74.3832 77.8201 73.8169 78.403C73.2507 78.9859 72.8262 79.621 72.5434 80.3083C72.2713 80.9845 72.1406 81.6913 72.1513 82.4285C72.1617 83.144 72.3129 83.8466 72.6049 84.5363C72.8965 85.2044 73.3393 85.8269 73.9332 86.4038C74.5162 86.97 75.1512 87.3945 75.8385 87.6773C76.5364 87.9491 77.2486 88.0851 77.9752 88.0854C78.6907 88.075 79.3878 87.9185 80.0665 87.6159C80.7453 87.3132 81.3678 86.8704 81.934 86.2875Z" fill="white"/>
<path d="M100.111 72.5741L90.3108 59.8005L95.8947 55.5164C97.2816 54.4524 98.7034 53.7867 100.16 53.5192C101.617 53.2518 103.002 53.3686 104.314 53.8694C105.626 54.3703 106.776 55.2655 107.766 56.555C108.746 57.8324 109.312 59.1756 109.466 60.5847C109.61 61.9816 109.364 63.349 108.729 64.687C108.093 66.025 107.082 67.226 105.695 68.29L100.111 72.5741ZM100.943 68.7468L104.045 66.3667C105.007 65.6294 105.694 64.8122 106.107 63.9152C106.533 63.0089 106.682 62.0826 106.555 61.1364C106.441 60.1807 106.047 59.265 105.375 58.3891C104.694 57.501 103.911 56.884 103.027 56.5379C102.146 56.1703 101.213 56.0747 100.227 56.2511C99.2536 56.4181 98.2863 56.8703 97.3253 57.6077L94.2231 59.9878L100.943 68.7468Z" fill="white"/>
<path d="M113.45 51.2147L120.218 46.9428L121.532 49.024L114.763 53.2959L113.45 51.2147ZM117.327 56.927L125.01 52.0782L126.348 54.1982L116.136 60.6429L107.544 47.0277L117.483 40.7549L118.821 42.875L111.41 47.552L117.327 56.927Z" fill="white"/>
<path d="M136.163 49.1086C135.047 49.6872 133.897 50.0846 132.713 50.3007C131.523 50.5032 130.498 50.5079 129.638 50.3146L129.488 47.7759C130.292 47.9288 131.194 47.9362 132.193 47.7982C133.193 47.6602 134.135 47.3619 135.02 46.9032C135.768 46.5151 136.332 46.1194 136.71 45.7162C137.088 45.3129 137.316 44.9187 137.392 44.5335C137.462 44.1347 137.405 43.7584 137.222 43.4044C136.996 42.9688 136.659 42.7028 136.212 42.6065C135.758 42.4965 135.24 42.4972 134.659 42.6085C134.084 42.6992 133.455 42.8352 132.772 43.0166C132.102 43.191 131.415 43.3484 130.711 43.489C130.013 43.6089 129.338 43.6565 128.687 43.6317C128.041 43.5862 127.435 43.3996 126.868 43.0718C126.301 42.744 125.82 42.199 125.425 41.4366C125.022 40.6607 124.86 39.847 124.936 38.9954C125.02 38.1233 125.384 37.2778 126.031 36.4592C126.684 35.6198 127.664 34.8615 128.971 34.1841C129.828 33.7395 130.736 33.4074 131.693 33.1877C132.649 32.968 133.547 32.9001 134.385 32.9839L134.617 35.4802C133.779 35.4307 132.974 35.4939 132.202 35.6697C131.422 35.832 130.72 36.0754 130.093 36.4C129.358 36.781 128.805 37.18 128.434 37.5969C128.077 38.0067 127.863 38.411 127.793 38.8098C127.737 39.2015 127.805 39.5812 127.995 39.9487C128.221 40.3843 128.554 40.6607 128.995 40.7777C129.442 40.874 129.949 40.8701 130.517 40.7658C131.098 40.6544 131.734 40.5149 132.424 40.3471C133.108 40.1657 133.794 40.0082 134.485 39.8747C135.19 39.7341 135.861 39.6798 136.499 39.7116C137.151 39.7364 137.754 39.9162 138.307 40.2511C138.874 40.5788 139.352 41.1171 139.74 41.8658C140.135 42.6282 140.291 43.4454 140.208 44.3176C140.131 45.1691 139.766 46.0145 139.113 46.8539C138.453 47.6796 137.47 48.4312 136.163 49.1086Z" fill="white"/>
<path d="M146.136 44.0002L139.644 29.2673L142.38 28.0615L148.872 42.7944L146.136 44.0002Z" fill="white"/>
<path d="M162.163 37.8186C160.977 38.2382 159.82 38.4365 158.689 38.4137C157.568 38.3713 156.516 38.1337 155.533 37.7008C154.546 37.2534 153.68 36.6244 152.938 35.8136C152.196 35.0029 151.625 34.0338 151.226 32.9063C150.827 31.7788 150.661 30.6665 150.728 29.5692C150.795 28.472 151.074 27.446 151.566 26.4912C152.067 25.5169 152.749 24.6653 153.614 23.9365C154.473 23.1932 155.495 22.6118 156.681 22.1923C157.967 21.7369 159.198 21.5372 160.372 21.5932C161.561 21.644 162.653 21.9488 163.648 22.5076L162.484 24.8714C161.682 24.4885 160.885 24.2826 160.094 24.2535C159.312 24.2049 158.509 24.3264 157.686 24.618C156.891 24.8994 156.199 25.2904 155.612 25.791C155.025 26.2917 154.57 26.8675 154.247 27.5184C153.925 28.1694 153.741 28.8687 153.697 29.6163C153.667 30.3589 153.79 31.1204 154.066 31.901C154.337 32.6671 154.718 33.3293 155.209 33.8877C155.713 34.4409 156.299 34.8763 156.964 35.1938C157.624 35.4969 158.333 35.6608 159.09 35.6857C159.847 35.7105 160.63 35.5797 161.44 35.2932C162.191 35.0271 162.873 34.6557 163.485 34.1788C164.106 33.6824 164.635 33.0398 165.072 32.251L167.421 33.7862C166.851 34.7036 166.097 35.5153 165.159 36.2212C164.231 36.9076 163.232 37.44 162.163 37.8186ZM164.623 34.3615L162.613 28.6809L165.279 27.7369L167.421 33.7862L164.623 34.3615Z" fill="white"/>
<path d="M173.616 33.7639L169.76 18.1325L172.149 17.5431L184.921 27.1611L183.738 27.453L180.769 15.4168L183.649 14.7062L187.505 30.3376L185.116 30.927L172.344 21.3091L173.527 21.0171L176.496 33.0533L173.616 33.7639Z" fill="white"/>
<path d="M254.669 27.3573L257.139 11.4479L264.594 12.6052C266.503 12.9016 267.899 13.5062 268.781 14.4191C269.666 15.3168 270.011 16.3944 269.815 17.652C269.684 18.5005 269.374 19.1972 268.886 19.7421C268.4 20.2719 267.798 20.6517 267.08 20.8815C266.379 21.0986 265.642 21.1471 264.869 21.0272L265.405 20.2725C266.299 20.4113 267.076 20.7026 267.737 21.1465C268.399 21.5752 268.887 22.132 269.2 22.8167C269.528 23.5038 269.62 24.3095 269.476 25.2337C269.265 26.5974 268.577 27.5769 267.414 28.1722C266.251 28.7674 264.639 28.9051 262.578 28.5852L254.669 27.3573ZM257.984 25.4978L262.757 26.2388C263.863 26.4105 264.739 26.3604 265.387 26.0885C266.034 25.8166 266.42 25.2791 266.545 24.4761C266.667 23.6882 266.461 23.0665 265.927 22.6111C265.394 22.1406 264.575 21.8195 263.469 21.6478L258.469 20.8715L258.826 18.576L263.235 19.2605C264.265 19.4205 265.081 19.361 265.683 19.082C266.3 18.8054 266.665 18.3035 266.778 17.5762C266.893 16.8337 266.699 16.2372 266.195 15.7865C265.706 15.3382 264.946 15.034 263.916 14.8741L259.734 14.2248L257.984 25.4978Z" fill="white"/>
<path d="M274.748 30.8267L278.722 15.225L285.141 16.8603C286.523 17.2124 287.648 17.7362 288.515 18.4318C289.397 19.1312 289.999 19.965 290.322 20.9334C290.645 21.9018 290.661 22.958 290.369 24.1021C290.078 25.2463 289.559 26.1662 288.812 26.862C288.069 27.543 287.143 27.9795 286.033 28.1717C284.943 28.3528 283.707 28.2673 282.325 27.9152L277.511 26.6888L279.138 25.7031L277.645 31.5649L274.748 30.8267ZM284.956 33.4273L282.453 26.7611L285.551 27.5503L288.076 34.2222L284.956 33.4273ZM279.059 26.0151L278.118 24.3039L282.799 25.4963C284.077 25.8219 285.105 25.7911 285.884 25.4041C286.678 25.0209 287.2 24.339 287.45 23.3583C287.703 22.3628 287.571 21.5143 287.054 20.8128C286.551 20.1151 285.661 19.6035 284.383 19.278L279.702 18.0856L281.359 16.9884L279.059 26.0151Z" fill="white"/>
<path d="M290.224 34.808L302.473 22.094L305.245 23.0867L306.658 40.6945L303.714 39.6398L302.739 23.875L303.865 24.2783L293.125 35.8473L290.224 34.808ZM294.62 32.4248L296.169 30.4877L304.354 33.4193L304.32 35.8993L294.62 32.4248Z" fill="white"/>
<path d="M310.158 42.1834L317.032 27.6247L319.258 28.6754L323.095 44.1967L321.993 43.6762L327.286 32.466L329.969 33.7327L323.095 48.2915L320.869 47.2408L317.032 31.7195L318.134 32.24L312.841 43.4502L310.158 42.1834Z" fill="white"/>
<path d="M329.237 51.5491L337.578 37.7784L343.598 41.4248C345.093 42.3304 346.23 43.4133 347.008 44.6736C347.787 45.9338 348.181 47.2661 348.191 48.6704C348.201 50.0747 347.784 51.4719 346.942 52.8621C346.108 54.2392 345.063 55.2551 343.805 55.9099C342.556 56.5515 341.193 56.8193 339.716 56.7131C338.238 56.607 336.752 56.1011 335.257 55.1955L329.237 51.5491ZM333.105 50.9343L336.45 52.96C337.486 53.5876 338.497 53.9311 339.482 53.9904C340.481 54.0578 341.399 53.8604 342.234 53.3985C343.083 52.9445 343.793 52.2454 344.365 51.3011C344.945 50.3437 345.236 49.3903 345.237 48.441C345.26 47.4866 345.01 46.5822 344.487 45.728C343.978 44.8818 343.205 44.1448 342.169 43.5172L338.825 41.4915L333.105 50.9343Z" fill="white"/>
<path d="M353.963 67.9375L363.856 55.2357L366.215 57.073L356.322 69.7748L353.963 67.9375Z" fill="white"/>
<path d="M360.869 73.2801L371.66 61.3315L376.883 66.0486C378.18 67.2202 379.092 68.4982 379.619 69.8828C380.145 71.2673 380.281 72.65 380.025 74.0309C379.77 75.4118 379.098 76.7054 378.008 77.9116C376.929 79.1065 375.711 79.9068 374.353 80.3125C373.005 80.7068 371.615 80.7124 370.185 80.3293C368.754 79.9462 367.39 79.1688 366.092 77.9973L360.869 73.2801ZM364.784 73.4065L367.686 76.0271C368.585 76.839 369.513 77.3671 370.47 77.6115C371.438 77.8662 372.376 77.8456 373.284 77.5497C374.203 77.264 375.032 76.7115 375.772 75.8922C376.522 75.0615 376.988 74.1801 377.168 73.2482C377.37 72.3151 377.296 71.3798 376.944 70.4424C376.604 69.5152 375.984 68.6457 375.085 67.8338L372.183 65.2132L364.784 73.4065Z" fill="white"/>
<path d="M385.281 83.5424L390.689 89.4434L388.875 91.1061L383.467 85.2051L385.281 83.5424ZM380.35 88.3737L386.488 95.0717L384.639 96.7655L376.481 87.8631L388.351 76.9857L396.292 85.6507L394.443 87.3445L388.523 80.8839L380.35 88.3737Z" fill="white"/>
<path d="M387.873 100.534L400.683 90.7808L402.174 92.7388L398.427 108.282L397.689 107.312L407.552 99.8022L409.35 102.163L396.54 111.916L395.049 109.958L398.796 94.4148L399.534 95.3847L389.671 102.895L387.873 100.534Z" fill="white"/>
<path d="M401.958 120.116L413.46 112.916L410.629 108.393L412.773 107.05L420.022 118.63L417.878 119.973L415.047 115.45L403.544 122.65L401.958 120.116Z" fill="white"/>
<path d="M408.693 131.428L422.847 123.755L424.272 126.384L410.117 134.056L408.693 131.428Z" fill="white"/>
<path d="M414.289 142.289L426.603 136.587L424.361 131.745L426.657 130.682L432.398 143.079L430.102 144.142L427.86 139.3L415.546 145.002L414.289 142.289Z" fill="white"/>
<path d="M421.015 158.097L426.997 155.904L425.499 157.164L433.953 146.616L435.054 149.618L428.24 158.094L427.623 156.409L438.316 158.514L439.33 161.279L426.061 158.697L428.026 158.711L422.044 160.904L421.015 158.097Z" fill="white"/>
<rect x="435.08" y="196.83" width="6.50885" height="6.50885" transform="rotate(-47.5875 435.08 196.83)" fill="#030406"/>
<rect x="338.18" y="413.792" width="6.50885" height="6.50885" transform="rotate(-73.5444 338.18 413.792)" fill="#030406"/>
<rect x="21.7683" y="172.89" width="6.50885" height="6.50885" transform="rotate(-23.1805 21.7683 172.89)" fill="#030406"/>
<rect x="221.788" y="13.0308" width="6.50885" height="6.50885" transform="rotate(46.9412 221.788 13.0308)" fill="#030406"/>
</svg>
