<svg width="36" height="30" viewBox="0 0 36 30" fill="none" xmlns="http://www.w3.org/2000/svg">
<path d="M35.9764 25.3823C35.9693 25.3468 35.956 25.3142 35.9461 25.2801C35.9341 25.2399 35.9249 25.199 35.9085 25.16C35.8912 25.1187 35.8677 25.0813 35.8461 25.0424C35.8301 25.0133 35.8173 24.9831 35.7985 24.9552C35.7541 24.8892 35.7037 24.8276 35.6474 24.7715L33.1781 22.317C32.7094 21.8511 31.9501 21.8511 31.4814 22.317C31.0126 22.7826 31.0126 23.538 31.4814 24.0036L31.9037 24.4235H28.8422C28.3178 22.585 26.6174 21.2327 24.6023 21.2327L11.3991 21.2328C9.38349 21.2328 7.68364 22.5851 7.15925 24.4236H6.54038C4.25757 24.4229 2.4004 22.5771 2.4004 20.308C2.4004 18.0389 4.25757 16.1928 6.54038 16.1928H7.15912C7.68352 18.0318 9.38391 19.3839 11.399 19.3839H24.6016C26.6168 19.3839 28.3171 18.0313 28.8415 16.1928H29.4602C33.0665 16.1928 35.9999 13.2768 35.9999 9.69195C35.9999 6.10709 33.0664 3.19109 29.4599 3.19109H28.8412C28.3168 1.3526 26.6164 0 24.6013 0H11.399C9.38337 0 7.68352 1.3523 7.15912 3.19109H1.20026C0.537447 3.19109 0.000269998 3.72506 0.000269998 4.38391C0.000269998 5.04276 0.537447 5.57673 1.20026 5.57673H7.15853C7.68292 7.41522 9.38331 8.76782 11.3984 8.76782H24.601C26.6162 8.76782 28.3165 7.41552 28.8409 5.57673H29.4596C31.7426 5.57673 33.5996 7.4228 33.5996 9.69195C33.5996 11.9611 31.7424 13.8072 29.4596 13.8072H28.8409C28.3165 11.9687 26.6161 10.6161 24.601 10.6161H11.3987C9.38307 10.6161 7.68322 11.9684 7.15882 13.8072H6.53996C2.93368 13.8072 0 16.7232 0 20.308C0 23.8929 2.93353 26.8089 6.53996 26.8089H7.1587C7.6831 28.6479 9.38349 30 11.3986 30H24.6012C26.6163 30 28.3167 28.6474 28.8411 26.8089H31.9032L31.4808 27.2292C31.0121 27.6951 31.0121 28.4502 31.4808 28.9158C31.7152 29.1488 32.0225 29.2653 32.3292 29.2653C32.636 29.2653 32.9436 29.1488 33.1777 28.9158L35.6469 26.461C35.7033 26.405 35.7541 26.3433 35.7986 26.2769C35.8161 26.2507 35.8277 26.2224 35.8433 26.1954C35.8662 26.1549 35.8905 26.1151 35.9085 26.0717C35.9241 26.0348 35.9325 25.9957 35.9441 25.9575C35.9549 25.9213 35.9689 25.8867 35.9764 25.8494C35.9917 25.7735 35.9996 25.6964 35.9996 25.6193C35.9996 25.6181 36 25.6173 36 25.6165C35.9996 25.5374 35.9912 25.4591 35.9761 25.3823L35.9764 25.3823Z" fill="white"/>
</svg>
