<svg width="24" height="28" viewBox="0 0 24 28" fill="none" xmlns="http://www.w3.org/2000/svg">
<path d="M21.9998 2.00001H19.8159C19.6097 1.4171 19.2286 0.912085 18.7245 0.554056C18.2205 0.196028 17.6181 0.00258668 16.9998 0H6.99994C6.3817 0.00260417 5.77933 0.196044 5.27526 0.554056C4.77121 0.912085 4.39007 1.41707 4.18391 2.00001H1.99998C1.46956 2.00001 0.960818 2.21074 0.585835 2.58585C0.210745 2.96084 0 3.46962 0 4.00002V8.00004C0.00395836 9.2489 0.476049 10.4509 1.323 11.3686C2.17009 12.2863 3.33037 12.8531 4.57497 12.9569C5.31152 14.8352 6.73871 16.3604 8.564 17.2199H8.57004C8.70806 17.2859 8.85108 17.3369 8.99201 17.3949V21H7.00006C6.46964 21 5.96089 21.2107 5.58591 21.5858C5.21082 21.9608 5.00008 22.4696 5.00008 23V26C5.00008 26.5304 5.2108 27.0392 5.58591 27.4142C5.96089 27.7893 6.46966 28 7.00006 28H17C17.5304 28 18.0391 27.7893 18.4141 27.4142C18.7892 27.0392 19 26.5304 19 26V23C19 22.4695 18.7892 21.9608 18.4141 21.5858C18.0391 21.2107 17.5304 21 17 21H15V17.3999C15.141 17.3419 15.2839 17.291 15.423 17.2249H15.429C17.2543 16.3655 18.6814 14.8401 19.418 12.962C20.6646 12.8597 21.8274 12.293 22.6761 11.374C23.5247 10.455 23.9972 9.25082 24 8.00007V4.00005C24 3.46962 23.7893 2.96087 23.4142 2.58588C23.0392 2.21078 22.5302 2.00001 21.9998 2.00001ZM3.99996 10.8291C3.41549 10.6216 2.90944 10.2383 2.55144 9.73173C2.19331 9.22527 2.00073 8.62047 1.99998 8.00015V4.00013H3.99996V10.8291ZM21.9998 8.00004C21.9991 8.62037 21.8065 9.22514 21.4483 9.73162C21.0903 10.2382 20.5843 10.6215 19.9998 10.829V3.99991H21.9998V8.00004Z" fill="white"/>
</svg>
