<svg width="27" height="28" viewBox="0 0 27 28" fill="none" xmlns="http://www.w3.org/2000/svg">
<path d="M24.7725 28C24.705 28 24.6037 28 24.5362 27.9657L17.82 26.7632C16.4026 27.2442 14.9512 27.4847 13.5 27.4847C6.04125 27.4847 0 21.335 0 13.7423C0 6.14969 6.04125 0 13.5 0C20.9588 0 27 6.14969 27 13.7423C27 15.4601 26.6962 17.1436 26.0888 18.7583C25.65 19.8921 25.0426 20.9914 24.3339 21.9877L26.0551 26.0761C26.2576 26.5228 26.1901 27.0724 25.8863 27.4846C25.5826 27.8282 25.1774 28 24.7725 28Z" fill="white"/>
</svg>
