<svg width="38" height="28" viewBox="0 0 38 28" fill="none" xmlns="http://www.w3.org/2000/svg">
<path d="M16.5491 2.09189e-06C16.2804 2.0684e-06 16.0118 0.0445424 15.7879 0.133772L5.7565 4.50166C5.21918 4.72451 4.32352 4.90283 3.78601 4.90283L1.09904 4.90283C0.516791 4.90283 0.0689655 5.34853 0.0689655 5.92802L0.0689646 16.1792C0.0689645 16.7587 0.51679 17.2044 1.09904 17.2044L2.53202 17.2044C3.11427 17.2044 3.965 17.4718 4.41282 17.7839L5.30848 18.4524C5.48764 18.5862 5.71156 18.6753 5.98022 18.6753C6.29364 18.6753 6.60722 18.5415 6.83114 18.2741L17.6686 5.74948C17.9373 5.43755 18.3403 5.30378 18.7434 5.30378C18.9226 5.30378 19.1017 5.34832 19.2807 5.39286L23.4903 7.26489C24.0276 7.48774 24.8338 7.88891 25.3711 8.1563C25.3711 8.1563 25.595 8.24538 25.8637 8.42369C26.0876 8.55746 26.3563 8.64654 26.6249 8.64654C27.1175 8.64654 27.5653 8.42369 27.834 7.97798C28.2371 7.30943 28.0579 6.46256 27.3862 6.06139C27.0278 5.83854 17.5787 0.267245 17.5787 0.267245C17.3102 0.0890793 16.9073 -1.84398e-06 16.5489 -1.87531e-06M7.7715 19.9229L13.7276 12.7025L18.7881 6.81926L22.9081 8.6466C23.4007 8.86945 24.2068 9.27062 24.6994 9.49347C24.6994 9.49347 24.8786 9.58256 25.0577 9.71633C25.5503 10.0283 26.0878 10.162 26.6251 10.162C27.6552 10.162 28.5956 9.62726 29.1329 8.78039C29.5808 8.11183 29.7152 7.30949 29.536 6.55187C29.4465 6.23994 29.3121 5.97238 29.1777 5.705L36.746 5.705C37.4625 5.705 38 6.28449 38 6.95304L38 17.7391C38 18.4521 37.4177 18.9871 36.746 18.9871L32.4469 18.9871C32.4469 18.274 32.1782 17.4717 31.6407 16.6248C31.4168 16.3129 30.5659 15.1539 29.491 14.7529C29.0879 14.5746 28.6849 14.5301 28.237 14.5301C26.8488 14.5301 25.6396 15.3324 25.147 16.6248C25.0575 16.8477 25.0126 17.0705 24.9678 17.4271C24.3408 17.7838 23.893 18.3631 23.5796 19.0316C23.5348 19.1654 23.4901 19.3436 23.4452 19.4773C22.6839 19.834 22.057 20.4578 21.6986 21.2601C21.6539 21.3047 21.6539 21.3939 21.6539 21.4385C20.7135 21.7059 19.9073 22.4189 19.5042 23.3996C19.1459 24.3355 19.4147 25.3607 19.9968 26.2967C19.952 26.3412 19.9073 26.3857 19.9073 26.3857C19.5939 26.6977 19.4147 26.9205 19.4147 26.9205C19.0564 27.3217 18.5638 27.5 18.0712 27.5C17.5786 27.5 17.1308 27.3217 16.7277 26.9652C16.4143 26.6533 16.2352 26.2967 16.1904 25.8955L16.1009 25.8064C15.7426 26.1184 15.2947 26.2967 14.8469 26.2967C14.3543 26.2967 13.9065 26.1183 13.5482 25.7619C13.1899 25.4053 13.0109 24.9596 12.9659 24.4693C12.6525 24.6922 12.2494 24.8259 11.8911 24.8259C11.3985 24.8259 10.9507 24.6476 10.5476 24.2912C10.1445 23.89 9.96536 23.3998 9.96536 22.9095C9.69669 23.0433 9.42804 23.0878 9.15919 23.0878C8.66662 23.0878 8.21879 22.9095 7.86046 22.5531C7.05489 21.8842 7.00999 20.6807 7.77139 19.9231L7.7715 19.9229ZM28.2373 16.1345C27.5208 16.1345 26.849 16.5802 26.5804 17.2487C26.446 17.6053 26.5356 18.051 26.8043 18.5413L26.7148 18.5413C25.9983 18.5413 25.3265 18.9425 25.0579 19.6555C24.9235 19.9675 25.0131 20.4132 25.237 20.8589C25.1025 20.8143 24.9682 20.8143 24.8338 20.8143C24.1173 20.8143 23.4456 21.2155 23.1769 21.9286C23.0425 22.2405 23.1322 22.6417 23.3561 23.0874C23.3561 23.0874 23.3113 23.0874 23.3113 23.0428C23.0874 22.9538 22.8635 22.9091 22.6396 22.9091C21.9231 22.9091 21.2514 23.3548 20.9827 24.0233C20.6244 24.9147 22.0128 26.7421 22.9532 27.0987C23.1771 27.1878 23.401 27.2325 23.6249 27.2325C24.3414 27.2325 25.0132 26.7868 25.2818 26.1182C25.4162 25.8063 25.3266 25.4051 25.1027 24.9594C25.1027 24.9594 25.1474 24.9594 25.1474 25.004C25.3713 25.0931 25.5952 25.1377 25.8192 25.1377C26.5356 25.1377 27.2074 24.692 27.476 24.0235C27.6105 23.7116 27.5208 23.2659 27.2969 22.8202C27.4313 22.8647 27.5655 22.8647 27.7 22.8647C28.4165 22.8647 29.0882 22.4635 29.3569 21.7504C29.4913 21.3938 29.4016 20.9481 29.1329 20.4579L29.2224 20.4579C29.9389 20.4579 30.6107 20.0567 30.8793 19.3436C31.2377 18.4522 29.8493 16.6249 28.9089 16.2682C28.6851 16.179 28.4612 16.1345 28.2373 16.1345Z" fill="white"/>
</svg>
