<svg width="29" height="22" viewBox="0 0 29 22" fill="none" xmlns="http://www.w3.org/2000/svg">
<path d="M27.0052 4.04344L24.7753 5.87634C24.1723 6.3811 23.4101 6.63986 22.6341 6.60312C21.8581 6.56637 21.1222 6.23671 20.5668 5.67706L15.3656 0.364461C15.1355 0.130779 14.8252 0 14.5021 0C14.179 0 13.8688 0.130784 13.6386 0.364461L8.43741 5.67706C7.88547 6.24064 7.15118 6.57522 6.37517 6.61673C5.59894 6.65845 4.83507 6.40424 4.22898 5.90274L1.99907 4.04344C1.73956 3.82986 1.40743 3.73345 1.07788 3.77604C0.7483 3.81862 0.449566 3.99653 0.249185 4.26956C0.048831 4.54236 -0.0359244 4.88714 0.0140071 5.22544L1.76706 16.9663C1.43139 16.9678 1.11081 17.1103 0.879818 17.361C0.648626 17.6118 0.526738 17.949 0.542474 18.2944V20.7382C0.542474 21.0729 0.671494 21.3939 0.901221 21.6303C1.13094 21.8671 1.44227 22 1.76703 22H27.2371C27.5618 22 27.8732 21.8671 28.1029 21.6303C28.3326 21.3939 28.4616 21.0729 28.4616 20.7382V18.2944C28.4774 17.949 28.3555 17.6118 28.1243 17.361C27.8933 17.1103 27.5727 16.9678 27.237 16.9663L28.9901 5.19887C29.0316 4.86359 28.9416 4.52506 28.74 4.25832C28.5382 3.99157 28.2415 3.81906 27.9159 3.77864C27.5901 3.73821 27.2622 3.83354 27.005 4.04345L27.0052 4.04344Z" fill="white"/>
</svg>
