<svg width="22" height="28" viewBox="0 0 22 28" fill="none" xmlns="http://www.w3.org/2000/svg">
<path fill-rule="evenodd" clip-rule="evenodd" d="M19.2498 0.000160176L10.764 0.000159434C10.0346 0.000159371 9.33513 0.289941 8.81943 0.805634L0.805474 8.81959C0.289757 9.33531 -2.75283e-06 10.0348 -2.81659e-06 10.7642L-4.03927e-06 24.75C-4.17205e-06 26.2688 1.23124 27.5 2.75 27.5L19.25 27.5C20.7688 27.5 22 26.2688 22 24.75L22 2.75C22 1.23124 20.7688 -1.07639e-07 19.25 -2.40413e-07L19.2498 0.000160176ZM9.82628 3.92372C9.95527 3.79473 10.1301 3.72231 10.3125 3.72231C10.6922 3.72231 11 4.03017 11 4.40981L11 10.3125C11 10.6922 10.6922 11 10.3125 11L4.40981 11C4.22746 11 4.05263 10.9275 3.92372 10.7986C3.65516 10.5301 3.65516 10.0948 3.92372 9.82627L9.82628 3.92372Z" fill="white"/>
</svg>
