<svg width="100" height="62" viewBox="0 0 100 62" fill="none" xmlns="http://www.w3.org/2000/svg">
<path d="M8.07362 40.2143C9.17336 41.3048 10.0429 42.285 10.6823 43.1795C11.0915 42.6771 11.5391 42.138 12.025 41.5498C12.511 40.9617 13.0097 40.4103 13.5084 39.8834C13.9943 39.3566 14.4803 38.8542 14.9406 38.3886C15.401 37.923 15.8102 37.5676 16.1555 37.3471C15.8613 37.1755 15.4649 36.8937 14.9406 36.4771C14.4163 36.0605 13.8792 35.5827 13.3294 35.068C12.7795 34.5412 12.2424 34.002 11.7181 33.4384C11.1938 32.887 10.823 32.4091 10.58 32.0293C10.2347 32.5317 9.82554 33.0585 9.36518 33.6099C8.90482 34.1613 8.41889 34.7004 7.93295 35.2396C7.44702 35.7787 6.9483 36.2566 6.44958 36.6977C5.95086 37.1388 5.54165 37.4696 5.18359 37.7024C6.0148 38.2783 6.97387 39.1238 8.07362 40.2143Z" fill="white"/>
<path d="M8.06971 52.0134C9.16945 53.1284 10.039 54.0964 10.6784 54.9296C11.0876 54.4272 11.5352 53.8881 12.0211 53.2999C12.5071 52.7118 13.0058 52.1604 13.5045 51.6335C13.9904 51.1067 14.4764 50.6043 14.9367 50.1387C15.3971 49.6731 15.8063 49.3177 16.1516 49.0972C15.8574 48.9256 15.461 48.6316 14.9367 48.2272C14.4124 47.8106 13.8753 47.3328 13.3255 46.8059C12.7756 46.279 12.2385 45.7399 11.7142 45.1762C11.1899 44.6248 10.8191 44.147 10.5761 43.7549C10.2308 44.2573 9.82163 44.7841 9.36128 45.3355C8.90092 45.8869 8.41498 46.426 7.92905 46.9652C7.44311 47.5043 6.9444 47.9822 6.44568 48.4233C5.94695 48.8644 5.53774 49.2075 5.17969 49.428C6.01089 50.0407 6.96997 50.8984 8.06971 52.0134Z" fill="white"/>
<path d="M8.10734 28.4507C9.18151 29.5412 10.0383 30.5215 10.6777 31.4159C11.4833 30.4112 12.4296 29.3084 13.5038 28.0831C14.5779 26.8578 15.4603 26.0369 16.1508 25.5835C15.8567 25.412 15.4603 25.1301 14.936 24.7135C14.4117 24.2969 13.8746 23.8191 13.3247 23.2922C12.7749 22.7653 12.2378 22.2262 11.7135 21.6626C11.1892 21.1112 10.8183 20.6333 10.5754 20.2412C10.2301 20.6946 9.82089 21.1847 9.36054 21.7483C8.90018 22.2997 8.41424 22.8388 7.92831 23.378C7.44238 23.9171 6.95644 24.395 6.49608 24.8361C6.03573 25.2772 5.62652 25.6203 5.28125 25.8408C6.09966 26.5025 7.03317 27.3724 8.10734 28.4507Z" fill="white"/>
<path d="M98.6217 50.8129C97.7777 49.4773 96.678 48.3133 95.3097 47.3085C93.9414 46.316 92.4197 45.5318 90.7445 44.9805C89.0565 44.4291 87.3813 44.1473 85.6933 44.1473C83.9542 44.1473 81.8059 44.4536 79.2483 45.0662C78.0335 44.0615 77.1767 43.216 76.678 42.5176C76.192 41.8314 75.9363 40.839 75.9363 39.5647V19.8864C75.9363 18.6611 76.3455 17.8279 77.1511 17.3868C77.9696 16.9457 78.8775 16.5291 79.8877 16.137C80.8979 15.7449 81.8186 15.218 82.6243 14.5563C83.4427 13.8824 83.8391 12.7552 83.8391 11.1378C83.8391 8.96899 83.302 7.15555 82.2279 5.6852C81.1537 4.21484 79.9644 3.05081 78.6601 2.18085C77.3557 1.32314 76.1537 0.735001 75.0539 0.428677C73.9542 0.122353 73.4043 0.0243301 73.4043 0.134607C73.4043 0.244883 73.5961 0.416426 73.967 0.636979C74.3506 0.857532 74.747 1.18836 75.1818 1.64172C75.6166 2.08283 76.0258 2.64646 76.3967 3.30812C76.7803 3.98204 76.9593 4.83975 76.9593 5.8935C76.9593 7.40061 76.5117 8.65042 75.6166 9.64291C74.7215 10.6477 73.724 11.4686 72.6115 12.1058C71.5117 12.7429 70.5143 13.2575 69.6064 13.6496C68.6985 14.0417 68.2637 14.3726 68.2637 14.6544V36.6362C68.2637 37.4081 68.3788 38.082 68.6089 38.6334C68.8391 39.1848 69.3122 39.7607 70.0412 40.3366C70.7701 40.9247 71.7931 41.5864 73.1358 42.3338C74.4657 43.0812 76.2432 44.0737 78.4427 45.299C75.8851 45.9117 73.7112 46.5856 71.921 47.3453C70.1307 48.105 68.3148 49.1097 66.4862 50.384C64.6575 51.6583 63.1614 53.2512 62.0105 55.1382C62.0105 55.2484 61.7547 54.8073 61.2304 53.8026C60.7061 52.7978 60.4504 51.499 60.4504 49.8816V29.2967C60.4504 28.1326 60.2074 27.2504 59.7087 26.6745C59.2227 26.0864 58.6601 25.5228 58.0591 24.9591C57.4453 24.4077 56.8826 23.7951 56.3583 23.1212C55.834 22.4595 55.5782 21.4548 55.5782 20.1192C55.7573 20.1192 56.2304 20.0089 57.0105 19.7884C57.7905 19.5678 58.6345 19.2982 59.5296 18.9919C60.4376 18.6856 61.6013 18.3058 63.0591 17.8646C63.5834 17.8646 63.9926 17.9994 64.2739 18.2812C64.568 18.5631 64.7854 18.8571 64.9261 19.1512C65.0667 19.4575 65.169 19.7516 65.233 20.0212C65.2969 20.303 65.3481 20.4378 65.412 20.4378C65.4759 20.4378 65.5271 20.0334 65.591 19.2247C65.655 18.416 65.5143 17.5338 65.2074 16.5536C64.8877 15.5856 64.2611 14.6911 63.3404 13.8824C62.4069 13.0737 60.9875 12.6694 59.0693 12.6694C58.545 12.6694 57.8289 12.7919 56.8954 13.0492C55.9619 13.2943 54.9261 13.5639 53.7624 13.8457C53.4299 13.9314 53.0974 14.005 52.7649 14.0785C47.2918 14.9975 48.1358 14.7646 46.2944 14.8137C44.4913 14.8627 43.0846 14.3235 40.7956 13.6006C38.5066 12.8777 36.0898 12.0935 33.5322 11.2726C30.9747 10.4393 28.3404 9.65516 25.6166 8.93223C22.8928 8.20931 20.1946 7.85397 17.522 7.85397C14.4529 7.85397 11.8698 8.20931 9.7854 8.89548C7.70101 9.5939 6.00024 10.4884 4.69589 11.6034C3.39154 12.7184 2.44525 13.9314 1.8698 15.267C1.29435 16.6026 1.00024 17.9382 1.00024 19.2737C1.00024 20.1682 1.21763 20.9524 1.65242 21.6508C2.0872 22.3492 2.54755 22.9251 3.04627 23.403C3.53221 23.8809 3.97978 24.1994 4.35062 24.3587C4.72147 24.5303 4.86213 24.5303 4.74704 24.3587C4.27389 23.6848 3.81354 23.0354 3.35318 22.3982C2.89282 21.7611 2.66264 20.8299 2.66264 19.6046C2.66264 18.5508 2.98233 17.6196 3.62172 16.8109C4.26111 16.0022 5.1051 15.3283 6.1409 14.7646C7.1895 14.2133 8.36597 13.7967 9.70868 13.5148C11.0386 13.233 12.4069 13.0982 13.8008 13.0982C15.7701 13.0982 17.6371 13.3065 19.3634 13.7231C21.1025 14.1397 22.7394 14.6421 24.2867 15.218C25.8212 15.8061 27.2279 16.4065 28.5066 17.056C29.7854 17.6931 30.9107 18.2322 31.8954 18.6856L19.632 27.4342C19.9772 28.831 20.1562 29.7623 20.1562 30.2646V50.188C20.1562 51.6338 19.7343 52.9449 18.8903 54.1089C18.0463 55.2729 17.0105 56.3022 15.7573 57.1967C14.5169 58.0911 13.1614 58.765 11.7163 59.2429C10.2585 59.7085 8.90305 59.9536 7.62428 59.9536C7.50919 59.9536 7.09998 59.9413 6.39666 59.9168C5.70612 59.8923 4.96443 59.733 4.18438 59.4635C3.40433 59.1816 2.70101 58.7405 2.09999 58.1279C1.48617 57.5152 1.19205 56.6575 1.19205 55.5425C1.19205 54.6603 1.49896 53.8884 2.09999 53.2512C2.7138 52.6141 3.27645 52.1484 3.80075 51.8789C4.32505 51.5971 4.60638 51.4378 4.67031 51.3765C4.55523 51.3765 4.24832 51.4255 3.76239 51.548C3.27646 51.6583 2.76494 51.8911 2.24065 52.2587C1.71635 52.6141 1.2432 53.1164 0.808421 53.7536C0.373638 54.3907 0.15625 55.2484 0.15625 56.3022C0.15625 57.9686 0.833999 59.2552 2.20229 60.1741C3.55778 61.0931 5.34806 61.5465 7.54755 61.5465C10.3864 61.5465 12.9951 61.0073 15.3736 59.9168C17.7522 58.8263 19.811 57.6255 21.5501 56.2899C23.2892 54.9544 24.6319 53.6923 25.591 52.4915C26.5501 51.303 27.0233 50.5556 27.0233 50.286V42.2848C27.5476 41.8437 27.9568 41.6109 28.2381 41.6109C28.6473 41.6109 29.1077 41.7212 29.632 41.9417C30.1562 42.1623 30.6933 42.4318 31.2432 42.7382C31.7931 43.0445 32.3174 43.3141 32.8033 43.5346C33.2892 43.7552 33.7112 43.8654 34.0693 43.8654C34.2995 43.8654 34.6064 43.6939 34.9772 43.3631C35.3481 43.0322 35.8084 42.6279 36.3199 42.15C36.8442 41.6844 37.4197 41.2188 38.0591 40.7777C38.6984 40.3366 39.389 39.9935 40.1435 39.7729C40.4376 39.6627 40.2713 39.3809 39.6703 38.9397C39.0693 38.4986 38.3532 38.0208 37.5348 37.5184C36.7164 37.016 35.5655 36.3544 34.0565 35.5212C33.7112 35.5212 33.1486 35.8397 32.4069 36.4769C31.6524 37.1141 30.8724 37.8125 30.0539 38.5599C29.2483 39.3073 28.2253 40.2998 27.0105 41.5251V29.2109C27.0105 27.765 27.3302 26.4172 27.9695 25.1674C28.6089 23.9176 29.2867 22.8516 30.0156 21.9571C30.7445 21.0627 31.7419 20.1314 33.0207 19.1267C33.4811 19.3473 34.1588 19.5188 35.0667 19.6291C35.9619 19.7394 36.857 19.8251 37.7266 19.8741C38.5961 19.9231 39.3506 19.9599 39.99 19.9599H40.9491V51.7196C40.9491 52.1607 40.7573 52.516 40.3864 52.7611C40.0156 53.0061 39.6064 53.2145 39.1716 53.386C38.7368 53.5575 38.3276 53.7168 37.9568 53.8884C37.5859 54.0599 37.3941 54.2192 37.3941 54.3907C37.3941 54.5623 37.522 54.7216 37.7777 54.8931C38.0335 55.0646 38.3404 55.2117 38.6857 55.3465C39.0309 55.4813 39.4146 55.6405 39.8238 55.7998C40.233 55.9714 40.5782 56.1674 40.8724 56.388C41.2816 56.7188 41.6524 57.1354 41.9977 57.6378C42.343 58.1401 42.6499 58.6058 42.9056 59.0591C43.1614 59.5125 43.4299 59.8923 43.6857 60.2231C43.9414 60.554 44.2227 60.7255 44.5169 60.7255C44.811 60.7255 45.0667 60.5785 45.2969 60.2722C45.5271 59.9658 45.7573 59.5982 46.0002 59.1449C46.2304 58.7038 46.4862 58.2382 46.7803 57.7726C47.0744 57.3069 47.4452 56.9271 47.9056 56.6453C48.2509 56.4247 48.6857 56.2409 49.21 56.1062C49.7343 55.9714 50.2458 55.8611 50.7317 55.7753C51.2176 55.6896 51.6268 55.6038 51.9465 55.5303C52.2662 55.4445 52.4197 55.322 52.4197 55.1627C52.4197 54.8809 52.1767 54.5745 51.678 54.2437C51.1921 53.9129 50.6678 53.5575 50.1179 53.1654C49.568 52.7733 49.0437 52.3322 48.5578 51.8299C48.0591 51.3275 47.8161 50.7394 47.8161 50.0777V20.5971C49.4146 20.548 51.5245 20.1437 53.3404 20.303V43.7307C53.3404 45.005 53.6729 46.316 54.3378 47.6516C55.0028 48.9872 55.8468 50.2737 56.857 51.5235C57.8672 52.7733 58.9798 53.9496 60.1562 55.0647C61.3455 56.1797 62.4453 57.1231 63.4683 57.8951C64.4785 58.667 65.3225 59.2674 65.9874 59.684C66.6524 60.1006 66.9849 60.2231 66.9849 60.0639C66.9849 59.5125 67.3941 58.8386 68.1997 58.0666C69.0054 57.2947 70.1051 56.4982 71.4606 55.6895C72.8289 54.8809 74.3634 54.0722 76.077 53.2757C77.7905 52.467 79.5424 51.7564 81.3455 51.1437C83.1486 50.5311 84.9005 50.0287 86.6141 49.6488C88.3276 49.2567 89.8493 49.0607 91.1793 49.0607C92.2279 49.0607 93.1741 49.2812 94.0565 49.7224C94.9261 50.1635 95.6678 50.7393 96.2816 51.4378C96.8954 52.1362 97.3557 52.8959 97.6754 53.7291C97.9951 54.5623 98.1486 55.3955 98.1486 56.2287C98.1486 57.0619 97.9696 57.7971 97.6243 58.4342C97.279 59.0714 96.8826 59.6228 96.4478 60.0639C96.013 60.505 95.6038 60.8726 95.233 61.1421C94.8493 61.4239 94.6703 61.6445 94.6703 61.816C94.6703 61.9876 94.9517 61.9508 95.5015 61.7303C96.0514 61.5097 96.6524 61.1176 97.2918 60.5662C97.9312 60.0148 98.5194 59.2797 99.0821 58.3607C99.632 57.4417 99.9133 56.3757 99.9133 55.1504C99.8749 53.5943 99.4657 52.1484 98.6217 50.8129Z" fill="white"/>
<path d="M82.2546 22.1653C81.7687 22.5819 81.3722 22.876 81.0781 23.0353C81.4234 23.2558 81.8326 23.6112 82.293 24.0768C82.7533 24.5547 83.2392 25.0693 83.7252 25.6207C84.2239 26.172 84.7098 26.7479 85.2086 27.3361C85.7073 27.9242 86.1549 28.4633 86.5513 28.9657C86.8454 28.5246 87.2162 28.0345 87.6894 27.5076C88.1497 26.9807 88.6357 26.4661 89.1216 25.9637C89.6203 25.4614 90.1063 24.9958 90.605 24.5424C91.0909 24.1013 91.5513 23.7092 91.9477 23.3784C91.6024 23.1578 91.1804 22.827 90.6817 22.3736C90.1958 21.9325 89.6971 21.4424 89.1983 20.9155C88.7124 20.3886 88.2265 19.8495 87.7661 19.2859C87.3058 18.7345 86.9221 18.2321 86.6408 17.791C86.3467 18.1831 85.963 18.6365 85.4643 19.1633C84.9784 19.6902 84.4285 20.2171 83.8531 20.744C83.2904 21.2709 82.7533 21.7365 82.2546 22.1653Z" fill="white"/>
<path d="M89.2228 32.9116C88.7369 32.3847 88.251 31.8456 87.7906 31.282C87.3303 30.7306 86.9466 30.2282 86.6653 29.7871C86.3712 30.1792 85.9875 30.6326 85.4888 31.1594C85.0029 31.6863 84.453 32.2132 83.8776 32.7401C83.3021 33.267 82.765 33.7448 82.2663 34.1614C81.7804 34.578 81.384 34.8721 81.0898 35.0314C81.4351 35.2519 81.8443 35.6073 82.3047 36.0729C82.765 36.5508 83.251 37.0654 83.7369 37.6168C84.2356 38.1681 84.7216 38.744 85.2203 39.3322C85.719 39.9203 86.1666 40.4594 86.563 40.9618C86.8571 40.5207 87.228 40.0306 87.7011 39.5037C88.1615 38.9768 88.6474 38.4622 89.1333 37.9598C89.632 37.4575 90.118 36.9919 90.6167 36.5385C91.1026 36.0974 91.563 35.7053 91.9594 35.3745C91.6141 35.1539 91.1921 34.8231 90.6934 34.3697C90.2075 33.9286 89.7088 33.4385 89.2228 32.9116Z" fill="white"/>
</svg>
